<mxfile host="65bd71144e">
    <diagram id="iKdoMs6LhHnT0IDPYBxG" name="Page-1">
        <mxGraphModel dx="499" dy="438" grid="1" gridSize="10" guides="1" tooltips="1" connect="1" arrows="1" fold="1" page="1" pageScale="1" pageWidth="850" pageHeight="1100" math="0" shadow="0">
            <root>
                <mxCell id="0"/>
                <mxCell id="1" parent="0"/>
                <mxCell id="2" value="" style="ellipse;html=1;shape=endState;fillColor=#f5f5f5;strokeColor=#666666;gradientColor=#b3b3b3;" parent="1" vertex="1">
                    <mxGeometry x="365" y="90" width="30" height="30" as="geometry"/>
                </mxCell>
                <mxCell id="16" value="" style="edgeStyle=none;html=1;fillColor=#1ba1e2;strokeColor=#006EAF;" parent="1" source="4" target="12" edge="1">
                    <mxGeometry relative="1" as="geometry"/>
                </mxCell>
                <mxCell id="4" value="" style="ellipse;html=1;shape=startState;fillColor=#f5f5f5;gradientColor=#b3b3b3;strokeColor=#666666;" parent="1" vertex="1">
                    <mxGeometry x="120" y="90" width="30" height="30" as="geometry"/>
                </mxCell>
                <mxCell id="5" value="" style="edgeStyle=orthogonalEdgeStyle;html=1;verticalAlign=bottom;endArrow=open;endSize=8;strokeColor=#006EAF;fillColor=#1ba1e2;" parent="1" source="4" edge="1">
                    <mxGeometry relative="1" as="geometry">
                        <mxPoint x="135" y="150" as="targetPoint"/>
                    </mxGeometry>
                </mxCell>
                <mxCell id="9" value="Administracion" style="text;html=1;strokeColor=none;fillColor=none;align=center;verticalAlign=middle;whiteSpace=wrap;rounded=0;" parent="1" vertex="1">
                    <mxGeometry x="97.5" y="50" width="75" height="30" as="geometry"/>
                </mxCell>
                <mxCell id="10" value="Docente" style="text;html=1;strokeColor=none;fillColor=none;align=center;verticalAlign=middle;whiteSpace=wrap;rounded=0;" parent="1" vertex="1">
                    <mxGeometry x="320" y="50" width="80" height="30" as="geometry"/>
                </mxCell>
                <mxCell id="15" style="edgeStyle=none;html=1;exitX=0.5;exitY=1;exitDx=0;exitDy=0;entryX=0.5;entryY=0;entryDx=0;entryDy=0;fillColor=#1ba1e2;strokeColor=#006EAF;" parent="1" source="12" edge="1">
                    <mxGeometry relative="1" as="geometry">
                        <mxPoint x="135" y="260" as="targetPoint"/>
                    </mxGeometry>
                </mxCell>
                <mxCell id="12" value="&lt;span data-metadata=&quot;&lt;!--(figmeta)eyJmaWxlS2V5IjoiYTQ0OTZRTWhQaFlxdDFIOWtEbExKTyIsInBhc3RlSUQiOjE0NjYxOTMwNDUsImRhdGFUeXBlIjoic2NlbmUifQo=(/figmeta)--&gt;&quot;&gt;&lt;/span&gt;&lt;span data-buffer=&quot;&lt;!--(figma)ZmlnLWtpd2kZAAAATjoAALWdeZhsSVXgI25m1vLqLb3v7Ptq7zQ7udyqzPdy67yZVd0tdpJVeetV8rIyk7xZ7/VrN0RERERERERERERERERERERERERERERERARkGMdhHMdxGEed+Z2IuDdv1nvNzD/T39cvTpw4cSLixIkTJ05E3vo3XQujqHc6bJ+fhEpddrJRqXeDdr7VVvxXb5T8brGcr2/4AVndCfxWKu8Zar9eAs4ElY16vgqUDdp3V32AnAG6gS+8lgyt4dwNTlWa3ZZfbeSl5nK90a6s390Nyo1OtdTtNDda+ZLUX3Fgt9SoS341zrf89ZYflEEdCYp+3e+Cbpa7d3b81t0g19LIlt+sCvJoqbK+TnqsWK349Xa30KL1Yj6Qvh1P9e1ko9NiHL707ETQbvn5mi0hf4nL2xFfmr9vECGEu4CVNKHzOzsIExRUpW6jbhpWJrPVqrRlDLo+7ofNvV4UQlakqG1agqjW2DSg3hqM+oPR6dbBUGjqjfo9fqtBgWqUTLlwsLP1MAp9UKrUKHZqjApQF/P1zXwA5G20Gp0mQGa9la8JXbbQaFT9fL3baPqtfLvSqIPMbfrFdqMFtCTjJF2uVgzbFb9arTQDAVdbEDHtZl6PtPyNTjXf6jYb1bs3DJM1mqqX/BLintMdbft3SZeOBdVKURDHg7trhYboyIlKncbqBotUK8VTIqpLg3K+6Xe3Ku1y19W9rNio1+FpOnh5UfSxUG0UT5G7YqtS2jC6dSW8ajLSq2p+qZIHuLpc2ShX+V+KrwlgYAd7rQO7CLtVzUuj123lg3Kl26Zlctdv5luVfMH0/4a2Ax5kgG4ReZB7cEziNPshDM/o60ODvd4k3BrM9trhfTM7RdcFd3byLZ9SRW0nTU0naw2jRF4bXiIv9J5sJsmWGlvS4ezFBJtr5lv5apUFhI7Xui03zqVFdNVfF+yyX9/olvIMIW8aX5E8S6UjmVXJrFcM1yMGblRLvsh6rc3y8e9pVKSXR5stv+SvoxalbrPVKPqBKNgx5OZXpfx4rIDdoOL6eCJB1TrVdqVpkJfU8vVOvtqt1Jsd6dulZf+uvNWgy4plf7NlwMubVHPoKxoM24Iyy9Kzq5rVjjR/db7VamzFw7zG5mJZXFsYhqN+jaUi/PJB0G2XEeWGGA3MWqtmTJUu5VunfGHuuV6KRmRE/1HvApaAbLbYqDaSXM5olamzFLCADWRWDDVKDTSS/IqtEmdX59p2JGist7uGB7m1cr5VSnLGRPkt3y6LY/5dRQaKspI5XjbTdSLItzvJyr3EtAJwabVTq9QbQaUtTVzW7A1GTv1WggbKCVKhEqUKcqU16SoYnaAkNfLAZAAKClWTJQ4uk+AgclqbrdTyZmQ5zNbJCsDSJmtArNRyZZ/dJNjpDUMrfbaDlt8uGsGvV2ScGoUzrbWt4mX83d1wx/U4W2G9t9gM8qwAClWp1WjOs3q9gfVhJuslDEFHOugV8sVTi6iMLMCiMbJLDVSigkUHrTpNDB+prja2DEAX2rYPARpR7RbzTVGt7DzHimgVjWHOCdNSuDOe9maD8Yg6sfmlZeYXuQJrhls55c+1zauGPbHn7elgn1xcB97dsu9mXtcP9rfDaWc0mEXwbeVlqKpZucuvBgCaXrOlCaVXHI+i2XQ+w8vMPHgl5WZIupaXHcmjH07smaDIhgaQXYdjqWtr5FzGUC8Fs+n4TJgfDk6PqJAwU9hpJhZANzptB3qWuNiboJHxeBiuUQ2dGDzPrkiRiwwiY7P+nZ1KlV0PSwUy63RKbJDdc3OID+XDAiaopbQxX56b6+5N5FdS+ZvJr6byt5A/ksrfSn4tlb+N/NFU/nbyx4qVVjHd+nE72pPjgUimxjbeAqsK/qYvI9DxwL3CeDwMe6PGJIwVJNup25WKGKkmew+wDjoFjKuBvbvMAjb6aoRfHk8H949Hs96Q6s60peYWXTZS8E522DXXK6aH89qb4XQ2YOkJrtGkKFW10Gi3GzUgrzY+iMLiwTQaT5EPdj2P7aNAFVuNgJVWaQFr/25flh6qR87D5zNNNfMMBVtYRMXJZzHVJDmSYqUKtFQTiypVlpli3EWglWT+THZ1k8U+ntYG06l0IFlFZtZJtQGwQFhGtqS2qLBX6kV71p54RbZRUGqu4NrYHLsess36Bih1sulLqoNNSbxmSZy/jH/fZDydHV5DGZwMTDq7l1soKkbgYpj2dYxIlqxX7Z0fH8w2poO+ZZK1yyol8XkHPbvKMvM6zd5sFk5HFEFVaZoVgo02tlqb+TyYjVthNLgf1omITHeMZJJ+6ATypFp7ejDacernlSqB+CnCU+GzsjUD6GB2fhgGoRs7U9cKGs4+tvFuSXQR7bK6gqONr1AvysaSafu1ZqOVN052NmaDMGdhIskL9htAHe8WGI7ezhk7jcmYyhjoe5Cu6YFmo8QbNLClNnpNcxdI14rUK6BkYmKAM6ZCcXxAh6au3tID1UPsbnIy+U5bdq5silXOsDp5EM0Gu+cpekAuzXzR72IKrK9vexDYSTP2FSS+fVC5x++2GxgVI48FBDrGnFZqTZxkclICjR18cxwNZC7ZPkC5fqp8ASl37HHCkG1NxRSztXDMyDdBK5fa4rRE3GxBHXOzQyj47S3ry2hIRqxQmrVzuhLPFCvfl7NRV46F5HWnZeapwP5LmilWG8bDzOIXd2MnmXyu08T/9LvGOe+2OvV2xRxHllhUpYo4M2a+lyt0bdpLtXwcR53Vbrir/Dqtd6UqOxF5XWtwHMWVBPYsbAsy1CqLxwWctQX4DkKWsznjaS9BhVdrHFlOoGaEK6VWfoN0lbJT/t1xtSNkNxv2CLMGbMdRNnN5NMmzwMgfa097IztpdgzXsYPiuLe7mHz2UhktZIqlySRu+oB6nTMtqWfOEd31ViPx3TMpVGz6symcNfK5FCax8kvNTlC2OMdseY6Jea3MUZbV6hyRcDoiJ1OLc5zW5piY09E5ynI6NkcknI7bjjJNEMXMTiwgY36XLGAty0sXcAnXy0xLDuuYXp7GxTyvSCMtyyvTqITjVdirSrErZeSuxhkkMJCvY8bMorsGv7+BezjHXOv3ItaonfHjxBKKnUKlSIES1nFG46Onsp7YGutiU0MWUVKUFboFTM7WXcAtWTOd5JeDZsva+JUNDBV7aIJYdaQJ4oiFzBJgtVr9X1tEtrfEQBw9hCxz5gF9LNiZjofD0mBqbQWddqvom1h0JGwsrq2LoZnJeg/7mKlZSLl/V5PNzVrNIhzESzI5vdFhW9FeRHyFxoCXlR6OcXUM6BXHQ3wJnZ2qVaVP84+3zT+ZHv9krbtB5fvI6fP847VAQT1HnOOfzB7/ZA2nYDaeUGFHYPU8pSfODkPg1Xqz6eA+pZf2b7yRvN6/8SYSb//Gm0ky+zcJMrt/kyBz+zcJcqnZm2JzK6N+SD3v9MGgr+5NMV1TnvX/KTzbGx6E1NEH5ixwg/LWkVK9tx8qndnt7Q+G56HXkWy+AB5MZtHOdDCZkcsI7WZvOuhR5WA/nA521genD6aIlu3WnXkVasd8AmjO+iZEB2yaWawaTHo7KPVCXQ7/eABixExeE1Vwx8SLMFiXyZUBpjlgKjnOGxgHCXU285uuXexNIpR5XoX1Z86LmqQbZ7ymz9lNup4B0U1y4nMT1hMwB4rBbgAupfg3Y7mnu4VPzr+45rhDAKY/gREyk5NQVdBps9Q0Xr4x8Othb2YE/Le6yZGOIlW8uWlIXC+8YjMQfEZ6Q2o6SJpzYb0lQibimy43WqU66Up+vSXlq6W6MUZH6p2adGkND1pCW0fZEWVIx0o2PS6uNekJTqCSXpLPG2/+0qJNL+M4I+nlgc1f0do0gYwrZWGSXhVsmVDq1cVgS9JrmBzBX1ssmpjadYF1k64vV0yw9AbnoTyo0apL/x4sQiF9CPubTOVDS21zaH3YejUv43h4baMlG/gjAnSN9JEcD6T9R63jzZI+umzTx5Rtu49t2/zj7rTp45s2fYIceUifWF0vSP5JjaZJn9xqm/Rbmrb+jc1TdZHTTVXMB+nNpNLPW1rtquRvJZX8bflCa5P09nxhU/JPIZV+37Fp+Tx1kw6RPq1Q3ZL5eTqp0D2DVOiemT9VlnE8q3jSHOWeXVw3C+E5xabJ54udltAV2OolX8S4SVpat/x9wmnSn3XSm0k3SG8hLdOstFchFf4ny3Y8tLYh/amWGydFb3BJjQdSr+BIkDZONp9yB2nzZPMO4XPnyeZTbyRtnWzeeCtpUD1Zk3ptwqdC32FXk3nZFPeFdItU+nFX7VRN8HfXq8bxuqfeOdUm/VY2AOnXc0kD0m/bROCk9zaDtuC7pIJ/XutUS/K9VrMs6XarU5B53wlwcUn7bduPsF03h41dpknm7/QmsS3SvU1bPti0437+5imjL2c2W+0W6ZD0ZtL9IMDyKjUilfyY9BbSCemtpC8gvY10Sno7aUT6FNIZqcjpgPSppGeDAJut1DlS4XcfqfA7Tyr87icVft9OKvy+g1T4fSep8PsuUuH33aTC74U6CG4Wht+ji5umhy8SQFh+rwDC88UCCNPvE0C4vkQAYfv9AgjflwogjH9AAOH8MgDT1R8UQDi/XADh/EMCCOdXCCCcf1gA4fxKAYTzjwggnF8lgHD+UQGE86sBTJ9/TADh/BoBhPOPCyCcXyuAcP4JAYTz6wQQzj8pgHB+vQDC+acEEM5vALhFOP+0AML5jQII558RQDi/SQDh/LMCCOc3CyCcf04A4fwWAYTzzwsgnN8KcKtw/gUBhPPbBBDOvyiAcH67AML5lwQQzu8QQDj/sgDC+Z0CCOdfEUA4vwvgNuH8qwII53cLIJx/TQDh/B4BhPOvCyCc3yuAcP4NAYTz+wQQzr8pgHB+P8Dtwvm3BBDOHxBAOP+2AML5gwII598RQDh/SADh/LsCCOcPCyCcf08A4fwRgKcI598XQDh/VADh/AcCCOePCSCc/1AA4fxxAYTzHwkgnD8hgHD+YwGE8ycB7hDOfyKAcP6UAML5TwUQzp8WQDj/mQDC+TMCCOc/F0A4f1YA4fwXAgjnzwEYE/WXAgjnzwsgnP9KAOH8BQGE818LIJy/KIBw/hsBhPOXBBDOXxZAOH9FHw704FrN2K7VrUrHLpYnPmWtN5mIk6O93el4X9yy2Zh/vcJwvK203j4/CyOV0TbCpLwMN3d7kh+JR4b/1e/NeoZ2WWU2B/1wrDwvpolu6UyHQrQ+GHKyLYo3me8/n6CC0isz6RR+XrTX64/PRYDe3uD0Hmf0Pfw+PMl+OOsNhkDZkLFE4mTgUZ7lDB8SOgJemoX7JtZoi5bPDrY5e+4IvGKuAGyz7n5XeUf+/za5g8c07TG2VbW6PRWeI1omd8R0RnlXmQm4ROkdEYR6nvLG4mHOxAHPnB1Eg228La2yJO7m5rjKRXjikdrVS/AeRbvj6b7aU8sDMxsv1mrFQO093OeRdB3Uam8EkkNFRYoEc4nF4PLhkTJty+pS8ulLisvUEYvZGx8M+0XpX603AkF/rpqOOZ1QmW6uRVIF4Oiuka2hdFP6Uq2OTWSk66YIa62Oh/vj5w+KtNAkeoyMl/WJs0ZJXqLVZUR6Tw9GnGCk5a1Bf8bA1OUL2HIocgR9xY60hAOrvpBRV4pzWmOuSiif8nJnwvNqpPQu2OpgFFdidgVTGpwO6V2G0wM569Ler7KS2bKEOa4CyMF8YMfpZXrcbLd7p2lYC1gXqaHH8coxAWfb+GU7ez1x88NpBIVOcqahSkmG7EUCN86GU+KeYbvH/KpXejozNMFQEyzbZta5rRnS+4iNRudOD89P9iJ2GL3UT25cIvYXvbzNse/MCw7GsjDfoPUlls0mHYCEHq/sMphEOq/QenW3NxxuEwdbpyBSI31kD0Wc0tiZwvg+uLxa6zVyQH/n6aOzJILKqXTqTm05dczhw34i3+PD8WmJthuS9rgYj72xuxuFMyyLWtUn9gdxzC2pd+k+Ofjb1l+j9WXlVIeUl90mYNePVJ9ToDUg7siY2Yvp8IhzBLcSPmjBvFI07zdHYxZTDGcG0WZvCCtW2b6tewrdWVa5gpO+8lZY+PZ4hP07Z7QSTZKyuwEyAiQDyUouH+3AitwydmI8Daup6y7Mwu5gGs0S0UhbdCidX9qQuVbe8s54f7/HEArWnM7Px9vKqhCDZgy7SNMoDe1fyLzXP+sM0tKFi2+5lOgSZnpKEAB5YacT5mL2nXKxCs6625QCyw6ZGXStN2WSnKTT3bJRBqNzUlMy9XB2bgy5Gw/C2Uf69xPu4J9kVBcuDNmXuB9AJlomPlL3ah2c398eDx37yGRol+3KwjGTSBh4xA7EUgb0PVxHNFhbpi5mi2KaLc/z0AQ4TMDhg3HORVYb4UjsOxJybY3TnPVBFK4z5xuypzKO8yMTIdDsg4Pd3cZoeL6F1M/2hoY6UyIKcFYM8f7BTEZnzK/l6y3yJeOWr5ePWDytcBeaMygnRiUuZCEEmGJaHx9MKog/Xhe6F9d5uxYapFp54GIjsMoDlhs7SGcR7/+FIghnD0wUoJUiIWkMXEgECLX0VncHw/CUHVdkCmGBv+HGWO7hOhDIEZZN5sXNVYT/q7OxM5IbDth2p+dlQtvj4GBbAkDbkAlCvRCbyVKajEcsS9vS8sFodygXTnKRkGa5Mog6cVGIiqtV2+1iXL/Wi1hYdsoyOzHWctWTg+3hINqDmTQs3W2P22FvvzrvnjTiHW4kU8Erk1XaYNSiA8FMhj3XNWHV2A3O0VO0xxGLiuI6LHRhUYsuznfz5v8nziz83jBIzUhcxbK2TxQwj8aJuUJ6woZsnBhj7VnOmSmG70A8nuzcm8mRJN7MUjSZhr0+FMvR3vgcssYPK4RIsC9rD/KVtrg5xuxVRrviTJr2NpXuH9hlSWWviUsyloJSeHawE198xuFXOZ+by1ldJGJiYkiewRGRlcgdeVamVGzFng1r31UuFre6xifXhxphW5IMRw8U19kvRsPQK33mY7A7wACjudSyPD/CJtNAhuzPTWfJ28JArSS3aIogfByx1wInJZ7k4rh9hrAx44gpsy6bEOccIqbnDrreMbGJZdeBArv/aayGbIXoMyaR3tBKMmq5uSIIbm+b5D7APXXQFzCwY0hqEnuplLrxQ5wLyfMoGtuTaJnnbSdow+UTiHKOKsYKVe/hcRsZGiqVq+c3Cf2Z6KbiSsK9JNLBlok3epLKE0VDkHF3E+ZuL+vjxsspCM5Mp5geKOKHWRCooLVh4p7EqJqw7TZv6W7eCsKzNQP8fpZ3xOEhOtjdJezNsh+IZ2q6xsrawS2byW4wU9+lMtHZ02IrjL/I9JPlhCWa/VlWArnGwUxcBnEfKcdMMRtszbJxkF+GYn083WHdyosLbM+ZCPQKm05+OxoPD2ah23oxVDvpQX1aqyOux5sbrknlVda7dd931wn56lb+7gBAV43DKJfwmOOZjON2bDdurvKww8nKzYwO9gPWPPMQKZwtt845EEUWG8gqwM84fYBlm7ocXgz9YhpXJmLwuOG/Q61uYM2Zf+NW04hOWMVbR6aJXYLgHJYAeZunnysKG7PgEVl/AeuEuxEI2JbOS6Tc6qI8WSEhrN5qnBKM5x5RZvz1dfv2JEsQstESKOceGyxhhbD4hl9qn7JtWSsbb8Buc4q3NiFgjhikzDm9jwTjqkTMRbzsyXsyTbbIXf5g9tBzRAXCqKzMDUPgzry7VfZZiuVKtdRtrHdtMXF8bhPtO1ZGyDK925VIRS8/3Ul6gfeLEPOj00iR4y72N5X1BtxuT1uxqc5Yk1/Fp6buwXRAD3V/EE2GvfNGjdfEtzFZo7X0vzk84ITmWpuYDJKkGn4PxyMqnLEDbZqyVjjscXLYsxWyE4O0FfY5ILOWAFlHZqoBcdJL4TDkoIESZmsHw9lAWg+n64Nw2N+0U8EE7bAUkD3KoNO3YlyFMUDx+Wo9Oben9MPd+IulJfGcOc1Y6wmUjQ1oLjGtSwk3f9SfiB/NmEMHyp5Fm3g+k3imt7kIs83+IysoqQzAkh42pRZdT5HbhUc1SCytiDkAknJu2yqlEheZ3M5i4YziEviOUfbKPX6wYKvWBrZzNBOBFC7fwM7Ol1xCzZxjaVBZmvGrhcaWNRSsnryTg3aeTG18NnTb8XjYP2VmF7cZ1V9P1NpL0ZYHhC2m5ytES6gSjQ+waUZYfRGWzRcPeTLssuFwzPFO9IXJp3dnUJdRUm133tSQMqecciA70zGnxOzWoH86ZNUxevTC48AR1/X7Aw6EMoDsbIDWzXr7k0o0vuN24tMMBQM7hVA4MyghDvt5CTtkdvBX4kxWChCyMTpeyZcH/whJbZW5eSs08i0Rn8YinLEkmXy1WZYIvlyCs359IG1eqrqH317APDBBAR4Di5GdzylqocPSJ9ULBHYAOjIZ9XJPmZfwnP5GLCHvy7EtNWcmG7y4bbLXi0K1pDwDWOTtE6xXfBv7fJVJZS3BU2bS/SPK+DsWdcfISjsnqUU9dRA1rf8rRwGW6js0viKO+ER6DO0HvOFcI0zf/12rF6aRTk1A6p9wNuO3rd1lVS2rmxxo2wsHUTDenTnTEEgRjb5TE50ZjzqTPtPkOvIr4NYHw2FM81Pk7Y4aY34GIQK1GZ/6oibsbrKlhe7/dmz1gX9RM8qLmPyvaI46qaL5/vElTcj90B7wQW/8fJzb4AAlZ2KnoTEgxqoJp79gvZ6tjcej4YAw1vB83MLnsdh7HCQlrmbHhHTuJfTj0KmhmYI3xQViDebon4/Rzk9ICt6aFBgXf17wC3GBuApz9NtidKo/eC22G5T/ho4Msg9SSJgj9XE3rYKzhHHJH6VKpMOC+0QKZzsl2D9OYaVHgvtkyqVs9lj3rAutf0dftIeFhJRefsgoBUqzAWaitPobuh1ncauYo9n5TdnQGtM+iqC+6umvx3Nttsz5ZL9Xq/vhZrCLa+LbgZIK6YPnd6QLNuFvVeS7LDqxjSlde58mMBgZ+kVFfaU+iE+XcE838mZColjazgMUfyU+wCImWdyfifNmmv9cvC/bi1NmaX4WiRVvZlB/EdOFyW68xl2GDdwWFyv965yLCLUU7kbqo55+Gbt3Co0oI/UhT/+g5wYoA36zVi+YZ60RkKmQiEqQ4OVw+p3YEjmqcg6zBWYAP7zYdB4X4fRIon6R+oinX87hjch6fhoWDraZLHE2fiU58wZycOa2Sn9DL6A4S39A638xJta4rG/SahxnbBcncYWqbGgqp37HhKGde3xlDFviCsa3d3ram+yJ/WXTXlVXHUJZwpMJNn6VsqquPoyzpKdmLKM8lxrpt9SPVQ+9CNpWaCclmyi9BPzU49XDLkBa4o7gi2wm6ir18Bi2RZuSTUUYr1GPWMRYsi127DiESsfmOVv8XJFQnW2GkP7jYtgWfZthJ5P+Kq0eH2ds2b1CagJTI857+/vjUVUOkQec0JnZ714oxT24b3bQw+mdU7yQtZKQlAYssFC6zE6VpvqeNJXdvkQ0aZIXpUmwHXKXAfp70+gAN4PVc084HVP04nRR3T0dss+WJlyQX1jopltNuUa5sJQgo3Ea1Iy79FRxUZ4VneWaJoVLdqf7uGVnY8XYxMyH3D0bymSJfwyKHuOxoe3rWLDiepBv4t4jT8NIqz+J0VXkQ/5P8YjvqzLLcor8azY50zuWk/NivriIMp7CKzz1ZU9mqYNnVjXn1bgfy9zezsanOcz0G6NGex3/DElF6jv0HyV4QrHpgk/o5N5AvTjDTapYAeH1koz6tFmdRhyCItil9YtN04VBfzBv9McNrm3vQAT1DPVaBhqVe/1Wu9qmjKG+OXV8XnKgVc+nEV47Y4zMsoUs+unzG8AVB9qCZ1AzCZutJhlb+MwIA8KZYU1Si3o2MYjkepArHJexhc/po25YKGZ3xJXMsVTWEuT3cVrp2yWSWlRJwErUsAELyi5bQFiidcEZL+plnvqt1F7csGNhWJdfgLRVNzAK6XMoF3zzvCUpR8ZTcLd0q+q6dN6S1C3K2Cn1UPWgVNYS3Gkx6L56uHpwkrGFLZs3v2x5pHrIPGeLg13ch7lX8eh51pbfYytYlFA8Jo2wNN8aGv8lUh/U+gkOtiXduWCKLmRy8yGUJdyVdjfC8X44w1f+gta3pBGW5rRtOUYK1a2LKEu3J3c+rE7UcjyphrsYw7nUEfGP6DRBSwR9iOJVc4rCeDYb71+Ey48eprkYo1fPieYlA9nzJig7CxSd+7HDNO0xmzulc5LXaNnHcWhZkxGmnVEjfrPSflzOdfntQ4GzF3nbY3EjGF/ZuAzgftrhbG8T9BsdWoaYIH/GIc2YEuybHJbJxRdH0WXJvMUhacoqLcP+eYezTSXotzq0NJUgf8EhTVMJ9m0OG5j5tWisZloov+jtsTHZPT6RyUw9WN1wMbxVjWYkP5UQI6MKCsvtMrbw+SYv48Ku04cz6bwlGRpUs9eXHQKS/XTektAgqCIzgekxi1Stq/sM8uSB/aVJWZ03eVtaUp/UJltOuu0Y0sCf2CJMtHFP5gWfsgVEA3DQTqo/tVnrY5D/tM032cTY3YPB/VLrpPrbBbRpv0L8IqJLX7VF6Y7bopL6D65obzDsu6ob07G8pv6aLXHdMlMI9j8uYK0SgP47izZsDP8gHO4inL+3+Hibpoqqqh/iIASyhX85jcJ7ZOrvY9J/2KLNb2Hq6ndtzvXZzRQtfdjjQp5Bh+prGfV7sjXHmY8s1DC9QEc4NsxUU/05l1jBCN3e6O2zlnpTWWCf9VAgd1sjR1njdv+gLEh7cRJIJDIpePm8oEA7p+d2DtP3Q3rOyngAH9LqJ1K4NrW4BXpdClWaXwj9pA57ye8P7lKvT1E1cQHC6dkwMEFXOv1rHAtMAIxCQ99S70mh5Cc9a+rX530lLiW3Px/VHPNYLPHlSZsi1Va/mWqqTWRpfCCz/P40Za1Hhv+NTfotTSYuSY3gAxI8IWpr8uyyTO2wJ3cCH0w1EJjXOQFKNsubFz1iZP543tXKnHWk/snTX5oXmalAQiY4pv7dU/9T20CseNComf64y0v0DR/HRmu/rvVfxrKRgzs81D9pQpsJzucwDea/zTFVRmrO3Jz9KErwpjZbL/vwf59jqW9x/zzHFdE6Jst0NaJA/9u8TBytJML5L1r9b82J+dA3B46q/2qxHWbeLftV9T+QsDk7XuQ2/m2a2NQDFm+yzBCp+getPuWNUOdDbwTeqinaAc81xc6ZKtvVgQS1v+ip7/WG+Jyo4NlBeM7QvjyjXuOZzjlXEgdVq9fFLnCRobPgomRf+Uk8yn44bqIM2ywa9SpPvV3W6f7EsHtZRv2Sd86EPeUtAgdjfOgQfupHUuii/anrMrUtsmSHys35bBrGv4R9rad+1JUXezscT/IwjJC5erGnXu1KKqPJwSy5uviMp37KFcjOTKCetfMGhymPz2J4jCa8xlM/iwHZMvgAc31GBMzwfs7R1sJZry8D+qynXuJw/lmRBA66/n6HabLTY+3P18LRgTXAX/D0D3hmtlrjc7GVjNhN1bstGvtysD9aKPk1W0IFqxsRElXvsUhLviU7h0H/OrE31hRHOH90sL8u+seZ5kue+l92HVNQottxwVc89T1ENjCgCPuIAezO96ye+TXrCI1i1MfnOVtckLm1BtEfST/EVJy4AGmJi6EJ4MWq0rB3h5deiLXkfsTCq7B8puY5DCvhmkWMJavuDxhPdUACybUkLmeLazNZXRiXMxgRCK5P5y1JYxsVWPj996PVIw/jLOldaAZakHZCcE4edSHWkt/NgbJP4NX8YJr21JPVEw+hLOHzrBACDrLgIiJa+kmLKEvHGiG4YSYhkt3vaerJixhLts2qw6BLsDEiwKW/JZW3FDv2oZPogHqjVjfOs7a8vytGpMYpiZCCmUOlVXQB0hKzFk3b43XmQCs5vMZZS3DWjqWA1K1exPWhPidRKIzJ57V+mUZyRjdFCyh7hY7M7jf/rdo96qexWOJRB/vj8WwP0TCpb3R0nJ8j7oq21Vu0bbEtwom4WhYAhr/sCJko5mnHxOORqXquehdsExy9h8mvcnNzHzFN8W2m4ag0EIsmTyXe7bgk5uSrmihnz11kfk2r341tso3qCbpqZmDTWeSc+rAeUZfoC1lj/D+l1e+ZmN3w0LOLj2n1kbhANrkZjGMCevn7cdlcuhWRIiMRgo9rPIALKPLzxw2f1OoPDAHKYa6p7lV/ZmTRYz+cEvMXObprCfHb82x8ZgLE/n/eunlFeNIkcpP5OKn+as5Abg2EwwMw+II+E54nLHP6NJJ9UYZLjbNjvBZfTGhzb0qIDnl/WUtPxaJz+N8rhLvjKd4NUR8Z4L36P7nocpUtK8Ij1f9Zz5huieKI5NXXPPVfmBA6utcg9sw6paPskmPsIiEtYDryfex40Wzubr7UC/e3w75h8NIMcR0CVHu1sD+wr1M/kSF+i1IwzzLLdM9pEjvYj3nRYH8y5FQQv1Nq9kbhUIb7eq+3w0hMfKXcrlVlefxdRr3DkzBOC4uj/j6jfjlFVO1tE4tdU+/0zgoJGNP8FzLqXQmmiNU52Gdk4rJN2MbUryZlchIqnA/YqCh5s6fen5QIjsJIfTGj35vG4vO+R6vfSFCtkIMoumyU8VMZ9b6kRLpibhoi9aWM+s0E32aWR3VMBR3/QoINdsYTKL+a0X/j4WaM+r1Yi6Vv7/TU7zt0vKcK+j0eUff9AcFiIQwQMWfwr2fUH7Arp27VEO3HPCaHbR4X/CWe+kN2Mxx0Nt5duSP4p4z6M8+qABNltKXSZ83jCOzI8m7Z+ODcznwjoz7H/BqsPaesqb/0+uMdQpVEJNO8/zmj/grexMwZX/oSOOLIrr/kbbKu5n6Ql+lhrCdk6bPep8+96lh+s8r9O6d9GUmmJti87Yhalec9XKmqZr4TyCWrbjc25DMbgu/GSK9mPyuQ6dQdlHVkku0m2Jz5gtt6o7Vlb32XTL6QL55yiGWDMM8NVnAncF5S7pC3xIg5sA7YqDkWaVa/rOg5Iv3DgN7U3JXZQvSKkWXBBakqFpsbRA1bzeaXbLslZ0IXfD0u5WVlcNSQi1bMjDE8gF7qvYUojqeZp+kAhXu9p/VioU/JeVhhepjW+euPTaepJad8cx5vhMehUp8imGTEr7ZXofTnbIpGFmmi/JbiTZ7KbC5g1A21ShBUzE9dVbHRki8otfKlSicgr+WzYBst+RiefOvBUnlzZKVe8s1rsExgHg51t+IvimSDNlOaqpWziGa+JB8TiR/kyXfjUlj7vGR5ERk/LVlZRCdvT1Y3K0GlUBXlOiKvlswXy8isbXEBLj8/PZp85+RY8ik0acp0ont4zMcXaUzrFxCdmBPZflyc1yUXkF2c3aWFRqsEQhpMRHiZQ7qaCf5yhzctJtgrHNY2kKCvNB/TqLe78vNrv9Wu+NLeVVaUxUZHHuukZunqWqXejeV2TS1/V5K5VkoSQV4nRUnu+lilxJ4nxn6uvG9JKW+axKccDU50FCyrCtufqLFQg7pXeW3JcvLA8nHOSBvueTtvo50HpPMhksYGfdjNnx2x6haryHYMeYrtOy5g62h8COYsI5CYHS9v9pCmawCyFKt3weqCcp/COZuJK5CeWdIKBzaz98kzF/O2VMUfMnTM0hvWvLH3Jo2lyn0K540Jkv00bimmw86Oemb31DNp+N1QcPLBJtbjCcnMiNlwFmK3e7+nsmfHM4IoZD7gqdz+QTTYMbkPemrJsm4n5J6eCVwNR6eJMmKzLMFmzMHDA5vhU2BY56W1hCUGeMyWWJLORXRq1oZbLYLU4/ZyfmvNzbjyciP6aw0drPrhLvVQpvvH+9uDcN39uKduh5rZSVevJxU/zPDSD+tyxYvTqezcEKm0IdLy8rZVKWEru4H5jGWXbjCblXrZb1XaXXl92Q3kcwq2ILPQwvz6nbHHQ2CFyJ7xMSZmgbgko16xkzuy4+IgjkL1hptxjQz72Pz+ck1luQ2fV69I3ZyZ9o8ze+mRL0+m8nIDh9PwitQnPLWy0LzBsyfJ4dXCLGbxhW3mVdq+W7U5lGihclvalDfa5kfpRoQkOn4hjbgwW/Wi35VnyyAWazcP9Q09YRmMTrvsmtYD5wzLG36H/aSnvUoKvcgEHjPp06c8JacERPVNiNtCyWw0as1G3e6Kiv7i+8gHBqW/2roVvhwt2BDtF4Xch4KUeT5OqmXYXb+EWtg3il6+jbEu+yU0BBL5MFLQtR/SlWJ23g6mXFrqpPHuSd9i1Ell3NedVLvVqRfzbR9Qm+9Xuld2nq02NwQLz1QtvMnJCc0xKBdfqltVy2yZnEwHAYkk2mRFs5wvut8QqMAXH8J+mXU+v/LNOCeOjEF2A7/KBmpKnTcJlKOrIinnpaUbI/aP+zyeyikL1fbwBg1A12doJB4YoBtiup50kmUzcSg3mnSdARRmGJ9j/Qx2DM+s5U7kwNO5yDTNDbrBUcrKadtLddbAMteHuyBZLWx/C8FOdUn77qYfFFsV840HVWzKBGn36QOvGMiGnTmZ38wnNFk5uZHmTgZGnkvGG7tTUMvNu9tlg1zZEBd6NTDoI8FWxThca6ca8qAS6GirEwjmWCFvPuJxHHdePtNlFt2Jini1xEH8VPAOQ2bfVsaFJTQkLsSqkxhLmCe6IJ8Pe8AnYUzMxCGRiTVlskK9NpaiyilYGCsvOwREy+C2fTDECJkJ+HtM3oADEcd7kXT8Vkhes4b1A47MU3JZy2lk/WBvZQhoan+dpXyR2l4/Pnj1hhwD1D8wy4soGTPL9h/ZDPrjcyPOg/KwiTMJ9jKncmhERG/D0c75OXZJBoAgpjMXF8qpZXlgOY1M3xq7VcrRjpXCfHgqa/w4s4ZVpz7P6MTZxgvoVu2XQTLCx9bLmfkDp1ydmEYnXGKMZ9yHOzsNs/4zZT9PMVC2tDBkCKvmuxmqZT4/oxeLnUSwiTX7ATpIlH9XAs9/BiSUcTjIyw1kg9EInsr/zGTagkj9q6cXH7BHzBFulvyYeh9iZ3YQYi7h7Bsu3vJg3kIbNNdLzHKCWrhHQnmSgtQ1UgYD356HgXBoLogC5YjOMctSQXwOomnUW9qXs3KZQCMo8stJ3zadD9s2jhMLhIG/m+2wOB4RJ4BJb5g3vZC9qucghMCZ0hGYA1zCL29IlHfdvBvifLBAEOcc14aU+z5vjkmPcuG2Lzunkd7bAaVGedFbM/npjdwoUW7YtOSHKzHG3gGuyIGds64JRXCETnyNbbV6YdDxyLxBdlQunlJXjmu2v+tc+Ei5WtVHWdjTniVwq2pbHZsZGccSNyI5vojbFCOjPp1RJ8yEOWG+2lOXwM4136L1mY2WxD3megBDNepMh5VRPTzHMQDUZYus1Tc8dfkiypgdZu8K01hwZjBpj0XEyPfKBFU4n983Xu6qugoR2jnnZiajr06ycx35F09fc6irVgqpvl57iKASq/rZMPGVJAp4XaJUAf2W8H7TXAsSTHBbH3G51EPZ+c8u2OPdKilxNbcTYndO+XfHT/gxWKfq7OCcLOsEBKpVY1b0XYXGXV2cImCvGdxKkmE/ahfLciollz01X3smKCK7ZKRyGrU2WNfWC1kOZTpt36N53oH58YJ5UsqEezVGJ330siav920+7MttZqUPqZegCucTZGaXINop495lffYPG3L1jjru0XSnYyBvNpgx2VSYxR+NsAXZc3LrxSzm9sy1GNBSKIza9JXy5YS+so8tK/ci+S3Uyi4rgXlO41Yn0/FZ9E9i/Ee4nTk9QAFkKyO/hkhSU3KUmXNXmV7mIB6LHJ2YzcCFqASFGwzh4oiryI+1ltyteisHZiQ6HqLsz3FHMosNZy86mtxFRrO0SLnlpHRYHLHMVjbpjkTqmcCd3uhsL5JgeOieH2G6J1yGDF23UWLP5EuhKLyJ99lKG1YbsjX5VLGwsnG7Jyptyw3T6ninZ8azrbwUOmDzYbXY7yL0D3MsDrl+VVqOzhwmJ2bFUD84tArNRTf07o4mMVJemwlFmfERrXlU2vy4GMi1oPfGs2gynrmsF3HIcHC86pLKdt5yY5tzVN+MATNql3wlNgrjkSvLumoFTOSEM9OsQqRQyzaLEYG6H8hOzILbZiMMdgiGivNPc671SL02g/OW2J7ET2C9zyO9quVzDjbBYt2WN3S4Xk1qb3MEj3+KszxmvzGNvS6j9Cg8l2S8C/pYkj5mgOLRgGEsg6hsKSujenju0BAYVD/p3OszOOnxeW4mZltud4TrcmWOJhThOpeLJGda0YebjbsXLPChd1HMJ4XOmt8UqbdkVE4Wd9FqqJeJFtXPKaybJPOKto5quXymTT6IaxyqjfXs40h80/qLsm+aLqmMfBquwsHQzFieoKIFOaXVapW2zXiLVbGd5l6WPkwMFwYm72dOI3t5r4jhdD8cI5MJRIgEouTHFCzPaEEyetiLZrFyWO7qDUz+hegANtzEvDWDOU6xz6KeLLqEf2Z7UV9ila1wBpDvmniRoU8WaSIV+7soNPLCpqVHF+lokPTIMXWdiNTbM3qxk8Z2EAKbWyGuIGJu6yJLyxJ9XaJSIi9CnBm9TBkHdPv7TyIUTCvGFoFjGLF5bZv3NsWBnZ/jxasUJ43rZMJeFdkGdJkr2Nl22JsxpaxTXwIVJuagCoSHk5zusHHQqHTIuyGiZfqMODGCCVN66jnfgTgal1PqeSxFse/WJcyJ0TbG/RWsun36GapXZtRyorRco66Mt2noLONUy3q1H7KhhHXL8whrlmVsLHCkXpXRa1bEsdWN1Ksz8v2dRRsZqddk9DGamtLbNXXczFlMU7YLlpVwYgHfvIidpPq94ig6kph9SSSL6bt0Qm6uNESMM1q+bpTM0jsz6vKzC/PxLnxDlufWlMACsrtSvqa1jpsWMNsokVZXpUxHbIIi9UZ8wxkT7EzGmzLqGskGiRTfnFHXJpOSN4eSgIm6bpeLw6gxakPs6mp1/V4y/+/OqBsCJMyJvTfZu/MgNDHiyDmHYjUQAE7hhGXKohGE61IyIk9vD5lAEwFwywkFsY21QitHiKxOWG9DeudiwiuDqNljpkSR9Ax8K9zvEbgcnbahXaYETwi8yWZmQDKpyypLQwXx3XIuLLzMsZv5bKEwyLMfgG1DzVj2J6bycgSqI18YwQmrzePKLMF5F6ggMwcRjUsFIFT7m3Nm7wlm4wnOFiyS3dONUC8sHDSZssJ03OvvwJOA+0LxzqLY3o9NmdHUVH0AezeJGasPcVCdxPraTKNtDF59kMVWgzFDUd5DhErWc7opD7U1gLlHdJOqXunpLKJwqz5S78nonJle9SKtlwQq9CJWiDWiD5YAdW/o1upyb2eHBlRWrUQSCgmS8OBqnG9LR56ljsT54ph+jyz6OWrN/D6aTuXUUQM6deKcZ7Lrib9+3Dbc7J0fIkgQJ6IFJTa3IBl9SWpoib6+L6Mu3YXTpgsrLKvLDPcKWoDWYyTPNw5m0aAf+qOdIXaGY6hYZqb2ckPYRKjY0XvVFYOoyNGZVTzEoA87o/444KL/jPpIRl9lUK0whbp6O571SH04o6+Zhjt2wQbhCw5CVryLYi2ra007Bfyqnb3A/PR7nQ7boV9nynxOiQTgRG4v9dT1kzHxpvOjnbxRG0Jq6obkB4dcI4TGMZSPQj0IL2h2Xl6gVOzlQJUuMYKHlAa7u8W9AzleraWkhkHWdm9fkliZ+ahBnWIUBXtv3AwjiqyF3XznbK4SGVPKRNHC0o5wj/LmBx3ItL2H9ARFE8vbnPZF/OhCeYDxne7snacJvTK5ELd6MeJ4fEcmF8evyfhideGSiyHEI4SltWCi4ozRySFSH2X3lmxB2hOy7LZATdNCfZFDbnIx7FIrfrpjZkp57vPvpS6J+fMWKv4bSDohLYmSepxYgcv2QKWncaHh83GsQjrgYJAEE7k/8fN1mKn1aiPfJtVcz9sLXi9frZg/8WYj7ADyXY+WH7i/FpWrmfuBpfQ91XLcSCu0D3HmjS1988aSNizXXJrrUsw1P7KhYTaBB7g2WlPeLjPmcviQxB97kQTTssbXsPjnqVx432SK6UH3LeqzmL99d9mjPi/uhnt5YzHvIvTqJ1WSIJO6VJ4YJHcV7k/u2Kz8AQ754wv2j1TYcKy5P3F//6tUkZkEyvp3dvJVkXSu3uAuR3Jklri9kT8oZkS2nGS6XHbEJCsbLfnbfi1TQH41nU8THrFfzV4zIj5KKyTHrPAr69Kb49Sq27+5coL+dmvcHnerjcYpcx11yXzo6FmYZBI5fAY3d47OT08fSPjEBKgSvavF0jVxG2bKRvOhmesmNGx/Bh+pz2XmbwFEj3DRTYmE5nQfhFGsT1Kddhe17VPsfXHVgDsqFhm1B2J39MhaHLbqhavNhF6YbEo7BFuTC/KvHOqLJfApFe9nH/5oKszPpmgWRmZelMlEyP1tscE1DnI1F5cmAmbD9RydFl97eOZNxfz5RGbDrI6scJGrYKHJmQ/WmCy5pcD8dUOXWzYNuMwKE94wn+xZtVdPXPRiWXHwnMjZNrXcF8lLP1V1H3JR+RaXiVWppuVvS1nl9ur5TZJM3n3CKluWL+vmyjfz71L5Fv5dLt/Kvytl+Zruavl2/j1SlnOC9H8tuUc4ut7gakGgY6wkVkwAeFxoTpQFewkGh+TShWuIy8yt7+Ud+feKml/vkF5Zlc+LX1US3NWlNv9eUxKVv3a9stExPK4DKuabbgDX1+wVyA0sQ5IHye37g315JPQQEZMxSg8Nagga4GHSq4dzVyF8HnEn/zyytC61H5UvFKSbj3Z3cI9pScuPbckAHufu9B8vf02G9AnydyVJn8j6InlSYP+a5JNP2Q/LYzxIbgyMgG6SwdwsiFtkcLe6r6jfVjAfUb+9UJKZeUrQNKv+DtOFp26Z5GnNSrFtB/z0oNFpmW+gPKNSk/E8k5ObjPBZ1XzB/FmxZ8d/IvE5hU67beSStxepQAXpv7sGQmHb8eSVgK0MfdGuPCYHeL3RaVteG0RqsUNmJss1aKRb8lfEqiX7xbiTVX/DXlifEsvYkqek6nmxutVt9PfWfFOuh+JvyT24kJe/2AdUJLzQrPpMO02LzEtu/VTq68LAd4NcdxO8gabKh80snzJHVwtVAj/fMn9z4GT6jvnYXN0fwp7UqdUTXX1ESb6mH1v7R5Yq8mSrYfrw6NL8c2ePiQX1RKmJhQV8kp2AJztx3igp2iT9vIntXXpxM1ZZWr0NjU9/Re8pLfMnCe8giRk/FVh4m149rS33/ADParPBFoxu5ZPp1MWyXzxFUB3Yk49xuT8vmuFmVzQqS6c7rie5GE7VWYpxYpJEvMvJ7K/E82zbXI0pjnD5TDzfYtfMX9MR6HjQrNSTfp2g1ySXkqDERhkvE22yrV7ebvm+tAp8BfNdaFj8lTIC0qtEfhZ1tXSQ9BpJbZvXmp7EwrqOJoQc8HphS3qDpI7Vg0Rq7MmAhTyXEEJ3qtqQ2arW8q07O6ZGzT6aAELPamY8DUNdquQtcTOB7rSKZbt31N5eAF2yYMIeOrdED3NT8vASK8/hHuXXmmVsq7T42HXfhNIeh/2yC/vxLB+/Zf6+xxMq9YBu2FrfEq+2W0SfzU0/mduD2J49HRvD5NiXAc/A0hBjjbPPpKaI+9kyPtLnxP5mSzQNLTZ/BzGIMzeTaceZW8h04sytZDbjzG1kjKpK5nYyd0nG9PHuxPLfI3uInbpvne8wz5X165Y22W+TaUz+Ou697Iv2r/J2a4ceXHu6H/WL8nsY88UZ8/kmE2mwvkXIli0b+j+yoaeLfPBs5eabqLKR7wqeg5WJJ9bGePUDzvGHj12ZojiVTfe6mgC//dKhmn/pkIwuEVERf2iROIMZzJs/eXeRDySS84oXfe2tMs5CKvOqsz3/y1PaAIKREhDe/wG0DgAAjZgLdJTlmcefbyaZhEDQFe2McmnEVCyXpFrAFjIztjVTZa0F16PtKZM1C1GwFBUnlqVySwYEkrrQHgGtrpCIjRa2gHibBJaNpbUKlKSoNRZXEXGiWCkiUC/b/f3fb0Ln9PTGOV+e53vut/d5v8HzAha0AY92t5woKV1u9tByzz4cWDt27BfHT/najMkzvnlb6uIrvvjty2ddNenrNsjONu8cG2xDraDAMwtYgVd4+S3T6r9TNztlIa94oZn1swEC/HPgTNseMPPM+bHzrSBQOLn2prqyi/+W/CChZ3jflWLAKQ6X4pWzU3VzZtfOKvv67Fn/XvaV2tl31N5uIfv7Zu72COAj756gbHkEUVp4R92cmTfOnFY7p2x23bS622dOr51eNr2ubFrtrbW3z0zVTpt5y2w7p8GsrAz5i5aYrQx81vm3a+puqp9VO8dspPePGClAN5I2Ky4Meo12dEhDRSYSSNvkEcGZv64OF+DihiL+WKGFSsxbbGfe2xhJViHx8YFgQ8BuyJMoCYXNa7BsIRJHkBiwKdgIM08iHLrAQhdQtD5PQRO3DOMLEuGh5nlwrrg5n+OFFjRXjKQ/cCI78jmB0PxEeL55QTgb38/nBEN33tH1pnkFBHGkJJ9TEJpfk7pNOml7tTyfU5jTKYRzfFw+JxRakOoaal4IzuiafE5RaMHnMmWKLW07luZzinOxFcFZtj6f0y80H2BecaCvln2cktCCt1tGqQa81udz+udqUEimkwfmcwbkYlPddtbkc0pzOv3grNyazxkoP/1Vg0bb/Uk+54xcDUqI+uMz8jlnyk/Ur8G2qnzOP+VqIJ1EXT7nrJyOavB/q/I5g3I1kE7s4XzO2TkdD86J7nzOObl8ZO3Vj/M5n8pZK6Ru/uz1ccKyNlRRN9iz8nOaE8lF3Z8aLCvP55wbWmD2BekwiXfmc87L6aiis/bkcwafrmjarh2QzxmSq+gAODcPzecMDc2PJFPyk7YfXJrPGZbzo0ksvyGf8+lcPvIzdVk+pyznpxTOHE3Vac75oQU1qYs1b2mb8bN8znBFPcr6ed6fLY7AwlTXuODZ+xsP/uJUcPSNX9j31U8t+OiddcEzQlcWWOG6kA1gX2lVFViRFZuVegMXemyyC2yx3TCuwSZ/ucHmbmqwfb9nwEY32qmrG23Gg43WfDRtZw5C6OjkBovwnDraaFddRQfWNNq2p6lDPzK+JG2/rUnbkNvTtv/BtHX8EoWdX2qwi77SYG3HGm3uJITvabTXnmy0zx1J26PD0nYwkbZT16ftdw220FvkeYs9a/Cs0bO0Z0s8W+rZXZ4t84zbYwOhP+fZ815wj2d7kQjYmoAX8shE67if9e9biP7CXm47N7qdvdxb1FvqL+7z9D40MMw+bRd62ONNlKD+cOV4NsLWeDbEBnrnLoY02D5jo60isATB0MB/Ma++qzDe29I/HogkH4ohYAGWko9AjvLEEbWYQxLh78faswejUFb6SCJ8wGf12bG3uTYiyftjzRUTOoJmMxySTI3B5s6qYGvT4ajZrdHu6h9HKzOnosGa1JRoIhyNCSZTy2OOEElui0kiEX4hllM5gZtR2CqIByPJ6bFkqjRuttbBYH3XJockws/E6rv6SeI3iIbi9V29uP04Fuyu/gjOOzwBpLpiBFYcjySfgFsc767+jxgZFcebK+bFAkorD2mJUZlDWGuJYfYQFp4m855YJLk7Fuxt6eLlVV52El6v/PyUl+OYXetgsDJzp0O6q69H4q1YsLniklgi/AoGh6H6cxFKYpWZrRBKkPhRLCAkk23wOa1NCYyVAc8TYTz+D0RrUkmIm6ME1CBR6nW/g/jf5JD2bAbJe6L4f5bSPEKtu1HZJ8JvCeYkmR3EbSTmGpdMeapzIN7a9F+0/AMiTEZxdxhke1Uy9Suiy0xE9ymQCR1yJ2hv8K2QCD9AexgXIZqAQDJ1PpnkkET43Vigu3qEQ/AxnvgMPzWUpShOwI0EWkov7ncwmAivd0hzRRvxQVBJe1tK4+3ZrWRSGqcvW8ngPdV2M6LvUcY2nqOq/nriOobeWgepT9ohlZkZ2KA/ifCV6L5OOcfjv1sS5XCe4aUcqc1qdjmFyqUDNPufv5ik5E4jcHwW0DT+x6OZ7PA4Fex0SH3XAxR8hAYzxZSPIl3Bi/sIlzqJysxEX8XsMiSOO0hSg7B/GWP7GSJEorv6UgpxKWMriA0fGeUknBepyK1sCNoJUuhtafUDFtKePRbjoHdVnUZOs4SYV5nJ4p6shGSyw+JUO8tYjYxnsiWoXxIPqrvt2QkMTzUwFufkzgT5crwys8xBur3WIa1NLZj9kggbqfRlqGyhDXEtlA0kNVpHeD2UMZzp+5mUChVmNboVJKWVA6G35RaHVGam0r7PqlKTSLecSZnEGJwb5+BMolK5mIF8orOL/GFgF7Vn/80hXN1E83wVBB3wedH6rg3soz/6u6gyc5nbRc0VK/xdVJnZRmQ/RuIf2kXJ1OMOSYT3EEyx6naIeAN0+H0M/z6GhMfLAYwG2ZjPxKj6Kxh8RgP9ItV4kWx2IfqmxvVx6nUcYm6ddFcvdEhN6pvos07MxkLood3DkOrUjiiB8xOiK8Fok09obbqOZxjPhbLxeUr8Lol9gwifipLUAvQbIKx1kAgfcUgi/CR27tPS+BlJbaEoe1E9EKUZL+G2AA+vIDlcJzzIZAz3s1NhW5uOw/2hdtRhjJQwO3tRGVuFrqxO6JA7QXuq0Lz27BySmtLBILi7oKO16Sy5mkh0e/Hbw4D+iEEkOrj0YB9bcApehvldam26muzuZhPO0qHeRruW4P99mvt9BXUuvldDiCN1n4pyI3H/Jy9LSWy96riO+j1E6bXAH44Rx38TXRsx/ALCRrV+L+KbefYyh5lYQEgk2eFzuqtfQlcqh1XhLeh9gLsfOoixmQ5pzyYguraVI9qDyjkQn4sxsstI6GU/dh3KRPgTkjId5guIrIhDdDW+SzT384hZG/IHDlLQBx2SCG/BYH+NXCcBlUD4NREWSuINJLR2f4fhd1WyPyDxMpX+g2ZAK0AIZ0fJAH2ku3pNlAW32yEE/Sz26yjpdop3lqbgMWQXVVVmWsgmM4E8V2FySkdfN82DLRHN1L0Oac8+CmzT1HWA7GP77aImRX1lHEGSe7E2qa/AzSrf84S9HE4nhKXq59NE0khOm4CLdRGvx9giuKuRnK8WNCE+D0Ka6s0V4SZeUs5ya9PNsjEG0Vp8D8bG1zQTWmwTkCjhOa+P0MMojUJyk47BVfLC9PlJkd7SgNa9boC2v3B3OEQL1V2Fecg76vhFDqHjVSRibOvplDWkBmsoS1kSGxyE0OmQmtRLqBSpwUcQ9ejnKZI6olD1XfMCcQfccmUXBthJRKChAvoI17t6/zLWfoWi2vm6SvMkL8ch3utgMJNNO0QLvSZFiMnUlegepBrjIXQp5nIkdvIo47aYfcim1WRVZn6jxv0cy3tibNhO5HUy2tF/TYRtvPRiqA3IHZ7J6t7/gMBXOMjKq3UINwqW3xZhKG5epQOCu/sIHTxjIT6m5v8zKo/wMp/ytOpbrs0lQ9x7EFsJ938Zre+pTsdwdR3PMUQH+wTOLnvjEIQm9fhF/BorZwclHq51tQHxCR2J8BIHkRjrEI4MveUe4bMV8XnMyfWcjUItwyIkmCBOCUgPnM8THRNkdi3WF+Eu7SCFbHGI2TZS3hpl1ndRqsMY2kVgYQ3/LnIYS3TtSF6hpLaATIWo0tXp/vgW3O/J3UBiXgr1BQzepyN1N743YfBuInzOJ6jnXDdI0GolkQgHWdkjccd1pZtFs6aGCJL/Yw7prn4el1x5ifAbGDxBQn67jV9x3LIryZTqKBghzRUXIrG9CoOv4+E7PBtwecrf331f/JnsCsUwhbXwBOK6h18S4XUqexIvFxIpLiPJqS6GZGqVg/Rgo0O0RDJZwm5t2g2hgDz2Y/gT2ThAHMd4NLZv6zv3zT8hRKgvN33y5xB6bjTuLUqbQ3pbfhLlHB10iLPHtwiX5H5gVK3cjb3OKs02PZpI5rp1da/5pTCvtWk10XFlRZKbHaKDzEe0lPdT7vdI9wDmR6gxh/H8DVI+DKHJJ2hXym8k2akjtx+JHiQ6CeAtfS1shnMcwmoHUbnDIc0V1wAPa7gr4NIhG4LbnSKUoPsIEnkfB+pYJDkEbyN1QCuQ+IB+XAOjXb8ovutClxdB122tNbq246/sN1dmfSIJYV7G4fAYRaomG1rTnr3O9UrxuuZpWfvdfNhBZv6XDtG3kxuA3pY/gpwkziIGkRFh1On1E+gP5LtjhU+gL07CjZlUNHft2UNABlEHQH3hY85BKtrskEhyLsHRQTVALdWPLmxFXehqunKhvboLy/+EnK6AEPPYFvAoqhCZSqbGQRih2/4K1+3elm/Th6cU211E3sDdt95BQtEc64fcXlQou7al+qBfLbnGHIPzLV4E8SJEvdQ6dc1tz77mul2Z0bVJ+yszHSDa6+sdpM53OaQ9ezOqb4nwVSLt4WUcDIZMoWvqBOXF7uJ+q8ys44XeCpFbFqxR1xxymiVE0lmO9xj/c/w0ot+wdGASdTjJGboWO92qw79C+Clp34rLFm3fRRDWcFBWOEiEqxzCj1l6xadoJHkfKT+Aiwcwui7Kcd4AZ8JE9qJ+/WWe7m25lxrMaGeKVoFk2+u7ljiIsZscEklejo3CKiTOx8jOKv2m4T+G5V+/HDYTYZanWLe0n41tYuz7vljRq3MIP11IpLOKDmeZgtvQbSP2D7UuphCzv+SUTI7wOG7aSPdFDYV+T50goNF0iBmXUX/o1zrIDOxwCN8gQCRqUidxd4JCB/lawIYqLqOCzosQuZVELo6TxHAbnnpQJVIZ9UP3c/Gz0uxRwMcd4n/nbdcQ9hDeKTJ7g/EYrR10BGQqzxGU8ecjD+NCEju0g7ShdIU+C5GfMDKqmZMXQfKe6xBtGCdR3zUmpzIEBja0lGTUh3gRIre+BHFIRYHJhotURhW6vAia/T8=(/figma)--&gt;&quot;&gt;&lt;/span&gt;&lt;span style=&quot;&quot;&gt;verificar necesidad &lt;br&gt;de capasitacion&lt;/span&gt;" style="rounded=1;whiteSpace=wrap;html=1;" parent="1" vertex="1">
                    <mxGeometry x="75" y="150" width="120" height="60" as="geometry"/>
                </mxCell>
                <mxCell id="20" style="edgeStyle=none;html=1;fillColor=#1ba1e2;strokeColor=#006EAF;" parent="1" source="18" edge="1">
                    <mxGeometry relative="1" as="geometry">
                        <mxPoint x="135" y="460" as="targetPoint"/>
                    </mxGeometry>
                </mxCell>
                <mxCell id="30" style="edgeStyle=none;html=1;entryX=1;entryY=0.5;entryDx=0;entryDy=0;fillColor=#1ba1e2;strokeColor=#006EAF;" parent="1" source="18" target="4" edge="1">
                    <mxGeometry relative="1" as="geometry">
                        <mxPoint x="310" y="320" as="targetPoint"/>
                        <Array as="points">
                            <mxPoint x="300" y="315"/>
                            <mxPoint x="300" y="105"/>
                        </Array>
                    </mxGeometry>
                </mxCell>
                <mxCell id="18" value="&lt;span data-metadata=&quot;&lt;!--(figmeta)eyJmaWxlS2V5IjoiYTQ0OTZRTWhQaFlxdDFIOWtEbExKTyIsInBhc3RlSUQiOjgwNjI3MjY5MywiZGF0YVR5cGUiOiJzY2VuZSJ9Cg==(/figmeta)--&gt;&quot;&gt;&lt;/span&gt;&lt;span data-buffer=&quot;&lt;!--(figma)ZmlnLWtpd2kZAAAATjoAALWdeZhsSVXgI25m1vLqLb3v7Ptq7zQ7udyqzPdy67yZVd0tdpJVeetV8rIyk7xZ7/VrN0RERERERERERERERERERERERERERERERARkGMdhHMdxGEed+Z2IuDdv1nvNzD/T39cvTpw4cSLixIkTJ05E3vo3XQujqHc6bJ+fhEpddrJRqXeDdr7VVvxXb5T8brGcr2/4AVndCfxWKu8Zar9eAs4ElY16vgqUDdp3V32AnAG6gS+8lgyt4dwNTlWa3ZZfbeSl5nK90a6s390Nyo1OtdTtNDda+ZLUX3Fgt9SoS341zrf89ZYflEEdCYp+3e+Cbpa7d3b81t0g19LIlt+sCvJoqbK+TnqsWK349Xa30KL1Yj6Qvh1P9e1ko9NiHL707ETQbvn5mi0hf4nL2xFfmr9vECGEu4CVNKHzOzsIExRUpW6jbhpWJrPVqrRlDLo+7ofNvV4UQlakqG1agqjW2DSg3hqM+oPR6dbBUGjqjfo9fqtBgWqUTLlwsLP1MAp9UKrUKHZqjApQF/P1zXwA5G20Gp0mQGa9la8JXbbQaFT9fL3baPqtfLvSqIPMbfrFdqMFtCTjJF2uVgzbFb9arTQDAVdbEDHtZl6PtPyNTjXf6jYb1bs3DJM1mqqX/BLintMdbft3SZeOBdVKURDHg7trhYboyIlKncbqBotUK8VTIqpLg3K+6Xe3Ku1y19W9rNio1+FpOnh5UfSxUG0UT5G7YqtS2jC6dSW8ajLSq2p+qZIHuLpc2ShX+V+KrwlgYAd7rQO7CLtVzUuj123lg3Kl26Zlctdv5luVfMH0/4a2Ax5kgG4ReZB7cEziNPshDM/o60ODvd4k3BrM9trhfTM7RdcFd3byLZ9SRW0nTU0naw2jRF4bXiIv9J5sJsmWGlvS4ezFBJtr5lv5apUFhI7Xui03zqVFdNVfF+yyX9/olvIMIW8aX5E8S6UjmVXJrFcM1yMGblRLvsh6rc3y8e9pVKSXR5stv+SvoxalbrPVKPqBKNgx5OZXpfx4rIDdoOL6eCJB1TrVdqVpkJfU8vVOvtqt1Jsd6dulZf+uvNWgy4plf7NlwMubVHPoKxoM24Iyy9Kzq5rVjjR/db7VamzFw7zG5mJZXFsYhqN+jaUi/PJB0G2XEeWGGA3MWqtmTJUu5VunfGHuuV6KRmRE/1HvApaAbLbYqDaSXM5olamzFLCADWRWDDVKDTSS/IqtEmdX59p2JGist7uGB7m1cr5VSnLGRPkt3y6LY/5dRQaKspI5XjbTdSLItzvJyr3EtAJwabVTq9QbQaUtTVzW7A1GTv1WggbKCVKhEqUKcqU16SoYnaAkNfLAZAAKClWTJQ4uk+AgclqbrdTyZmQ5zNbJCsDSJmtArNRyZZ/dJNjpDUMrfbaDlt8uGsGvV2ScGoUzrbWt4mX83d1wx/U4W2G9t9gM8qwAClWp1WjOs3q9gfVhJuslDEFHOugV8sVTi6iMLMCiMbJLDVSigkUHrTpNDB+prja2DEAX2rYPARpR7RbzTVGt7DzHimgVjWHOCdNSuDOe9maD8Yg6sfmlZeYXuQJrhls55c+1zauGPbHn7elgn1xcB97dsu9mXtcP9rfDaWc0mEXwbeVlqKpZucuvBgCaXrOlCaVXHI+i2XQ+w8vMPHgl5WZIupaXHcmjH07smaDIhgaQXYdjqWtr5FzGUC8Fs+n4TJgfDk6PqJAwU9hpJhZANzptB3qWuNiboJHxeBiuUQ2dGDzPrkiRiwwiY7P+nZ1KlV0PSwUy63RKbJDdc3OID+XDAiaopbQxX56b6+5N5FdS+ZvJr6byt5A/ksrfSn4tlb+N/NFU/nbyx4qVVjHd+nE72pPjgUimxjbeAqsK/qYvI9DxwL3CeDwMe6PGJIwVJNup25WKGKkmew+wDjoFjKuBvbvMAjb6aoRfHk8H949Hs96Q6s60peYWXTZS8E522DXXK6aH89qb4XQ2YOkJrtGkKFW10Gi3GzUgrzY+iMLiwTQaT5EPdj2P7aNAFVuNgJVWaQFr/25flh6qR87D5zNNNfMMBVtYRMXJZzHVJDmSYqUKtFQTiypVlpli3EWglWT+THZ1k8U+ntYG06l0IFlFZtZJtQGwQFhGtqS2qLBX6kV71p54RbZRUGqu4NrYHLsess36Bih1sulLqoNNSbxmSZy/jH/fZDydHV5DGZwMTDq7l1soKkbgYpj2dYxIlqxX7Z0fH8w2poO+ZZK1yyol8XkHPbvKMvM6zd5sFk5HFEFVaZoVgo02tlqb+TyYjVthNLgf1omITHeMZJJ+6ATypFp7ejDacernlSqB+CnCU+GzsjUD6GB2fhgGoRs7U9cKGs4+tvFuSXQR7bK6gqONr1AvysaSafu1ZqOVN052NmaDMGdhIskL9htAHe8WGI7ezhk7jcmYyhjoe5Cu6YFmo8QbNLClNnpNcxdI14rUK6BkYmKAM6ZCcXxAh6au3tID1UPsbnIy+U5bdq5silXOsDp5EM0Gu+cpekAuzXzR72IKrK9vexDYSTP2FSS+fVC5x++2GxgVI48FBDrGnFZqTZxkclICjR18cxwNZC7ZPkC5fqp8ASl37HHCkG1NxRSztXDMyDdBK5fa4rRE3GxBHXOzQyj47S3ry2hIRqxQmrVzuhLPFCvfl7NRV46F5HWnZeapwP5LmilWG8bDzOIXd2MnmXyu08T/9LvGOe+2OvV2xRxHllhUpYo4M2a+lyt0bdpLtXwcR53Vbrir/Dqtd6UqOxF5XWtwHMWVBPYsbAsy1CqLxwWctQX4DkKWsznjaS9BhVdrHFlOoGaEK6VWfoN0lbJT/t1xtSNkNxv2CLMGbMdRNnN5NMmzwMgfa097IztpdgzXsYPiuLe7mHz2UhktZIqlySRu+oB6nTMtqWfOEd31ViPx3TMpVGz6symcNfK5FCax8kvNTlC2OMdseY6Jea3MUZbV6hyRcDoiJ1OLc5zW5piY09E5ynI6NkcknI7bjjJNEMXMTiwgY36XLGAty0sXcAnXy0xLDuuYXp7GxTyvSCMtyyvTqITjVdirSrErZeSuxhkkMJCvY8bMorsGv7+BezjHXOv3ItaonfHjxBKKnUKlSIES1nFG46Onsp7YGutiU0MWUVKUFboFTM7WXcAtWTOd5JeDZsva+JUNDBV7aIJYdaQJ4oiFzBJgtVr9X1tEtrfEQBw9hCxz5gF9LNiZjofD0mBqbQWddqvom1h0JGwsrq2LoZnJeg/7mKlZSLl/V5PNzVrNIhzESzI5vdFhW9FeRHyFxoCXlR6OcXUM6BXHQ3wJnZ2qVaVP84+3zT+ZHv9krbtB5fvI6fP847VAQT1HnOOfzB7/ZA2nYDaeUGFHYPU8pSfODkPg1Xqz6eA+pZf2b7yRvN6/8SYSb//Gm0ky+zcJMrt/kyBz+zcJcqnZm2JzK6N+SD3v9MGgr+5NMV1TnvX/KTzbGx6E1NEH5ixwg/LWkVK9tx8qndnt7Q+G56HXkWy+AB5MZtHOdDCZkcsI7WZvOuhR5WA/nA521genD6aIlu3WnXkVasd8AmjO+iZEB2yaWawaTHo7KPVCXQ7/eABixExeE1Vwx8SLMFiXyZUBpjlgKjnOGxgHCXU285uuXexNIpR5XoX1Z86LmqQbZ7ymz9lNup4B0U1y4nMT1hMwB4rBbgAupfg3Y7mnu4VPzr+45rhDAKY/gREyk5NQVdBps9Q0Xr4x8Othb2YE/Le6yZGOIlW8uWlIXC+8YjMQfEZ6Q2o6SJpzYb0lQibimy43WqU66Up+vSXlq6W6MUZH6p2adGkND1pCW0fZEWVIx0o2PS6uNekJTqCSXpLPG2/+0qJNL+M4I+nlgc1f0do0gYwrZWGSXhVsmVDq1cVgS9JrmBzBX1ssmpjadYF1k64vV0yw9AbnoTyo0apL/x4sQiF9CPubTOVDS21zaH3YejUv43h4baMlG/gjAnSN9JEcD6T9R63jzZI+umzTx5Rtu49t2/zj7rTp45s2fYIceUifWF0vSP5JjaZJn9xqm/Rbmrb+jc1TdZHTTVXMB+nNpNLPW1rtquRvJZX8bflCa5P09nxhU/JPIZV+37Fp+Tx1kw6RPq1Q3ZL5eTqp0D2DVOiemT9VlnE8q3jSHOWeXVw3C+E5xabJ54udltAV2OolX8S4SVpat/x9wmnSn3XSm0k3SG8hLdOstFchFf4ny3Y8tLYh/amWGydFb3BJjQdSr+BIkDZONp9yB2nzZPMO4XPnyeZTbyRtnWzeeCtpUD1Zk3ptwqdC32FXk3nZFPeFdItU+nFX7VRN8HfXq8bxuqfeOdUm/VY2AOnXc0kD0m/bROCk9zaDtuC7pIJ/XutUS/K9VrMs6XarU5B53wlwcUn7bduPsF03h41dpknm7/QmsS3SvU1bPti0437+5imjL2c2W+0W6ZD0ZtL9IMDyKjUilfyY9BbSCemtpC8gvY10Sno7aUT6FNIZqcjpgPSppGeDAJut1DlS4XcfqfA7Tyr87icVft9OKvy+g1T4fSep8PsuUuH33aTC74U6CG4Wht+ji5umhy8SQFh+rwDC88UCCNPvE0C4vkQAYfv9AgjflwogjH9AAOH8MgDT1R8UQDi/XADh/EMCCOdXCCCcf1gA4fxKAYTzjwggnF8lgHD+UQGE86sBTJ9/TADh/BoBhPOPCyCcXyuAcP4JAYTz6wQQzj8pgHB+vQDC+acEEM5vALhFOP+0AML5jQII558RQDi/SQDh/LMCCOc3CyCcf04A4fwWAYTzzwsgnN8KcKtw/gUBhPPbBBDOvyiAcH67AML5lwQQzu8QQDj/sgDC+Z0CCOdfEUA4vwvgNuH8qwII53cLIJx/TQDh/B4BhPOvCyCc3yuAcP4NAYTz+wQQzr8pgHB+P8Dtwvm3BBDOHxBAOP+2AML5gwII598RQDh/SADh/LsCCOcPCyCcf08A4fwRgKcI598XQDh/VADh/AcCCOePCSCc/1AA4fxxAYTzHwkgnD8hgHD+YwGE8ycB7hDOfyKAcP6UAML5TwUQzp8WQDj/mQDC+TMCCOc/F0A4f1YA4fwXAgjnzwEYE/WXAgjnzwsgnP9KAOH8BQGE818LIJy/KIBw/hsBhPOXBBDOXxZAOH9FHw704FrN2K7VrUrHLpYnPmWtN5mIk6O93el4X9yy2Zh/vcJwvK203j4/CyOV0TbCpLwMN3d7kh+JR4b/1e/NeoZ2WWU2B/1wrDwvpolu6UyHQrQ+GHKyLYo3me8/n6CC0isz6RR+XrTX64/PRYDe3uD0Hmf0Pfw+PMl+OOsNhkDZkLFE4mTgUZ7lDB8SOgJemoX7JtZoi5bPDrY5e+4IvGKuAGyz7n5XeUf+/za5g8c07TG2VbW6PRWeI1omd8R0RnlXmQm4ROkdEYR6nvLG4mHOxAHPnB1Eg228La2yJO7m5rjKRXjikdrVS/AeRbvj6b7aU8sDMxsv1mrFQO093OeRdB3Uam8EkkNFRYoEc4nF4PLhkTJty+pS8ulLisvUEYvZGx8M+0XpX603AkF/rpqOOZ1QmW6uRVIF4Oiuka2hdFP6Uq2OTWSk66YIa62Oh/vj5w+KtNAkeoyMl/WJs0ZJXqLVZUR6Tw9GnGCk5a1Bf8bA1OUL2HIocgR9xY60hAOrvpBRV4pzWmOuSiif8nJnwvNqpPQu2OpgFFdidgVTGpwO6V2G0wM569Ler7KS2bKEOa4CyMF8YMfpZXrcbLd7p2lYC1gXqaHH8coxAWfb+GU7ez1x88NpBIVOcqahSkmG7EUCN86GU+KeYbvH/KpXejozNMFQEyzbZta5rRnS+4iNRudOD89P9iJ2GL3UT25cIvYXvbzNse/MCw7GsjDfoPUlls0mHYCEHq/sMphEOq/QenW3NxxuEwdbpyBSI31kD0Wc0tiZwvg+uLxa6zVyQH/n6aOzJILKqXTqTm05dczhw34i3+PD8WmJthuS9rgYj72xuxuFMyyLWtUn9gdxzC2pd+k+Ofjb1l+j9WXlVIeUl90mYNePVJ9ToDUg7siY2Yvp8IhzBLcSPmjBvFI07zdHYxZTDGcG0WZvCCtW2b6tewrdWVa5gpO+8lZY+PZ4hP07Z7QSTZKyuwEyAiQDyUouH+3AitwydmI8Daup6y7Mwu5gGs0S0UhbdCidX9qQuVbe8s54f7/HEArWnM7Px9vKqhCDZgy7SNMoDe1fyLzXP+sM0tKFi2+5lOgSZnpKEAB5YacT5mL2nXKxCs6625QCyw6ZGXStN2WSnKTT3bJRBqNzUlMy9XB2bgy5Gw/C2Uf69xPu4J9kVBcuDNmXuB9AJlomPlL3ah2c398eDx37yGRol+3KwjGTSBh4xA7EUgb0PVxHNFhbpi5mi2KaLc/z0AQ4TMDhg3HORVYb4UjsOxJybY3TnPVBFK4z5xuypzKO8yMTIdDsg4Pd3cZoeL6F1M/2hoY6UyIKcFYM8f7BTEZnzK/l6y3yJeOWr5ePWDytcBeaMygnRiUuZCEEmGJaHx9MKog/Xhe6F9d5uxYapFp54GIjsMoDlhs7SGcR7/+FIghnD0wUoJUiIWkMXEgECLX0VncHw/CUHVdkCmGBv+HGWO7hOhDIEZZN5sXNVYT/q7OxM5IbDth2p+dlQtvj4GBbAkDbkAlCvRCbyVKajEcsS9vS8sFodygXTnKRkGa5Mog6cVGIiqtV2+1iXL/Wi1hYdsoyOzHWctWTg+3hINqDmTQs3W2P22FvvzrvnjTiHW4kU8Erk1XaYNSiA8FMhj3XNWHV2A3O0VO0xxGLiuI6LHRhUYsuznfz5v8nziz83jBIzUhcxbK2TxQwj8aJuUJ6woZsnBhj7VnOmSmG70A8nuzcm8mRJN7MUjSZhr0+FMvR3vgcssYPK4RIsC9rD/KVtrg5xuxVRrviTJr2NpXuH9hlSWWviUsyloJSeHawE198xuFXOZ+by1ldJGJiYkiewRGRlcgdeVamVGzFng1r31UuFre6xifXhxphW5IMRw8U19kvRsPQK33mY7A7wACjudSyPD/CJtNAhuzPTWfJ28JArSS3aIogfByx1wInJZ7k4rh9hrAx44gpsy6bEOccIqbnDrreMbGJZdeBArv/aayGbIXoMyaR3tBKMmq5uSIIbm+b5D7APXXQFzCwY0hqEnuplLrxQ5wLyfMoGtuTaJnnbSdow+UTiHKOKsYKVe/hcRsZGiqVq+c3Cf2Z6KbiSsK9JNLBlok3epLKE0VDkHF3E+ZuL+vjxsspCM5Mp5geKOKHWRCooLVh4p7EqJqw7TZv6W7eCsKzNQP8fpZ3xOEhOtjdJezNsh+IZ2q6xsrawS2byW4wU9+lMtHZ02IrjL/I9JPlhCWa/VlWArnGwUxcBnEfKcdMMRtszbJxkF+GYn083WHdyosLbM+ZCPQKm05+OxoPD2ah23oxVDvpQX1aqyOux5sbrknlVda7dd931wn56lb+7gBAV43DKJfwmOOZjON2bDdurvKww8nKzYwO9gPWPPMQKZwtt845EEUWG8gqwM84fYBlm7ocXgz9YhpXJmLwuOG/Q61uYM2Zf+NW04hOWMVbR6aJXYLgHJYAeZunnysKG7PgEVl/AeuEuxEI2JbOS6Tc6qI8WSEhrN5qnBKM5x5RZvz1dfv2JEsQstESKOceGyxhhbD4hl9qn7JtWSsbb8Buc4q3NiFgjhikzDm9jwTjqkTMRbzsyXsyTbbIXf5g9tBzRAXCqKzMDUPgzry7VfZZiuVKtdRtrHdtMXF8bhPtO1ZGyDK925VIRS8/3Ul6gfeLEPOj00iR4y72N5X1BtxuT1uxqc5Yk1/Fp6buwXRAD3V/EE2GvfNGjdfEtzFZo7X0vzk84ITmWpuYDJKkGn4PxyMqnLEDbZqyVjjscXLYsxWyE4O0FfY5ILOWAFlHZqoBcdJL4TDkoIESZmsHw9lAWg+n64Nw2N+0U8EE7bAUkD3KoNO3YlyFMUDx+Wo9Oben9MPd+IulJfGcOc1Y6wmUjQ1oLjGtSwk3f9SfiB/NmEMHyp5Fm3g+k3imt7kIs83+IysoqQzAkh42pRZdT5HbhUc1SCytiDkAknJu2yqlEheZ3M5i4YziEviOUfbKPX6wYKvWBrZzNBOBFC7fwM7Ol1xCzZxjaVBZmvGrhcaWNRSsnryTg3aeTG18NnTb8XjYP2VmF7cZ1V9P1NpL0ZYHhC2m5ytES6gSjQ+waUZYfRGWzRcPeTLssuFwzPFO9IXJp3dnUJdRUm133tSQMqecciA70zGnxOzWoH86ZNUxevTC48AR1/X7Aw6EMoDsbIDWzXr7k0o0vuN24tMMBQM7hVA4MyghDvt5CTtkdvBX4kxWChCyMTpeyZcH/whJbZW5eSs08i0Rn8YinLEkmXy1WZYIvlyCs359IG1eqrqH317APDBBAR4Di5GdzylqocPSJ9ULBHYAOjIZ9XJPmZfwnP5GLCHvy7EtNWcmG7y4bbLXi0K1pDwDWOTtE6xXfBv7fJVJZS3BU2bS/SPK+DsWdcfISjsnqUU9dRA1rf8rRwGW6js0viKO+ER6DO0HvOFcI0zf/12rF6aRTk1A6p9wNuO3rd1lVS2rmxxo2wsHUTDenTnTEEgRjb5TE50ZjzqTPtPkOvIr4NYHw2FM81Pk7Y4aY34GIQK1GZ/6oibsbrKlhe7/dmz1gX9RM8qLmPyvaI46qaL5/vElTcj90B7wQW/8fJzb4AAlZ2KnoTEgxqoJp79gvZ6tjcej4YAw1vB83MLnsdh7HCQlrmbHhHTuJfTj0KmhmYI3xQViDebon4/Rzk9ICt6aFBgXf17wC3GBuApz9NtidKo/eC22G5T/ho4Msg9SSJgj9XE3rYKzhHHJH6VKpMOC+0QKZzsl2D9OYaVHgvtkyqVs9lj3rAutf0dftIeFhJRefsgoBUqzAWaitPobuh1ncauYo9n5TdnQGtM+iqC+6umvx3Nttsz5ZL9Xq/vhZrCLa+LbgZIK6YPnd6QLNuFvVeS7LDqxjSlde58mMBgZ+kVFfaU+iE+XcE838mZColjazgMUfyU+wCImWdyfifNmmv9cvC/bi1NmaX4WiRVvZlB/EdOFyW68xl2GDdwWFyv965yLCLUU7kbqo55+Gbt3Co0oI/UhT/+g5wYoA36zVi+YZ60RkKmQiEqQ4OVw+p3YEjmqcg6zBWYAP7zYdB4X4fRIon6R+oinX87hjch6fhoWDraZLHE2fiU58wZycOa2Sn9DL6A4S39A638xJta4rG/SahxnbBcncYWqbGgqp37HhKGde3xlDFviCsa3d3ram+yJ/WXTXlVXHUJZwpMJNn6VsqquPoyzpKdmLKM8lxrpt9SPVQ+9CNpWaCclmyi9BPzU49XDLkBa4o7gi2wm6ir18Bi2RZuSTUUYr1GPWMRYsi127DiESsfmOVv8XJFQnW2GkP7jYtgWfZthJ5P+Kq0eH2ds2b1CagJTI857+/vjUVUOkQec0JnZ714oxT24b3bQw+mdU7yQtZKQlAYssFC6zE6VpvqeNJXdvkQ0aZIXpUmwHXKXAfp70+gAN4PVc084HVP04nRR3T0dss+WJlyQX1jopltNuUa5sJQgo3Ea1Iy79FRxUZ4VneWaJoVLdqf7uGVnY8XYxMyH3D0bymSJfwyKHuOxoe3rWLDiepBv4t4jT8NIqz+J0VXkQ/5P8YjvqzLLcor8azY50zuWk/NivriIMp7CKzz1ZU9mqYNnVjXn1bgfy9zezsanOcz0G6NGex3/DElF6jv0HyV4QrHpgk/o5N5AvTjDTapYAeH1koz6tFmdRhyCItil9YtN04VBfzBv9McNrm3vQAT1DPVaBhqVe/1Wu9qmjKG+OXV8XnKgVc+nEV47Y4zMsoUs+unzG8AVB9qCZ1AzCZutJhlb+MwIA8KZYU1Si3o2MYjkepArHJexhc/po25YKGZ3xJXMsVTWEuT3cVrp2yWSWlRJwErUsAELyi5bQFiidcEZL+plnvqt1F7csGNhWJdfgLRVNzAK6XMoF3zzvCUpR8ZTcLd0q+q6dN6S1C3K2Cn1UPWgVNYS3Gkx6L56uHpwkrGFLZs3v2x5pHrIPGeLg13ch7lX8eh51pbfYytYlFA8Jo2wNN8aGv8lUh/U+gkOtiXduWCKLmRy8yGUJdyVdjfC8X44w1f+gta3pBGW5rRtOUYK1a2LKEu3J3c+rE7UcjyphrsYw7nUEfGP6DRBSwR9iOJVc4rCeDYb71+Ey48eprkYo1fPieYlA9nzJig7CxSd+7HDNO0xmzulc5LXaNnHcWhZkxGmnVEjfrPSflzOdfntQ4GzF3nbY3EjGF/ZuAzgftrhbG8T9BsdWoaYIH/GIc2YEuybHJbJxRdH0WXJvMUhacoqLcP+eYezTSXotzq0NJUgf8EhTVMJ9m0OG5j5tWisZloov+jtsTHZPT6RyUw9WN1wMbxVjWYkP5UQI6MKCsvtMrbw+SYv48Ku04cz6bwlGRpUs9eXHQKS/XTektAgqCIzgekxi1Stq/sM8uSB/aVJWZ03eVtaUp/UJltOuu0Y0sCf2CJMtHFP5gWfsgVEA3DQTqo/tVnrY5D/tM032cTY3YPB/VLrpPrbBbRpv0L8IqJLX7VF6Y7bopL6D65obzDsu6ob07G8pv6aLXHdMlMI9j8uYK0SgP47izZsDP8gHO4inL+3+Hibpoqqqh/iIASyhX85jcJ7ZOrvY9J/2KLNb2Hq6ndtzvXZzRQtfdjjQp5Bh+prGfV7sjXHmY8s1DC9QEc4NsxUU/05l1jBCN3e6O2zlnpTWWCf9VAgd1sjR1njdv+gLEh7cRJIJDIpePm8oEA7p+d2DtP3Q3rOyngAH9LqJ1K4NrW4BXpdClWaXwj9pA57ye8P7lKvT1E1cQHC6dkwMEFXOv1rHAtMAIxCQ99S70mh5Cc9a+rX530lLiW3Px/VHPNYLPHlSZsi1Va/mWqqTWRpfCCz/P40Za1Hhv+NTfotTSYuSY3gAxI8IWpr8uyyTO2wJ3cCH0w1EJjXOQFKNsubFz1iZP543tXKnHWk/snTX5oXmalAQiY4pv7dU/9T20CseNComf64y0v0DR/HRmu/rvVfxrKRgzs81D9pQpsJzucwDea/zTFVRmrO3Jz9KErwpjZbL/vwf59jqW9x/zzHFdE6Jst0NaJA/9u8TBytJML5L1r9b82J+dA3B46q/2qxHWbeLftV9T+QsDk7XuQ2/m2a2NQDFm+yzBCp+getPuWNUOdDbwTeqinaAc81xc6ZKtvVgQS1v+ip7/WG+Jyo4NlBeM7QvjyjXuOZzjlXEgdVq9fFLnCRobPgomRf+Uk8yn44bqIM2ywa9SpPvV3W6f7EsHtZRv2Sd86EPeUtAgdjfOgQfupHUuii/anrMrUtsmSHys35bBrGv4R9rad+1JUXezscT/IwjJC5erGnXu1KKqPJwSy5uviMp37KFcjOTKCetfMGhymPz2J4jCa8xlM/iwHZMvgAc31GBMzwfs7R1sJZry8D+qynXuJw/lmRBA66/n6HabLTY+3P18LRgTXAX/D0D3hmtlrjc7GVjNhN1bstGvtysD9aKPk1W0IFqxsRElXvsUhLviU7h0H/OrE31hRHOH90sL8u+seZ5kue+l92HVNQottxwVc89T1ENjCgCPuIAezO96ye+TXrCI1i1MfnOVtckLm1BtEfST/EVJy4AGmJi6EJ4MWq0rB3h5deiLXkfsTCq7B8puY5DCvhmkWMJavuDxhPdUACybUkLmeLazNZXRiXMxgRCK5P5y1JYxsVWPj996PVIw/jLOldaAZakHZCcE4edSHWkt/NgbJP4NX8YJr21JPVEw+hLOHzrBACDrLgIiJa+kmLKEvHGiG4YSYhkt3vaerJixhLts2qw6BLsDEiwKW/JZW3FDv2oZPogHqjVjfOs7a8vytGpMYpiZCCmUOlVXQB0hKzFk3b43XmQCs5vMZZS3DWjqWA1K1exPWhPidRKIzJ57V+mUZyRjdFCyh7hY7M7jf/rdo96qexWOJRB/vj8WwP0TCpb3R0nJ8j7oq21Vu0bbEtwom4WhYAhr/sCJko5mnHxOORqXquehdsExy9h8mvcnNzHzFN8W2m4ag0EIsmTyXe7bgk5uSrmihnz11kfk2r341tso3qCbpqZmDTWeSc+rAeUZfoC1lj/D+l1e+ZmN3w0LOLj2n1kbhANrkZjGMCevn7cdlcuhWRIiMRgo9rPIALKPLzxw2f1OoPDAHKYa6p7lV/ZmTRYz+cEvMXObprCfHb82x8ZgLE/n/eunlFeNIkcpP5OKn+as5Abg2EwwMw+II+E54nLHP6NJJ9UYZLjbNjvBZfTGhzb0qIDnl/WUtPxaJz+N8rhLvjKd4NUR8Z4L36P7nocpUtK8Ij1f9Zz5huieKI5NXXPPVfmBA6utcg9sw6paPskmPsIiEtYDryfex40Wzubr7UC/e3w75h8NIMcR0CVHu1sD+wr1M/kSF+i1IwzzLLdM9pEjvYj3nRYH8y5FQQv1Nq9kbhUIb7eq+3w0hMfKXcrlVlefxdRr3DkzBOC4uj/j6jfjlFVO1tE4tdU+/0zgoJGNP8FzLqXQmmiNU52Gdk4rJN2MbUryZlchIqnA/YqCh5s6fen5QIjsJIfTGj35vG4vO+R6vfSFCtkIMoumyU8VMZ9b6kRLpibhoi9aWM+s0E32aWR3VMBR3/QoINdsYTKL+a0X/j4WaM+r1Yi6Vv7/TU7zt0vKcK+j0eUff9AcFiIQwQMWfwr2fUH7Arp27VEO3HPCaHbR4X/CWe+kN2Mxx0Nt5duSP4p4z6M8+qABNltKXSZ83jCOzI8m7Z+ODcznwjoz7H/BqsPaesqb/0+uMdQpVEJNO8/zmj/grexMwZX/oSOOLIrr/kbbKu5n6Ql+lhrCdk6bPep8+96lh+s8r9O6d9GUmmJti87Yhalec9XKmqZr4TyCWrbjc25DMbgu/GSK9mPyuQ6dQdlHVkku0m2Jz5gtt6o7Vlb32XTL6QL55yiGWDMM8NVnAncF5S7pC3xIg5sA7YqDkWaVa/rOg5Iv3DgN7U3JXZQvSKkWXBBakqFpsbRA1bzeaXbLslZ0IXfD0u5WVlcNSQi1bMjDE8gF7qvYUojqeZp+kAhXu9p/VioU/JeVhhepjW+euPTaepJad8cx5vhMehUp8imGTEr7ZXofTnbIpGFmmi/JbiTZ7KbC5g1A21ShBUzE9dVbHRki8otfKlSicgr+WzYBst+RiefOvBUnlzZKVe8s1rsExgHg51t+IvimSDNlOaqpWziGa+JB8TiR/kyXfjUlj7vGR5ERk/LVlZRCdvT1Y3K0GlUBXlOiKvlswXy8isbXEBLj8/PZp85+RY8ik0acp0ont4zMcXaUzrFxCdmBPZflyc1yUXkF2c3aWFRqsEQhpMRHiZQ7qaCf5yhzctJtgrHNY2kKCvNB/TqLe78vNrv9Wu+NLeVVaUxUZHHuukZunqWqXejeV2TS1/V5K5VkoSQV4nRUnu+lilxJ4nxn6uvG9JKW+axKccDU50FCyrCtufqLFQg7pXeW3JcvLA8nHOSBvueTtvo50HpPMhksYGfdjNnx2x6haryHYMeYrtOy5g62h8COYsI5CYHS9v9pCmawCyFKt3weqCcp/COZuJK5CeWdIKBzaz98kzF/O2VMUfMnTM0hvWvLH3Jo2lyn0K540Jkv00bimmw86Oemb31DNp+N1QcPLBJtbjCcnMiNlwFmK3e7+nsmfHM4IoZD7gqdz+QTTYMbkPemrJsm4n5J6eCVwNR6eJMmKzLMFmzMHDA5vhU2BY56W1hCUGeMyWWJLORXRq1oZbLYLU4/ZyfmvNzbjyciP6aw0drPrhLvVQpvvH+9uDcN39uKduh5rZSVevJxU/zPDSD+tyxYvTqezcEKm0IdLy8rZVKWEru4H5jGWXbjCblXrZb1XaXXl92Q3kcwq2ILPQwvz6nbHHQ2CFyJ7xMSZmgbgko16xkzuy4+IgjkL1hptxjQz72Pz+ck1luQ2fV69I3ZyZ9o8ze+mRL0+m8nIDh9PwitQnPLWy0LzBsyfJ4dXCLGbxhW3mVdq+W7U5lGihclvalDfa5kfpRoQkOn4hjbgwW/Wi35VnyyAWazcP9Q09YRmMTrvsmtYD5wzLG36H/aSnvUoKvcgEHjPp06c8JacERPVNiNtCyWw0as1G3e6Kiv7i+8gHBqW/2roVvhwt2BDtF4Xch4KUeT5OqmXYXb+EWtg3il6+jbEu+yU0BBL5MFLQtR/SlWJ23g6mXFrqpPHuSd9i1Ell3NedVLvVqRfzbR9Qm+9Xuld2nq02NwQLz1QtvMnJCc0xKBdfqltVy2yZnEwHAYkk2mRFs5wvut8QqMAXH8J+mXU+v/LNOCeOjEF2A7/KBmpKnTcJlKOrIinnpaUbI/aP+zyeyikL1fbwBg1A12doJB4YoBtiup50kmUzcSg3mnSdARRmGJ9j/Qx2DM+s5U7kwNO5yDTNDbrBUcrKadtLddbAMteHuyBZLWx/C8FOdUn77qYfFFsV840HVWzKBGn36QOvGMiGnTmZ38wnNFk5uZHmTgZGnkvGG7tTUMvNu9tlg1zZEBd6NTDoI8FWxThca6ca8qAS6GirEwjmWCFvPuJxHHdePtNlFt2Jini1xEH8VPAOQ2bfVsaFJTQkLsSqkxhLmCe6IJ8Pe8AnYUzMxCGRiTVlskK9NpaiyilYGCsvOwREy+C2fTDECJkJ+HtM3oADEcd7kXT8Vkhes4b1A47MU3JZy2lk/WBvZQhoan+dpXyR2l4/Pnj1hhwD1D8wy4soGTPL9h/ZDPrjcyPOg/KwiTMJ9jKncmhERG/D0c75OXZJBoAgpjMXF8qpZXlgOY1M3xq7VcrRjpXCfHgqa/w4s4ZVpz7P6MTZxgvoVu2XQTLCx9bLmfkDp1ydmEYnXGKMZ9yHOzsNs/4zZT9PMVC2tDBkCKvmuxmqZT4/oxeLnUSwiTX7ATpIlH9XAs9/BiSUcTjIyw1kg9EInsr/zGTagkj9q6cXH7BHzBFulvyYeh9iZ3YQYi7h7Bsu3vJg3kIbNNdLzHKCWrhHQnmSgtQ1UgYD356HgXBoLogC5YjOMctSQXwOomnUW9qXs3KZQCMo8stJ3zadD9s2jhMLhIG/m+2wOB4RJ4BJb5g3vZC9qucghMCZ0hGYA1zCL29IlHfdvBvifLBAEOcc14aU+z5vjkmPcuG2Lzunkd7bAaVGedFbM/npjdwoUW7YtOSHKzHG3gGuyIGds64JRXCETnyNbbV6YdDxyLxBdlQunlJXjmu2v+tc+Ei5WtVHWdjTniVwq2pbHZsZGccSNyI5vojbFCOjPp1RJ8yEOWG+2lOXwM4136L1mY2WxD3megBDNepMh5VRPTzHMQDUZYus1Tc8dfkiypgdZu8K01hwZjBpj0XEyPfKBFU4n983Xu6qugoR2jnnZiajr06ycx35F09fc6irVgqpvl57iKASq/rZMPGVJAp4XaJUAf2W8H7TXAsSTHBbH3G51EPZ+c8u2OPdKilxNbcTYndO+XfHT/gxWKfq7OCcLOsEBKpVY1b0XYXGXV2cImCvGdxKkmE/ahfLciollz01X3smKCK7ZKRyGrU2WNfWC1kOZTpt36N53oH58YJ5UsqEezVGJ330siav920+7MttZqUPqZegCucTZGaXINop495lffYPG3L1jjru0XSnYyBvNpgx2VSYxR+NsAXZc3LrxSzm9sy1GNBSKIza9JXy5YS+so8tK/ci+S3Uyi4rgXlO41Yn0/FZ9E9i/Ee4nTk9QAFkKyO/hkhSU3KUmXNXmV7mIB6LHJ2YzcCFqASFGwzh4oiryI+1ltyteisHZiQ6HqLsz3FHMosNZy86mtxFRrO0SLnlpHRYHLHMVjbpjkTqmcCd3uhsL5JgeOieH2G6J1yGDF23UWLP5EuhKLyJ99lKG1YbsjX5VLGwsnG7Jyptyw3T6ninZ8azrbwUOmDzYbXY7yL0D3MsDrl+VVqOzhwmJ2bFUD84tArNRTf07o4mMVJemwlFmfERrXlU2vy4GMi1oPfGs2gynrmsF3HIcHC86pLKdt5yY5tzVN+MATNql3wlNgrjkSvLumoFTOSEM9OsQqRQyzaLEYG6H8hOzILbZiMMdgiGivNPc671SL02g/OW2J7ET2C9zyO9quVzDjbBYt2WN3S4Xk1qb3MEj3+KszxmvzGNvS6j9Cg8l2S8C/pYkj5mgOLRgGEsg6hsKSujenju0BAYVD/p3OszOOnxeW4mZltud4TrcmWOJhThOpeLJGda0YebjbsXLPChd1HMJ4XOmt8UqbdkVE4Wd9FqqJeJFtXPKaybJPOKto5quXymTT6IaxyqjfXs40h80/qLsm+aLqmMfBquwsHQzFieoKIFOaXVapW2zXiLVbGd5l6WPkwMFwYm72dOI3t5r4jhdD8cI5MJRIgEouTHFCzPaEEyetiLZrFyWO7qDUz+hegANtzEvDWDOU6xz6KeLLqEf2Z7UV9ila1wBpDvmniRoU8WaSIV+7soNPLCpqVHF+lokPTIMXWdiNTbM3qxk8Z2EAKbWyGuIGJu6yJLyxJ9XaJSIi9CnBm9TBkHdPv7TyIUTCvGFoFjGLF5bZv3NsWBnZ/jxasUJ43rZMJeFdkGdJkr2Nl22JsxpaxTXwIVJuagCoSHk5zusHHQqHTIuyGiZfqMODGCCVN66jnfgTgal1PqeSxFse/WJcyJ0TbG/RWsun36GapXZtRyorRco66Mt2noLONUy3q1H7KhhHXL8whrlmVsLHCkXpXRa1bEsdWN1Ksz8v2dRRsZqddk9DGamtLbNXXczFlMU7YLlpVwYgHfvIidpPq94ig6kph9SSSL6bt0Qm6uNESMM1q+bpTM0jsz6vKzC/PxLnxDlufWlMACsrtSvqa1jpsWMNsokVZXpUxHbIIi9UZ8wxkT7EzGmzLqGskGiRTfnFHXJpOSN4eSgIm6bpeLw6gxakPs6mp1/V4y/+/OqBsCJMyJvTfZu/MgNDHiyDmHYjUQAE7hhGXKohGE61IyIk9vD5lAEwFwywkFsY21QitHiKxOWG9DeudiwiuDqNljpkSR9Ax8K9zvEbgcnbahXaYETwi8yWZmQDKpyypLQwXx3XIuLLzMsZv5bKEwyLMfgG1DzVj2J6bycgSqI18YwQmrzePKLMF5F6ggMwcRjUsFIFT7m3Nm7wlm4wnOFiyS3dONUC8sHDSZssJ03OvvwJOA+0LxzqLY3o9NmdHUVH0AezeJGasPcVCdxPraTKNtDF59kMVWgzFDUd5DhErWc7opD7U1gLlHdJOqXunpLKJwqz5S78nonJle9SKtlwQq9CJWiDWiD5YAdW/o1upyb2eHBlRWrUQSCgmS8OBqnG9LR56ljsT54ph+jyz6OWrN/D6aTuXUUQM6deKcZ7Lrib9+3Dbc7J0fIkgQJ6IFJTa3IBl9SWpoib6+L6Mu3YXTpgsrLKvLDPcKWoDWYyTPNw5m0aAf+qOdIXaGY6hYZqb2ckPYRKjY0XvVFYOoyNGZVTzEoA87o/444KL/jPpIRl9lUK0whbp6O571SH04o6+Zhjt2wQbhCw5CVryLYi2ra007Bfyqnb3A/PR7nQ7boV9nynxOiQTgRG4v9dT1kzHxpvOjnbxRG0Jq6obkB4dcI4TGMZSPQj0IL2h2Xl6gVOzlQJUuMYKHlAa7u8W9AzleraWkhkHWdm9fkliZ+ahBnWIUBXtv3AwjiqyF3XznbK4SGVPKRNHC0o5wj/LmBx3ItL2H9ARFE8vbnPZF/OhCeYDxne7snacJvTK5ELd6MeJ4fEcmF8evyfhideGSiyHEI4SltWCi4ozRySFSH2X3lmxB2hOy7LZATdNCfZFDbnIx7FIrfrpjZkp57vPvpS6J+fMWKv4bSDohLYmSepxYgcv2QKWncaHh83GsQjrgYJAEE7k/8fN1mKn1aiPfJtVcz9sLXi9frZg/8WYj7ADyXY+WH7i/FpWrmfuBpfQ91XLcSCu0D3HmjS1988aSNizXXJrrUsw1P7KhYTaBB7g2WlPeLjPmcviQxB97kQTTssbXsPjnqVx432SK6UH3LeqzmL99d9mjPi/uhnt5YzHvIvTqJ1WSIJO6VJ4YJHcV7k/u2Kz8AQ754wv2j1TYcKy5P3F//6tUkZkEyvp3dvJVkXSu3uAuR3Jklri9kT8oZkS2nGS6XHbEJCsbLfnbfi1TQH41nU8THrFfzV4zIj5KKyTHrPAr69Kb49Sq27+5coL+dmvcHnerjcYpcx11yXzo6FmYZBI5fAY3d47OT08fSPjEBKgSvavF0jVxG2bKRvOhmesmNGx/Bh+pz2XmbwFEj3DRTYmE5nQfhFGsT1Kddhe17VPsfXHVgDsqFhm1B2J39MhaHLbqhavNhF6YbEo7BFuTC/KvHOqLJfApFe9nH/5oKszPpmgWRmZelMlEyP1tscE1DnI1F5cmAmbD9RydFl97eOZNxfz5RGbDrI6scJGrYKHJmQ/WmCy5pcD8dUOXWzYNuMwKE94wn+xZtVdPXPRiWXHwnMjZNrXcF8lLP1V1H3JR+RaXiVWppuVvS1nl9ur5TZJM3n3CKluWL+vmyjfz71L5Fv5dLt/Kvytl+Zruavl2/j1SlnOC9H8tuUc4ut7gakGgY6wkVkwAeFxoTpQFewkGh+TShWuIy8yt7+Ud+feKml/vkF5Zlc+LX1US3NWlNv9eUxKVv3a9stExPK4DKuabbgDX1+wVyA0sQ5IHye37g315JPQQEZMxSg8Nagga4GHSq4dzVyF8HnEn/zyytC61H5UvFKSbj3Z3cI9pScuPbckAHufu9B8vf02G9AnydyVJn8j6InlSYP+a5JNP2Q/LYzxIbgyMgG6SwdwsiFtkcLe6r6jfVjAfUb+9UJKZeUrQNKv+DtOFp26Z5GnNSrFtB/z0oNFpmW+gPKNSk/E8k5ObjPBZ1XzB/FmxZ8d/IvE5hU67beSStxepQAXpv7sGQmHb8eSVgK0MfdGuPCYHeL3RaVteG0RqsUNmJss1aKRb8lfEqiX7xbiTVX/DXlifEsvYkqek6nmxutVt9PfWfFOuh+JvyT24kJe/2AdUJLzQrPpMO02LzEtu/VTq68LAd4NcdxO8gabKh80snzJHVwtVAj/fMn9z4GT6jvnYXN0fwp7UqdUTXX1ESb6mH1v7R5Yq8mSrYfrw6NL8c2ePiQX1RKmJhQV8kp2AJztx3igp2iT9vIntXXpxM1ZZWr0NjU9/Re8pLfMnCe8giRk/FVh4m149rS33/ADParPBFoxu5ZPp1MWyXzxFUB3Yk49xuT8vmuFmVzQqS6c7rie5GE7VWYpxYpJEvMvJ7K/E82zbXI0pjnD5TDzfYtfMX9MR6HjQrNSTfp2g1ySXkqDERhkvE22yrV7ebvm+tAp8BfNdaFj8lTIC0qtEfhZ1tXSQ9BpJbZvXmp7EwrqOJoQc8HphS3qDpI7Vg0Rq7MmAhTyXEEJ3qtqQ2arW8q07O6ZGzT6aAELPamY8DUNdquQtcTOB7rSKZbt31N5eAF2yYMIeOrdED3NT8vASK8/hHuXXmmVsq7T42HXfhNIeh/2yC/vxLB+/Zf6+xxMq9YBu2FrfEq+2W0SfzU0/mduD2J49HRvD5NiXAc/A0hBjjbPPpKaI+9kyPtLnxP5mSzQNLTZ/BzGIMzeTaceZW8h04sytZDbjzG1kjKpK5nYyd0nG9PHuxPLfI3uInbpvne8wz5X165Y22W+TaUz+Ou697Iv2r/J2a4ceXHu6H/WL8nsY88UZ8/kmE2mwvkXIli0b+j+yoaeLfPBs5eabqLKR7wqeg5WJJ9bGePUDzvGHj12ZojiVTfe6mgC//dKhmn/pkIwuEVERf2iROIMZzJs/eXeRDySS84oXfe2tMs5CKvOqsz3/y1PaAIKREhDe/wHwDwAAjZkLdFT1mcC/O5NMQiCIop1BHgZMwfLIaOVhITODXTJVtrVgXWvFSY0QJUoB6QRdWgJMBhQmsFq3iFS3ZCIaKyggKs4Elg1LaxWQSVEwii2IcYJYLPKqtqf9ff87iff09LT1nMv33f/3ft7/RMtyiVt6Hf/szGJP8XKRJ5db8lnvqtGjvzZ26rdmTpn5vXujV133tXsmzfrm5G9LX7lYrEukvwyUvDxLxCV5Vv6kOdNrf1A9Oyoeq3CRiPSQXgr4z4A+st0lYomxI4Mlz5U/pequ6pKr/hF/X0UvsO5TQZcRHKKC18+OVs+bXTWr5NuzZ/1nyb9VzZ5f9UPxyD9Xs8rCgc+tR9yqy8KJ4vz51fNq7qyZXjWvZEbND+fOmV1zR82smhlVM0pmVJfMmDOdgKrlkphISQn8VywVecj1FWNfbqy+q3ZW1TyR4da/oiQPWV9cpDDfbdXLJwNiZSmfKy5ThrlrflPhzcPE7QX8I/niKRJriVxzR70vUg7Hlo/cMZfc7uAo8vQTKyYl0+A4AcfcmLseooOjn+dy8VxO0rosuUWpJSivC3sHimVBue5uJ8Xy1DWUDac+UHw7nBSXZ2HYu1AsN5QNnzopbs+P52c+ECsPJ04UOSl5noWV0XtVJi7vlTop+TmZfCinxzgpHk9dNDNQLA+UkZVOSoGn7spUifoWlx3LnJTCnG8FUB5sdFJ6eBYCxCp0deWyi1KkdgLqW0z+NN1J6ZnzrQeUm5qdlF6euuPJnmIVkYM7L3NSij11IteI1RPK0PuclN6eusroVWL1gnLRXiflAtU2Qj2Iy9N9nJQ+OQ+KoWwf7KRc2O11XGpvcFIuysn0hpL4vpPSN0dRmca5TsrFOUohlJeXOCmX5OxoFeY856R8KVcFlbEOOinenEyBa+nidy0nxdddha5+7aL0y8loJ0qBk3JprhMLoOy/1Unp362tXqbUOykDctq0CjvfdVIG5qqg/XZzPydlkMoMVA/isupaJ+WynAe9oMy/x0kpyVXuAij//VMnZbBnoS8StbVNed5JGWJr62FZf7M4XIuimTHuiw/UH/3VeffIO6/Z/40v1X3+0Tr3BZ7r8yR/nUd6sa90VeVJgRSKFFu9F1lssstlidw+JiZTvh6T+zfGZP8f6mXPyHo5f0O9zPx5vTR8Epc+fWHaWb1E5v4+JptW1suaQfUSj5KdV+vlxPG4lA2Jy6Sr43LrJBbIf8TlilhcUr+Iy7yDRjAmi2/lebZervTXy4ClaH0zLs9dHJc9QUbtFllkLbasJZbELKm3JG7JUkuWWfKAJQ9awtdjPa6/ZsnrlnuvJfvgcMmjLstjEYmu4x7Ss2sh2gt7uezcYHb2cmvi28X24r5U3we6BsllMtRCH2964tZ/+ORYMkwetWSA9Lb6LeGov3xZRkqZaymMnj7fEas2kx/qTPYMuXyRJ4MwiIulZCMcB3hCsErQIGHvymA6ezTAyUM2EvYetkldeuQ4nw1f5PFgQ9n4FrfITINEoqPQubPc3ZToCIjMDbRVPB3wp84H3JXRqYGwNxBUGIkuD5oDX2RrUDnC3jeDOZGzmBmBrryQ2xeZEYxEi0Miawx012Y2GiTs3RWszfRQjkOwekK1mU7M/inobqv4HMpHPC64MkEcKwz5Ii9BLQy1VfxXkIgKQw1lC4IuDcuBJINk5hjakkHUHkPDK0TeHvRF9gTdnckML+/xshP3OtXO87ycRu0aA93+1I8N0lbxXTg+DLobyr4aDHvfQeEgRH+pB0VBf2oLB0Vw/CzoUiSVjdmUpkQYZSXAS/VgLPYPByqjEQ43BXAopqzk63EDsb/RIOlsCs6fBrD/Kql5hly3IbJfD97FmXNEdhSzvqApXCRqaZ5doabEc5T8DB5GApjrANleHom+gXepCchuAxnfouYUyvvcFcLeJygP7aKIdoArEh1MJDkk7P046GqrGGYQbIzFP8FOJWkpCOFwPY4WU4vHDXSHvY0GaShrxj8ONKWdyeJQOruFSIpD1GULEZzU3G6C9SRpbOb5RLPfiF+nkFtjIPmJG8SfmokO6hP2Xo/sEdI5FvttylEKZRcvpXBt0mKXkqhcOECR//u7QSpfNwLFJgFF2/90IJUdEiKDrQapzTxBwodpY0bp8hGEq/CqroNxhsOfmmCLiEyE47SBBNUX/RNp2y/jIRxtFeNIxDjaViE6bGSE4TBWVETNqg6FcpYQOpNNtsOKpLOnggx6prwb6SYpIpY/lcU8USmSyg4Kke0sbTU8lMoWIf7VkFurm86Op3kqgMEQk1sD8vWQP/WggVR7jUGaEknUXqsHG8j0REQ2U4aQLpT1BDVSR7iRk1HM9ON0SpkmZjWyZQSlK4eDzuQcg/hTt1G+r2imJhNuKZ0ymTboF2JwJpOpnM9ArujsIrsZ2EXp7B0G4UODN6+Xc6ADviBQm1nPPvqLvYv8qYlmFzWUrbB3kT+1Fc+ehuNf2kWR6IsGCXv34kyh5u0Y/rqo8Kco/kMQDouXwyh1szF3Bcn6OyjcpQ39Ftl4i2h2w/qBtuuL5Os0h7l10laxyCCV0e8hzzoRGc1BO+UeBFer7ogiKM/iXRFKE/ZBU+JmnkE8Q1XH1aT4YwK7BQ+3BQiqDvkYB2sMxMNnDBL2voyetbo0/p+gNpOUfYgeDlCMg5jNw8I7cA7RCXfTGUPs6DSxTYnTUB/RHdWBkiJ6Zx8io8uRVa3jW9ScQtmWL1Y6O4+gprbQCOZb0NKUuEhNTcC7fdhtp0F/RiPiHVRqsJ8tOBUrg+wqNSVuILpVbMJZOtRbKddS7H9KcVeqU/2wvZqDEFxrNSl34vf/8LKMwBo1j+vI35OkXhf4U0H8+F+8a8aHX3GwQUu/D/ZNPPvow1TQpYgv0mJT2ioOIqsiHZrhzcidwdwjBqKsxiDpbJhDU7ZSWNsRuYTD14K07IME9Lbtuw5l2PtnghId5svxrIAhugHbRdr3C/BZN+RPDCShPzdI2LsZhT215VpxqIiD3+BhvnK8D4eu3d+j+GNN2R/heJtM/1F7QFeAIsyOBgO0kbaKRwMsuD0GwelX0V9NSreTvIu0C16Ad3G5P5UkmtR44nwYlVNbuqopFmRl0Z56zCDp7C+Azdp1LSD72X67yUlBVxqHEeQ+tE3uSnCDpu913F4OpZWDZVrPV/Cknpg2Apfoh7gRZYuhroZzoZYgAfsCDuJk7349uIuXqNHclLhbdYyCtQrb/dHxLe0JXWzj4SjiubTroJ1WGgHnRh2Db6oVus8OivC4wbJhHkKADdOZnGaQhrKhCGwvJ81HGKIf8KxH6Lzdu123nVR2hRZiKil5CXbdQQf14AgfmHP4OBTXzIa5jTiL2ZkPG4gXGwyiCUxl2TBNiT0c5DF2B1D8Z9VxGD9O8RwlgOP6jf/gCwQP9aul150cQrmFCf6QoHJIZ/LZAPv0qEGMPvYwC+IAMKCdsAd9reW1mTS52z2ByHXj6EzbqRCrKbEa7xhXX2STQfiwUYltKnyAOp8kXL06DtPCd2D5FkLu4ICVpYj2idr1RVp1KA7A0Q5HKw58qJtyE5TTHKw2EJH5BmkouxHYocUrg3oIsQGY3akHRcg+A4djMWrFfJEBWBse5HtQBscZ6nEjhLTepu4zrqsVhfIZ1db58acOaXv+kuD3qlwrrur8pzH5Oz3YyksnWpuB3FRSWb3dnMH2CgNZ7FUG4buJh8f1YCCOvId9hXu6Dlp4RnP4grb4vyPyDC8L8a5Jb6zNlP0x7eS9sD0E9bck9kcamdb+Zp5TsPa3D+gutuMxDhLayW9hVyjKDiIbUo729bCPbwl7lxoIx2iDsBjoR76WXM5hX0DZvssGyNeVXwAHc8IuAGmHcjXeMSciN6F9MebiBlK/pEFEthLylgATvZtUdaBoN455dcR3E8NovEvDeZ0GtRnkNg41ddX6lZwG9Udqrjc+L+P0TRSu1dqvwvZGFK7Cw9fsg9rMEdh3wUF3aBBhr5sJGY45Rka/nzpDWhCFxP+CQdoqXsckYxf2vo/CswRkl9tMul7xmNgd3Fty10C9BHUjZsT0aqAIGsaQllP4WUF7MJbp7M3YyGNw5xMAXuiSUqNNiacMJAu/NojeGczwdyb/AnIOlwpw7aAJniheQr4339sV9gEzaTjMilER3Tnp7DEgS0hTopXkEmMg1WgwiC9yP84xvTp8NHG5/thAV8C4rgOvsTDa+g0o/QLpzoAiYtE/0BgoRVRVJDqGg2H6lbuOdJ9EzT3kcJv69gCex9j5jQbiiu4w/QGzDxFGTudHZ1Bv61otkqY9PI0XhVhRROdYB8wMdjr7Oyp1iBf9XDD6/lQLyGn8aDSQPD9gkHT2bkQ/1INv4Gk7L2MgsGDUdd04CtWKbKTaXRcUylJtEG6qcLWWE1iW4O+luZrpuM90Q06l4+y9rj2VO3gRK80E95bmQq/PZ/FyJI5RWlVq13qNgYS+wyB8coBwVEbPYe4sDrm5yqNDG02VKjRWFFGzypHz4xw+3IuldkTxVJXartux2FFpypmwFw1if9a3a+7bce88kb1PVkbq2j0BchvPCYSxZyNPYUI5duik6VLWXfIqh9xYVammWq0oJO77DaJL1XDUZkblRAZAQIfuYVVqQ6woomZtDvxQEXVMdRhPVam6rlYUyjKX/uoqRaT57/yEM4jmykypA/lIL15XGITYykm7kOkZ6PToPWsZB8UkeL2BHLQaRHc9Nxb9Ep+A1WJ+z+PoCfVc/7zwJmG4+F5v1t/yLqYSD/RuB7QRfmVrh7yNtjcQ1PQf0aZ8mRdt28cMpCnjBtHfVZVRXIxEr0f2KLkcy0FGfS6FYyePRtwcNEtKb5BYEvKwlWbkGy9yJS7lEN1N7O5xBiGEiZBOoW4qD0uqKXEHHuQRxhJiY0mFvfa9Qy/BCmm6NwzSlDhOGuhTf8rFD5lzjHqRvaRqMxfSxS8R1oX2klKExWI4zJJSEV1S/tRxhpAlxU0QP/T7s9FAUvkTg4jE0MOS6kxOx+XWcv3Co0t1TARZyeofhx/sprB31BcICbAzAOQneVOiDFpC4yuDdguS13IwTGfoO/il15H7aLJtOhcriTzGwdMG4kqrQRrKDiDCktIto0uqMnoSl4ZrFs9DmYa8QqwookuqM3mSQ5aUP9VB6Q7xHKBaLCm9ymhx1YpC8rzSIPp1MEtKu12XlMZplpS6rktKoVoRvxZbf0hQWkUI1O51oI10kxSRB5gSf2odwkyAIrpLaQphsnJIN0kR5c7y4Rxl/7buRvQPUmRlMs6fo4Q3oadNl/v3OXiedTeXdCW1QIs5eBQnVhhIhz9sEP4yhUNrNZFrKe4TmHgCpesC3E/XQxk/gSLon3JSr3QmHyMBM9O00MMg2XRtZqmBKLvLIL7IJHTkl8MxGCU7y/UPFPxfHrWvfwbYhIdZnkKddTsakb8C(/figma)--&gt;&quot;&gt;&lt;/span&gt;&lt;span style=&quot;&quot;&gt;verificar disponibilidad de docente&lt;/span&gt;" style="rhombus;whiteSpace=wrap;html=1;" parent="1" vertex="1">
                    <mxGeometry x="77.5" y="260" width="115" height="110" as="geometry"/>
                </mxCell>
                <mxCell id="21" value="&lt;span data-metadata=&quot;&lt;!--(figmeta)eyJmaWxlS2V5IjoiYTQ0OTZRTWhQaFlxdDFIOWtEbExKTyIsInBhc3RlSUQiOjE5NTE0NDc4NiwiZGF0YVR5cGUiOiJzY2VuZSJ9Cg==(/figmeta)--&gt;&quot;&gt;&lt;/span&gt;&lt;span data-buffer=&quot;&lt;!--(figma)ZmlnLWtpd2kZAAAATjoAALWdeZhsSVXgI25m1vLqLb3v7Ptq7zQ7udyqzPdy67yZVd0tdpJVeetV8rIyk7xZ7/VrN0RERERERERERERERERERERERERERERERARkGMdhHMdxGEed+Z2IuDdv1nvNzD/T39cvTpw4cSLixIkTJ05E3vo3XQujqHc6bJ+fhEpddrJRqXeDdr7VVvxXb5T8brGcr2/4AVndCfxWKu8Zar9eAs4ElY16vgqUDdp3V32AnAG6gS+8lgyt4dwNTlWa3ZZfbeSl5nK90a6s390Nyo1OtdTtNDda+ZLUX3Fgt9SoS341zrf89ZYflEEdCYp+3e+Cbpa7d3b81t0g19LIlt+sCvJoqbK+TnqsWK349Xa30KL1Yj6Qvh1P9e1ko9NiHL707ETQbvn5mi0hf4nL2xFfmr9vECGEu4CVNKHzOzsIExRUpW6jbhpWJrPVqrRlDLo+7ofNvV4UQlakqG1agqjW2DSg3hqM+oPR6dbBUGjqjfo9fqtBgWqUTLlwsLP1MAp9UKrUKHZqjApQF/P1zXwA5G20Gp0mQGa9la8JXbbQaFT9fL3baPqtfLvSqIPMbfrFdqMFtCTjJF2uVgzbFb9arTQDAVdbEDHtZl6PtPyNTjXf6jYb1bs3DJM1mqqX/BLintMdbft3SZeOBdVKURDHg7trhYboyIlKncbqBotUK8VTIqpLg3K+6Xe3Ku1y19W9rNio1+FpOnh5UfSxUG0UT5G7YqtS2jC6dSW8ajLSq2p+qZIHuLpc2ShX+V+KrwlgYAd7rQO7CLtVzUuj123lg3Kl26Zlctdv5luVfMH0/4a2Ax5kgG4ReZB7cEziNPshDM/o60ODvd4k3BrM9trhfTM7RdcFd3byLZ9SRW0nTU0naw2jRF4bXiIv9J5sJsmWGlvS4ezFBJtr5lv5apUFhI7Xui03zqVFdNVfF+yyX9/olvIMIW8aX5E8S6UjmVXJrFcM1yMGblRLvsh6rc3y8e9pVKSXR5stv+SvoxalbrPVKPqBKNgx5OZXpfx4rIDdoOL6eCJB1TrVdqVpkJfU8vVOvtqt1Jsd6dulZf+uvNWgy4plf7NlwMubVHPoKxoM24Iyy9Kzq5rVjjR/db7VamzFw7zG5mJZXFsYhqN+jaUi/PJB0G2XEeWGGA3MWqtmTJUu5VunfGHuuV6KRmRE/1HvApaAbLbYqDaSXM5olamzFLCADWRWDDVKDTSS/IqtEmdX59p2JGist7uGB7m1cr5VSnLGRPkt3y6LY/5dRQaKspI5XjbTdSLItzvJyr3EtAJwabVTq9QbQaUtTVzW7A1GTv1WggbKCVKhEqUKcqU16SoYnaAkNfLAZAAKClWTJQ4uk+AgclqbrdTyZmQ5zNbJCsDSJmtArNRyZZ/dJNjpDUMrfbaDlt8uGsGvV2ScGoUzrbWt4mX83d1wx/U4W2G9t9gM8qwAClWp1WjOs3q9gfVhJuslDEFHOugV8sVTi6iMLMCiMbJLDVSigkUHrTpNDB+prja2DEAX2rYPARpR7RbzTVGt7DzHimgVjWHOCdNSuDOe9maD8Yg6sfmlZeYXuQJrhls55c+1zauGPbHn7elgn1xcB97dsu9mXtcP9rfDaWc0mEXwbeVlqKpZucuvBgCaXrOlCaVXHI+i2XQ+w8vMPHgl5WZIupaXHcmjH07smaDIhgaQXYdjqWtr5FzGUC8Fs+n4TJgfDk6PqJAwU9hpJhZANzptB3qWuNiboJHxeBiuUQ2dGDzPrkiRiwwiY7P+nZ1KlV0PSwUy63RKbJDdc3OID+XDAiaopbQxX56b6+5N5FdS+ZvJr6byt5A/ksrfSn4tlb+N/NFU/nbyx4qVVjHd+nE72pPjgUimxjbeAqsK/qYvI9DxwL3CeDwMe6PGJIwVJNup25WKGKkmew+wDjoFjKuBvbvMAjb6aoRfHk8H949Hs96Q6s60peYWXTZS8E522DXXK6aH89qb4XQ2YOkJrtGkKFW10Gi3GzUgrzY+iMLiwTQaT5EPdj2P7aNAFVuNgJVWaQFr/25flh6qR87D5zNNNfMMBVtYRMXJZzHVJDmSYqUKtFQTiypVlpli3EWglWT+THZ1k8U+ntYG06l0IFlFZtZJtQGwQFhGtqS2qLBX6kV71p54RbZRUGqu4NrYHLsess36Bih1sulLqoNNSbxmSZy/jH/fZDydHV5DGZwMTDq7l1soKkbgYpj2dYxIlqxX7Z0fH8w2poO+ZZK1yyol8XkHPbvKMvM6zd5sFk5HFEFVaZoVgo02tlqb+TyYjVthNLgf1omITHeMZJJ+6ATypFp7ejDacernlSqB+CnCU+GzsjUD6GB2fhgGoRs7U9cKGs4+tvFuSXQR7bK6gqONr1AvysaSafu1ZqOVN052NmaDMGdhIskL9htAHe8WGI7ezhk7jcmYyhjoe5Cu6YFmo8QbNLClNnpNcxdI14rUK6BkYmKAM6ZCcXxAh6au3tID1UPsbnIy+U5bdq5silXOsDp5EM0Gu+cpekAuzXzR72IKrK9vexDYSTP2FSS+fVC5x++2GxgVI48FBDrGnFZqTZxkclICjR18cxwNZC7ZPkC5fqp8ASl37HHCkG1NxRSztXDMyDdBK5fa4rRE3GxBHXOzQyj47S3ry2hIRqxQmrVzuhLPFCvfl7NRV46F5HWnZeapwP5LmilWG8bDzOIXd2MnmXyu08T/9LvGOe+2OvV2xRxHllhUpYo4M2a+lyt0bdpLtXwcR53Vbrir/Dqtd6UqOxF5XWtwHMWVBPYsbAsy1CqLxwWctQX4DkKWsznjaS9BhVdrHFlOoGaEK6VWfoN0lbJT/t1xtSNkNxv2CLMGbMdRNnN5NMmzwMgfa097IztpdgzXsYPiuLe7mHz2UhktZIqlySRu+oB6nTMtqWfOEd31ViPx3TMpVGz6symcNfK5FCax8kvNTlC2OMdseY6Jea3MUZbV6hyRcDoiJ1OLc5zW5piY09E5ynI6NkcknI7bjjJNEMXMTiwgY36XLGAty0sXcAnXy0xLDuuYXp7GxTyvSCMtyyvTqITjVdirSrErZeSuxhkkMJCvY8bMorsGv7+BezjHXOv3ItaonfHjxBKKnUKlSIES1nFG46Onsp7YGutiU0MWUVKUFboFTM7WXcAtWTOd5JeDZsva+JUNDBV7aIJYdaQJ4oiFzBJgtVr9X1tEtrfEQBw9hCxz5gF9LNiZjofD0mBqbQWddqvom1h0JGwsrq2LoZnJeg/7mKlZSLl/V5PNzVrNIhzESzI5vdFhW9FeRHyFxoCXlR6OcXUM6BXHQ3wJnZ2qVaVP84+3zT+ZHv9krbtB5fvI6fP847VAQT1HnOOfzB7/ZA2nYDaeUGFHYPU8pSfODkPg1Xqz6eA+pZf2b7yRvN6/8SYSb//Gm0ky+zcJMrt/kyBz+zcJcqnZm2JzK6N+SD3v9MGgr+5NMV1TnvX/KTzbGx6E1NEH5ixwg/LWkVK9tx8qndnt7Q+G56HXkWy+AB5MZtHOdDCZkcsI7WZvOuhR5WA/nA521genD6aIlu3WnXkVasd8AmjO+iZEB2yaWawaTHo7KPVCXQ7/eABixExeE1Vwx8SLMFiXyZUBpjlgKjnOGxgHCXU285uuXexNIpR5XoX1Z86LmqQbZ7ymz9lNup4B0U1y4nMT1hMwB4rBbgAupfg3Y7mnu4VPzr+45rhDAKY/gREyk5NQVdBps9Q0Xr4x8Othb2YE/Le6yZGOIlW8uWlIXC+8YjMQfEZ6Q2o6SJpzYb0lQibimy43WqU66Up+vSXlq6W6MUZH6p2adGkND1pCW0fZEWVIx0o2PS6uNekJTqCSXpLPG2/+0qJNL+M4I+nlgc1f0do0gYwrZWGSXhVsmVDq1cVgS9JrmBzBX1ssmpjadYF1k64vV0yw9AbnoTyo0apL/x4sQiF9CPubTOVDS21zaH3YejUv43h4baMlG/gjAnSN9JEcD6T9R63jzZI+umzTx5Rtu49t2/zj7rTp45s2fYIceUifWF0vSP5JjaZJn9xqm/Rbmrb+jc1TdZHTTVXMB+nNpNLPW1rtquRvJZX8bflCa5P09nxhU/JPIZV+37Fp+Tx1kw6RPq1Q3ZL5eTqp0D2DVOiemT9VlnE8q3jSHOWeXVw3C+E5xabJ54udltAV2OolX8S4SVpat/x9wmnSn3XSm0k3SG8hLdOstFchFf4ny3Y8tLYh/amWGydFb3BJjQdSr+BIkDZONp9yB2nzZPMO4XPnyeZTbyRtnWzeeCtpUD1Zk3ptwqdC32FXk3nZFPeFdItU+nFX7VRN8HfXq8bxuqfeOdUm/VY2AOnXc0kD0m/bROCk9zaDtuC7pIJ/XutUS/K9VrMs6XarU5B53wlwcUn7bduPsF03h41dpknm7/QmsS3SvU1bPti0437+5imjL2c2W+0W6ZD0ZtL9IMDyKjUilfyY9BbSCemtpC8gvY10Sno7aUT6FNIZqcjpgPSppGeDAJut1DlS4XcfqfA7Tyr87icVft9OKvy+g1T4fSep8PsuUuH33aTC74U6CG4Wht+ji5umhy8SQFh+rwDC88UCCNPvE0C4vkQAYfv9AgjflwogjH9AAOH8MgDT1R8UQDi/XADh/EMCCOdXCCCcf1gA4fxKAYTzjwggnF8lgHD+UQGE86sBTJ9/TADh/BoBhPOPCyCcXyuAcP4JAYTz6wQQzj8pgHB+vQDC+acEEM5vALhFOP+0AML5jQII558RQDi/SQDh/LMCCOc3CyCcf04A4fwWAYTzzwsgnN8KcKtw/gUBhPPbBBDOvyiAcH67AML5lwQQzu8QQDj/sgDC+Z0CCOdfEUA4vwvgNuH8qwII53cLIJx/TQDh/B4BhPOvCyCc3yuAcP4NAYTz+wQQzr8pgHB+P8Dtwvm3BBDOHxBAOP+2AML5gwII598RQDh/SADh/LsCCOcPCyCcf08A4fwRgKcI598XQDh/VADh/AcCCOePCSCc/1AA4fxxAYTzHwkgnD8hgHD+YwGE8ycB7hDOfyKAcP6UAML5TwUQzp8WQDj/mQDC+TMCCOc/F0A4f1YA4fwXAgjnzwEYE/WXAgjnzwsgnP9KAOH8BQGE818LIJy/KIBw/hsBhPOXBBDOXxZAOH9FHw704FrN2K7VrUrHLpYnPmWtN5mIk6O93el4X9yy2Zh/vcJwvK203j4/CyOV0TbCpLwMN3d7kh+JR4b/1e/NeoZ2WWU2B/1wrDwvpolu6UyHQrQ+GHKyLYo3me8/n6CC0isz6RR+XrTX64/PRYDe3uD0Hmf0Pfw+PMl+OOsNhkDZkLFE4mTgUZ7lDB8SOgJemoX7JtZoi5bPDrY5e+4IvGKuAGyz7n5XeUf+/za5g8c07TG2VbW6PRWeI1omd8R0RnlXmQm4ROkdEYR6nvLG4mHOxAHPnB1Eg228La2yJO7m5rjKRXjikdrVS/AeRbvj6b7aU8sDMxsv1mrFQO093OeRdB3Uam8EkkNFRYoEc4nF4PLhkTJty+pS8ulLisvUEYvZGx8M+0XpX603AkF/rpqOOZ1QmW6uRVIF4Oiuka2hdFP6Uq2OTWSk66YIa62Oh/vj5w+KtNAkeoyMl/WJs0ZJXqLVZUR6Tw9GnGCk5a1Bf8bA1OUL2HIocgR9xY60hAOrvpBRV4pzWmOuSiif8nJnwvNqpPQu2OpgFFdidgVTGpwO6V2G0wM569Ler7KS2bKEOa4CyMF8YMfpZXrcbLd7p2lYC1gXqaHH8coxAWfb+GU7ez1x88NpBIVOcqahSkmG7EUCN86GU+KeYbvH/KpXejozNMFQEyzbZta5rRnS+4iNRudOD89P9iJ2GL3UT25cIvYXvbzNse/MCw7GsjDfoPUlls0mHYCEHq/sMphEOq/QenW3NxxuEwdbpyBSI31kD0Wc0tiZwvg+uLxa6zVyQH/n6aOzJILKqXTqTm05dczhw34i3+PD8WmJthuS9rgYj72xuxuFMyyLWtUn9gdxzC2pd+k+Ofjb1l+j9WXlVIeUl90mYNePVJ9ToDUg7siY2Yvp8IhzBLcSPmjBvFI07zdHYxZTDGcG0WZvCCtW2b6tewrdWVa5gpO+8lZY+PZ4hP07Z7QSTZKyuwEyAiQDyUouH+3AitwydmI8Daup6y7Mwu5gGs0S0UhbdCidX9qQuVbe8s54f7/HEArWnM7Px9vKqhCDZgy7SNMoDe1fyLzXP+sM0tKFi2+5lOgSZnpKEAB5YacT5mL2nXKxCs6625QCyw6ZGXStN2WSnKTT3bJRBqNzUlMy9XB2bgy5Gw/C2Uf69xPu4J9kVBcuDNmXuB9AJlomPlL3ah2c398eDx37yGRol+3KwjGTSBh4xA7EUgb0PVxHNFhbpi5mi2KaLc/z0AQ4TMDhg3HORVYb4UjsOxJybY3TnPVBFK4z5xuypzKO8yMTIdDsg4Pd3cZoeL6F1M/2hoY6UyIKcFYM8f7BTEZnzK/l6y3yJeOWr5ePWDytcBeaMygnRiUuZCEEmGJaHx9MKog/Xhe6F9d5uxYapFp54GIjsMoDlhs7SGcR7/+FIghnD0wUoJUiIWkMXEgECLX0VncHw/CUHVdkCmGBv+HGWO7hOhDIEZZN5sXNVYT/q7OxM5IbDth2p+dlQtvj4GBbAkDbkAlCvRCbyVKajEcsS9vS8sFodygXTnKRkGa5Mog6cVGIiqtV2+1iXL/Wi1hYdsoyOzHWctWTg+3hINqDmTQs3W2P22FvvzrvnjTiHW4kU8Erk1XaYNSiA8FMhj3XNWHV2A3O0VO0xxGLiuI6LHRhUYsuznfz5v8nziz83jBIzUhcxbK2TxQwj8aJuUJ6woZsnBhj7VnOmSmG70A8nuzcm8mRJN7MUjSZhr0+FMvR3vgcssYPK4RIsC9rD/KVtrg5xuxVRrviTJr2NpXuH9hlSWWviUsyloJSeHawE198xuFXOZ+by1ldJGJiYkiewRGRlcgdeVamVGzFng1r31UuFre6xifXhxphW5IMRw8U19kvRsPQK33mY7A7wACjudSyPD/CJtNAhuzPTWfJ28JArSS3aIogfByx1wInJZ7k4rh9hrAx44gpsy6bEOccIqbnDrreMbGJZdeBArv/aayGbIXoMyaR3tBKMmq5uSIIbm+b5D7APXXQFzCwY0hqEnuplLrxQ5wLyfMoGtuTaJnnbSdow+UTiHKOKsYKVe/hcRsZGiqVq+c3Cf2Z6KbiSsK9JNLBlok3epLKE0VDkHF3E+ZuL+vjxsspCM5Mp5geKOKHWRCooLVh4p7EqJqw7TZv6W7eCsKzNQP8fpZ3xOEhOtjdJezNsh+IZ2q6xsrawS2byW4wU9+lMtHZ02IrjL/I9JPlhCWa/VlWArnGwUxcBnEfKcdMMRtszbJxkF+GYn083WHdyosLbM+ZCPQKm05+OxoPD2ah23oxVDvpQX1aqyOux5sbrknlVda7dd931wn56lb+7gBAV43DKJfwmOOZjON2bDdurvKww8nKzYwO9gPWPPMQKZwtt845EEUWG8gqwM84fYBlm7ocXgz9YhpXJmLwuOG/Q61uYM2Zf+NW04hOWMVbR6aJXYLgHJYAeZunnysKG7PgEVl/AeuEuxEI2JbOS6Tc6qI8WSEhrN5qnBKM5x5RZvz1dfv2JEsQstESKOceGyxhhbD4hl9qn7JtWSsbb8Buc4q3NiFgjhikzDm9jwTjqkTMRbzsyXsyTbbIXf5g9tBzRAXCqKzMDUPgzry7VfZZiuVKtdRtrHdtMXF8bhPtO1ZGyDK925VIRS8/3Ul6gfeLEPOj00iR4y72N5X1BtxuT1uxqc5Yk1/Fp6buwXRAD3V/EE2GvfNGjdfEtzFZo7X0vzk84ITmWpuYDJKkGn4PxyMqnLEDbZqyVjjscXLYsxWyE4O0FfY5ILOWAFlHZqoBcdJL4TDkoIESZmsHw9lAWg+n64Nw2N+0U8EE7bAUkD3KoNO3YlyFMUDx+Wo9Oben9MPd+IulJfGcOc1Y6wmUjQ1oLjGtSwk3f9SfiB/NmEMHyp5Fm3g+k3imt7kIs83+IysoqQzAkh42pRZdT5HbhUc1SCytiDkAknJu2yqlEheZ3M5i4YziEviOUfbKPX6wYKvWBrZzNBOBFC7fwM7Ol1xCzZxjaVBZmvGrhcaWNRSsnryTg3aeTG18NnTb8XjYP2VmF7cZ1V9P1NpL0ZYHhC2m5ytES6gSjQ+waUZYfRGWzRcPeTLssuFwzPFO9IXJp3dnUJdRUm133tSQMqecciA70zGnxOzWoH86ZNUxevTC48AR1/X7Aw6EMoDsbIDWzXr7k0o0vuN24tMMBQM7hVA4MyghDvt5CTtkdvBX4kxWChCyMTpeyZcH/whJbZW5eSs08i0Rn8YinLEkmXy1WZYIvlyCs359IG1eqrqH317APDBBAR4Di5GdzylqocPSJ9ULBHYAOjIZ9XJPmZfwnP5GLCHvy7EtNWcmG7y4bbLXi0K1pDwDWOTtE6xXfBv7fJVJZS3BU2bS/SPK+DsWdcfISjsnqUU9dRA1rf8rRwGW6js0viKO+ER6DO0HvOFcI0zf/12rF6aRTk1A6p9wNuO3rd1lVS2rmxxo2wsHUTDenTnTEEgRjb5TE50ZjzqTPtPkOvIr4NYHw2FM81Pk7Y4aY34GIQK1GZ/6oibsbrKlhe7/dmz1gX9RM8qLmPyvaI46qaL5/vElTcj90B7wQW/8fJzb4AAlZ2KnoTEgxqoJp79gvZ6tjcej4YAw1vB83MLnsdh7HCQlrmbHhHTuJfTj0KmhmYI3xQViDebon4/Rzk9ICt6aFBgXf17wC3GBuApz9NtidKo/eC22G5T/ho4Msg9SSJgj9XE3rYKzhHHJH6VKpMOC+0QKZzsl2D9OYaVHgvtkyqVs9lj3rAutf0dftIeFhJRefsgoBUqzAWaitPobuh1ncauYo9n5TdnQGtM+iqC+6umvx3Nttsz5ZL9Xq/vhZrCLa+LbgZIK6YPnd6QLNuFvVeS7LDqxjSlde58mMBgZ+kVFfaU+iE+XcE838mZColjazgMUfyU+wCImWdyfifNmmv9cvC/bi1NmaX4WiRVvZlB/EdOFyW68xl2GDdwWFyv965yLCLUU7kbqo55+Gbt3Co0oI/UhT/+g5wYoA36zVi+YZ60RkKmQiEqQ4OVw+p3YEjmqcg6zBWYAP7zYdB4X4fRIon6R+oinX87hjch6fhoWDraZLHE2fiU58wZycOa2Sn9DL6A4S39A638xJta4rG/SahxnbBcncYWqbGgqp37HhKGde3xlDFviCsa3d3ram+yJ/WXTXlVXHUJZwpMJNn6VsqquPoyzpKdmLKM8lxrpt9SPVQ+9CNpWaCclmyi9BPzU49XDLkBa4o7gi2wm6ir18Bi2RZuSTUUYr1GPWMRYsi127DiESsfmOVv8XJFQnW2GkP7jYtgWfZthJ5P+Kq0eH2ds2b1CagJTI857+/vjUVUOkQec0JnZ714oxT24b3bQw+mdU7yQtZKQlAYssFC6zE6VpvqeNJXdvkQ0aZIXpUmwHXKXAfp70+gAN4PVc084HVP04nRR3T0dss+WJlyQX1jopltNuUa5sJQgo3Ea1Iy79FRxUZ4VneWaJoVLdqf7uGVnY8XYxMyH3D0bymSJfwyKHuOxoe3rWLDiepBv4t4jT8NIqz+J0VXkQ/5P8YjvqzLLcor8azY50zuWk/NivriIMp7CKzz1ZU9mqYNnVjXn1bgfy9zezsanOcz0G6NGex3/DElF6jv0HyV4QrHpgk/o5N5AvTjDTapYAeH1koz6tFmdRhyCItil9YtN04VBfzBv9McNrm3vQAT1DPVaBhqVe/1Wu9qmjKG+OXV8XnKgVc+nEV47Y4zMsoUs+unzG8AVB9qCZ1AzCZutJhlb+MwIA8KZYU1Si3o2MYjkepArHJexhc/po25YKGZ3xJXMsVTWEuT3cVrp2yWSWlRJwErUsAELyi5bQFiidcEZL+plnvqt1F7csGNhWJdfgLRVNzAK6XMoF3zzvCUpR8ZTcLd0q+q6dN6S1C3K2Cn1UPWgVNYS3Gkx6L56uHpwkrGFLZs3v2x5pHrIPGeLg13ch7lX8eh51pbfYytYlFA8Jo2wNN8aGv8lUh/U+gkOtiXduWCKLmRy8yGUJdyVdjfC8X44w1f+gta3pBGW5rRtOUYK1a2LKEu3J3c+rE7UcjyphrsYw7nUEfGP6DRBSwR9iOJVc4rCeDYb71+Ey48eprkYo1fPieYlA9nzJig7CxSd+7HDNO0xmzulc5LXaNnHcWhZkxGmnVEjfrPSflzOdfntQ4GzF3nbY3EjGF/ZuAzgftrhbG8T9BsdWoaYIH/GIc2YEuybHJbJxRdH0WXJvMUhacoqLcP+eYezTSXotzq0NJUgf8EhTVMJ9m0OG5j5tWisZloov+jtsTHZPT6RyUw9WN1wMbxVjWYkP5UQI6MKCsvtMrbw+SYv48Ku04cz6bwlGRpUs9eXHQKS/XTektAgqCIzgekxi1Stq/sM8uSB/aVJWZ03eVtaUp/UJltOuu0Y0sCf2CJMtHFP5gWfsgVEA3DQTqo/tVnrY5D/tM032cTY3YPB/VLrpPrbBbRpv0L8IqJLX7VF6Y7bopL6D65obzDsu6ob07G8pv6aLXHdMlMI9j8uYK0SgP47izZsDP8gHO4inL+3+Hibpoqqqh/iIASyhX85jcJ7ZOrvY9J/2KLNb2Hq6ndtzvXZzRQtfdjjQp5Bh+prGfV7sjXHmY8s1DC9QEc4NsxUU/05l1jBCN3e6O2zlnpTWWCf9VAgd1sjR1njdv+gLEh7cRJIJDIpePm8oEA7p+d2DtP3Q3rOyngAH9LqJ1K4NrW4BXpdClWaXwj9pA57ye8P7lKvT1E1cQHC6dkwMEFXOv1rHAtMAIxCQ99S70mh5Cc9a+rX530lLiW3Px/VHPNYLPHlSZsi1Va/mWqqTWRpfCCz/P40Za1Hhv+NTfotTSYuSY3gAxI8IWpr8uyyTO2wJ3cCH0w1EJjXOQFKNsubFz1iZP543tXKnHWk/snTX5oXmalAQiY4pv7dU/9T20CseNComf64y0v0DR/HRmu/rvVfxrKRgzs81D9pQpsJzucwDea/zTFVRmrO3Jz9KErwpjZbL/vwf59jqW9x/zzHFdE6Jst0NaJA/9u8TBytJML5L1r9b82J+dA3B46q/2qxHWbeLftV9T+QsDk7XuQ2/m2a2NQDFm+yzBCp+getPuWNUOdDbwTeqinaAc81xc6ZKtvVgQS1v+ip7/WG+Jyo4NlBeM7QvjyjXuOZzjlXEgdVq9fFLnCRobPgomRf+Uk8yn44bqIM2ywa9SpPvV3W6f7EsHtZRv2Sd86EPeUtAgdjfOgQfupHUuii/anrMrUtsmSHys35bBrGv4R9rad+1JUXezscT/IwjJC5erGnXu1KKqPJwSy5uviMp37KFcjOTKCetfMGhymPz2J4jCa8xlM/iwHZMvgAc31GBMzwfs7R1sJZry8D+qynXuJw/lmRBA66/n6HabLTY+3P18LRgTXAX/D0D3hmtlrjc7GVjNhN1bstGvtysD9aKPk1W0IFqxsRElXvsUhLviU7h0H/OrE31hRHOH90sL8u+seZ5kue+l92HVNQottxwVc89T1ENjCgCPuIAezO96ye+TXrCI1i1MfnOVtckLm1BtEfST/EVJy4AGmJi6EJ4MWq0rB3h5deiLXkfsTCq7B8puY5DCvhmkWMJavuDxhPdUACybUkLmeLazNZXRiXMxgRCK5P5y1JYxsVWPj996PVIw/jLOldaAZakHZCcE4edSHWkt/NgbJP4NX8YJr21JPVEw+hLOHzrBACDrLgIiJa+kmLKEvHGiG4YSYhkt3vaerJixhLts2qw6BLsDEiwKW/JZW3FDv2oZPogHqjVjfOs7a8vytGpMYpiZCCmUOlVXQB0hKzFk3b43XmQCs5vMZZS3DWjqWA1K1exPWhPidRKIzJ57V+mUZyRjdFCyh7hY7M7jf/rdo96qexWOJRB/vj8WwP0TCpb3R0nJ8j7oq21Vu0bbEtwom4WhYAhr/sCJko5mnHxOORqXquehdsExy9h8mvcnNzHzFN8W2m4ag0EIsmTyXe7bgk5uSrmihnz11kfk2r341tso3qCbpqZmDTWeSc+rAeUZfoC1lj/D+l1e+ZmN3w0LOLj2n1kbhANrkZjGMCevn7cdlcuhWRIiMRgo9rPIALKPLzxw2f1OoPDAHKYa6p7lV/ZmTRYz+cEvMXObprCfHb82x8ZgLE/n/eunlFeNIkcpP5OKn+as5Abg2EwwMw+II+E54nLHP6NJJ9UYZLjbNjvBZfTGhzb0qIDnl/WUtPxaJz+N8rhLvjKd4NUR8Z4L36P7nocpUtK8Ij1f9Zz5huieKI5NXXPPVfmBA6utcg9sw6paPskmPsIiEtYDryfex40Wzubr7UC/e3w75h8NIMcR0CVHu1sD+wr1M/kSF+i1IwzzLLdM9pEjvYj3nRYH8y5FQQv1Nq9kbhUIb7eq+3w0hMfKXcrlVlefxdRr3DkzBOC4uj/j6jfjlFVO1tE4tdU+/0zgoJGNP8FzLqXQmmiNU52Gdk4rJN2MbUryZlchIqnA/YqCh5s6fen5QIjsJIfTGj35vG4vO+R6vfSFCtkIMoumyU8VMZ9b6kRLpibhoi9aWM+s0E32aWR3VMBR3/QoINdsYTKL+a0X/j4WaM+r1Yi6Vv7/TU7zt0vKcK+j0eUff9AcFiIQwQMWfwr2fUH7Arp27VEO3HPCaHbR4X/CWe+kN2Mxx0Nt5duSP4p4z6M8+qABNltKXSZ83jCOzI8m7Z+ODcznwjoz7H/BqsPaesqb/0+uMdQpVEJNO8/zmj/grexMwZX/oSOOLIrr/kbbKu5n6Ql+lhrCdk6bPep8+96lh+s8r9O6d9GUmmJti87Yhalec9XKmqZr4TyCWrbjc25DMbgu/GSK9mPyuQ6dQdlHVkku0m2Jz5gtt6o7Vlb32XTL6QL55yiGWDMM8NVnAncF5S7pC3xIg5sA7YqDkWaVa/rOg5Iv3DgN7U3JXZQvSKkWXBBakqFpsbRA1bzeaXbLslZ0IXfD0u5WVlcNSQi1bMjDE8gF7qvYUojqeZp+kAhXu9p/VioU/JeVhhepjW+euPTaepJad8cx5vhMehUp8imGTEr7ZXofTnbIpGFmmi/JbiTZ7KbC5g1A21ShBUzE9dVbHRki8otfKlSicgr+WzYBst+RiefOvBUnlzZKVe8s1rsExgHg51t+IvimSDNlOaqpWziGa+JB8TiR/kyXfjUlj7vGR5ERk/LVlZRCdvT1Y3K0GlUBXlOiKvlswXy8isbXEBLj8/PZp85+RY8ik0acp0ont4zMcXaUzrFxCdmBPZflyc1yUXkF2c3aWFRqsEQhpMRHiZQ7qaCf5yhzctJtgrHNY2kKCvNB/TqLe78vNrv9Wu+NLeVVaUxUZHHuukZunqWqXejeV2TS1/V5K5VkoSQV4nRUnu+lilxJ4nxn6uvG9JKW+axKccDU50FCyrCtufqLFQg7pXeW3JcvLA8nHOSBvueTtvo50HpPMhksYGfdjNnx2x6haryHYMeYrtOy5g62h8COYsI5CYHS9v9pCmawCyFKt3weqCcp/COZuJK5CeWdIKBzaz98kzF/O2VMUfMnTM0hvWvLH3Jo2lyn0K540Jkv00bimmw86Oemb31DNp+N1QcPLBJtbjCcnMiNlwFmK3e7+nsmfHM4IoZD7gqdz+QTTYMbkPemrJsm4n5J6eCVwNR6eJMmKzLMFmzMHDA5vhU2BY56W1hCUGeMyWWJLORXRq1oZbLYLU4/ZyfmvNzbjyciP6aw0drPrhLvVQpvvH+9uDcN39uKduh5rZSVevJxU/zPDSD+tyxYvTqezcEKm0IdLy8rZVKWEru4H5jGWXbjCblXrZb1XaXXl92Q3kcwq2ILPQwvz6nbHHQ2CFyJ7xMSZmgbgko16xkzuy4+IgjkL1hptxjQz72Pz+ck1luQ2fV69I3ZyZ9o8ze+mRL0+m8nIDh9PwitQnPLWy0LzBsyfJ4dXCLGbxhW3mVdq+W7U5lGihclvalDfa5kfpRoQkOn4hjbgwW/Wi35VnyyAWazcP9Q09YRmMTrvsmtYD5wzLG36H/aSnvUoKvcgEHjPp06c8JacERPVNiNtCyWw0as1G3e6Kiv7i+8gHBqW/2roVvhwt2BDtF4Xch4KUeT5OqmXYXb+EWtg3il6+jbEu+yU0BBL5MFLQtR/SlWJ23g6mXFrqpPHuSd9i1Ell3NedVLvVqRfzbR9Qm+9Xuld2nq02NwQLz1QtvMnJCc0xKBdfqltVy2yZnEwHAYkk2mRFs5wvut8QqMAXH8J+mXU+v/LNOCeOjEF2A7/KBmpKnTcJlKOrIinnpaUbI/aP+zyeyikL1fbwBg1A12doJB4YoBtiup50kmUzcSg3mnSdARRmGJ9j/Qx2DM+s5U7kwNO5yDTNDbrBUcrKadtLddbAMteHuyBZLWx/C8FOdUn77qYfFFsV840HVWzKBGn36QOvGMiGnTmZ38wnNFk5uZHmTgZGnkvGG7tTUMvNu9tlg1zZEBd6NTDoI8FWxThca6ca8qAS6GirEwjmWCFvPuJxHHdePtNlFt2Jini1xEH8VPAOQ2bfVsaFJTQkLsSqkxhLmCe6IJ8Pe8AnYUzMxCGRiTVlskK9NpaiyilYGCsvOwREy+C2fTDECJkJ+HtM3oADEcd7kXT8Vkhes4b1A47MU3JZy2lk/WBvZQhoan+dpXyR2l4/Pnj1hhwD1D8wy4soGTPL9h/ZDPrjcyPOg/KwiTMJ9jKncmhERG/D0c75OXZJBoAgpjMXF8qpZXlgOY1M3xq7VcrRjpXCfHgqa/w4s4ZVpz7P6MTZxgvoVu2XQTLCx9bLmfkDp1ydmEYnXGKMZ9yHOzsNs/4zZT9PMVC2tDBkCKvmuxmqZT4/oxeLnUSwiTX7ATpIlH9XAs9/BiSUcTjIyw1kg9EInsr/zGTagkj9q6cXH7BHzBFulvyYeh9iZ3YQYi7h7Bsu3vJg3kIbNNdLzHKCWrhHQnmSgtQ1UgYD356HgXBoLogC5YjOMctSQXwOomnUW9qXs3KZQCMo8stJ3zadD9s2jhMLhIG/m+2wOB4RJ4BJb5g3vZC9qucghMCZ0hGYA1zCL29IlHfdvBvifLBAEOcc14aU+z5vjkmPcuG2Lzunkd7bAaVGedFbM/npjdwoUW7YtOSHKzHG3gGuyIGds64JRXCETnyNbbV6YdDxyLxBdlQunlJXjmu2v+tc+Ei5WtVHWdjTniVwq2pbHZsZGccSNyI5vojbFCOjPp1RJ8yEOWG+2lOXwM4136L1mY2WxD3megBDNepMh5VRPTzHMQDUZYus1Tc8dfkiypgdZu8K01hwZjBpj0XEyPfKBFU4n983Xu6qugoR2jnnZiajr06ycx35F09fc6irVgqpvl57iKASq/rZMPGVJAp4XaJUAf2W8H7TXAsSTHBbH3G51EPZ+c8u2OPdKilxNbcTYndO+XfHT/gxWKfq7OCcLOsEBKpVY1b0XYXGXV2cImCvGdxKkmE/ahfLciollz01X3smKCK7ZKRyGrU2WNfWC1kOZTpt36N53oH58YJ5UsqEezVGJ330siav920+7MttZqUPqZegCucTZGaXINop495lffYPG3L1jjru0XSnYyBvNpgx2VSYxR+NsAXZc3LrxSzm9sy1GNBSKIza9JXy5YS+so8tK/ci+S3Uyi4rgXlO41Yn0/FZ9E9i/Ee4nTk9QAFkKyO/hkhSU3KUmXNXmV7mIB6LHJ2YzcCFqASFGwzh4oiryI+1ltyteisHZiQ6HqLsz3FHMosNZy86mtxFRrO0SLnlpHRYHLHMVjbpjkTqmcCd3uhsL5JgeOieH2G6J1yGDF23UWLP5EuhKLyJ99lKG1YbsjX5VLGwsnG7Jyptyw3T6ninZ8azrbwUOmDzYbXY7yL0D3MsDrl+VVqOzhwmJ2bFUD84tArNRTf07o4mMVJemwlFmfERrXlU2vy4GMi1oPfGs2gynrmsF3HIcHC86pLKdt5yY5tzVN+MATNql3wlNgrjkSvLumoFTOSEM9OsQqRQyzaLEYG6H8hOzILbZiMMdgiGivNPc671SL02g/OW2J7ET2C9zyO9quVzDjbBYt2WN3S4Xk1qb3MEj3+KszxmvzGNvS6j9Cg8l2S8C/pYkj5mgOLRgGEsg6hsKSujenju0BAYVD/p3OszOOnxeW4mZltud4TrcmWOJhThOpeLJGda0YebjbsXLPChd1HMJ4XOmt8UqbdkVE4Wd9FqqJeJFtXPKaybJPOKto5quXymTT6IaxyqjfXs40h80/qLsm+aLqmMfBquwsHQzFieoKIFOaXVapW2zXiLVbGd5l6WPkwMFwYm72dOI3t5r4jhdD8cI5MJRIgEouTHFCzPaEEyetiLZrFyWO7qDUz+hegANtzEvDWDOU6xz6KeLLqEf2Z7UV9ila1wBpDvmniRoU8WaSIV+7soNPLCpqVHF+lokPTIMXWdiNTbM3qxk8Z2EAKbWyGuIGJu6yJLyxJ9XaJSIi9CnBm9TBkHdPv7TyIUTCvGFoFjGLF5bZv3NsWBnZ/jxasUJ43rZMJeFdkGdJkr2Nl22JsxpaxTXwIVJuagCoSHk5zusHHQqHTIuyGiZfqMODGCCVN66jnfgTgal1PqeSxFse/WJcyJ0TbG/RWsun36GapXZtRyorRco66Mt2noLONUy3q1H7KhhHXL8whrlmVsLHCkXpXRa1bEsdWN1Ksz8v2dRRsZqddk9DGamtLbNXXczFlMU7YLlpVwYgHfvIidpPq94ig6kph9SSSL6bt0Qm6uNESMM1q+bpTM0jsz6vKzC/PxLnxDlufWlMACsrtSvqa1jpsWMNsokVZXpUxHbIIi9UZ8wxkT7EzGmzLqGskGiRTfnFHXJpOSN4eSgIm6bpeLw6gxakPs6mp1/V4y/+/OqBsCJMyJvTfZu/MgNDHiyDmHYjUQAE7hhGXKohGE61IyIk9vD5lAEwFwywkFsY21QitHiKxOWG9DeudiwiuDqNljpkSR9Ax8K9zvEbgcnbahXaYETwi8yWZmQDKpyypLQwXx3XIuLLzMsZv5bKEwyLMfgG1DzVj2J6bycgSqI18YwQmrzePKLMF5F6ggMwcRjUsFIFT7m3Nm7wlm4wnOFiyS3dONUC8sHDSZssJ03OvvwJOA+0LxzqLY3o9NmdHUVH0AezeJGasPcVCdxPraTKNtDF59kMVWgzFDUd5DhErWc7opD7U1gLlHdJOqXunpLKJwqz5S78nonJle9SKtlwQq9CJWiDWiD5YAdW/o1upyb2eHBlRWrUQSCgmS8OBqnG9LR56ljsT54ph+jyz6OWrN/D6aTuXUUQM6deKcZ7Lrib9+3Dbc7J0fIkgQJ6IFJTa3IBl9SWpoib6+L6Mu3YXTpgsrLKvLDPcKWoDWYyTPNw5m0aAf+qOdIXaGY6hYZqb2ckPYRKjY0XvVFYOoyNGZVTzEoA87o/444KL/jPpIRl9lUK0whbp6O571SH04o6+Zhjt2wQbhCw5CVryLYi2ra007Bfyqnb3A/PR7nQ7boV9nynxOiQTgRG4v9dT1kzHxpvOjnbxRG0Jq6obkB4dcI4TGMZSPQj0IL2h2Xl6gVOzlQJUuMYKHlAa7u8W9AzleraWkhkHWdm9fkliZ+ahBnWIUBXtv3AwjiqyF3XznbK4SGVPKRNHC0o5wj/LmBx3ItL2H9ARFE8vbnPZF/OhCeYDxne7snacJvTK5ELd6MeJ4fEcmF8evyfhideGSiyHEI4SltWCi4ozRySFSH2X3lmxB2hOy7LZATdNCfZFDbnIx7FIrfrpjZkp57vPvpS6J+fMWKv4bSDohLYmSepxYgcv2QKWncaHh83GsQjrgYJAEE7k/8fN1mKn1aiPfJtVcz9sLXi9frZg/8WYj7ADyXY+WH7i/FpWrmfuBpfQ91XLcSCu0D3HmjS1988aSNizXXJrrUsw1P7KhYTaBB7g2WlPeLjPmcviQxB97kQTTssbXsPjnqVx432SK6UH3LeqzmL99d9mjPi/uhnt5YzHvIvTqJ1WSIJO6VJ4YJHcV7k/u2Kz8AQ754wv2j1TYcKy5P3F//6tUkZkEyvp3dvJVkXSu3uAuR3Jklri9kT8oZkS2nGS6XHbEJCsbLfnbfi1TQH41nU8THrFfzV4zIj5KKyTHrPAr69Kb49Sq27+5coL+dmvcHnerjcYpcx11yXzo6FmYZBI5fAY3d47OT08fSPjEBKgSvavF0jVxG2bKRvOhmesmNGx/Bh+pz2XmbwFEj3DRTYmE5nQfhFGsT1Kddhe17VPsfXHVgDsqFhm1B2J39MhaHLbqhavNhF6YbEo7BFuTC/KvHOqLJfApFe9nH/5oKszPpmgWRmZelMlEyP1tscE1DnI1F5cmAmbD9RydFl97eOZNxfz5RGbDrI6scJGrYKHJmQ/WmCy5pcD8dUOXWzYNuMwKE94wn+xZtVdPXPRiWXHwnMjZNrXcF8lLP1V1H3JR+RaXiVWppuVvS1nl9ur5TZJM3n3CKluWL+vmyjfz71L5Fv5dLt/Kvytl+Zruavl2/j1SlnOC9H8tuUc4ut7gakGgY6wkVkwAeFxoTpQFewkGh+TShWuIy8yt7+Ud+feKml/vkF5Zlc+LX1US3NWlNv9eUxKVv3a9stExPK4DKuabbgDX1+wVyA0sQ5IHye37g315JPQQEZMxSg8Nagga4GHSq4dzVyF8HnEn/zyytC61H5UvFKSbj3Z3cI9pScuPbckAHufu9B8vf02G9AnydyVJn8j6InlSYP+a5JNP2Q/LYzxIbgyMgG6SwdwsiFtkcLe6r6jfVjAfUb+9UJKZeUrQNKv+DtOFp26Z5GnNSrFtB/z0oNFpmW+gPKNSk/E8k5ObjPBZ1XzB/FmxZ8d/IvE5hU67beSStxepQAXpv7sGQmHb8eSVgK0MfdGuPCYHeL3RaVteG0RqsUNmJss1aKRb8lfEqiX7xbiTVX/DXlifEsvYkqek6nmxutVt9PfWfFOuh+JvyT24kJe/2AdUJLzQrPpMO02LzEtu/VTq68LAd4NcdxO8gabKh80snzJHVwtVAj/fMn9z4GT6jvnYXN0fwp7UqdUTXX1ESb6mH1v7R5Yq8mSrYfrw6NL8c2ePiQX1RKmJhQV8kp2AJztx3igp2iT9vIntXXpxM1ZZWr0NjU9/Re8pLfMnCe8giRk/FVh4m149rS33/ADParPBFoxu5ZPp1MWyXzxFUB3Yk49xuT8vmuFmVzQqS6c7rie5GE7VWYpxYpJEvMvJ7K/E82zbXI0pjnD5TDzfYtfMX9MR6HjQrNSTfp2g1ySXkqDERhkvE22yrV7ebvm+tAp8BfNdaFj8lTIC0qtEfhZ1tXSQ9BpJbZvXmp7EwrqOJoQc8HphS3qDpI7Vg0Rq7MmAhTyXEEJ3qtqQ2arW8q07O6ZGzT6aAELPamY8DUNdquQtcTOB7rSKZbt31N5eAF2yYMIeOrdED3NT8vASK8/hHuXXmmVsq7T42HXfhNIeh/2yC/vxLB+/Zf6+xxMq9YBu2FrfEq+2W0SfzU0/mduD2J49HRvD5NiXAc/A0hBjjbPPpKaI+9kyPtLnxP5mSzQNLTZ/BzGIMzeTaceZW8h04sytZDbjzG1kjKpK5nYyd0nG9PHuxPLfI3uInbpvne8wz5X165Y22W+TaUz+Ou697Iv2r/J2a4ceXHu6H/WL8nsY88UZ8/kmE2mwvkXIli0b+j+yoaeLfPBs5eabqLKR7wqeg5WJJ9bGePUDzvGHj12ZojiVTfe6mgC//dKhmn/pkIwuEVERf2iROIMZzJs/eXeRDySS84oXfe2tMs5CKvOqsz3/y1PaAIKREhDe/wGjCQAAhZcLcFTlFcfPd3ezCcFAFeymKDRQFOWxKZaHhuxdOiUrVDsC7VgY2EyjpkLFCLpBq5ZHEqCwgdqOHZBCBzdFoC22yKN0NzA0DpaCIJvyMrYWEXEX6DDDBEjBTvs73w2Q6XRahuWce875zvmfx3fuxRhHfHLLL7YsT5mipSILlxq52qNqxIgHRk36xoyJM6bOiQ8f/8BT42Y9/PVHpJf0FnO73CF9xe83Io74Td64Zx6vfbq6Ji4BUzBfRLrJLUr4Y8nnZJcjYsTGkf7id/ImVj1ZXTL8f9n3UraneV4POvbgAD04oSZe/WxN1aySR2pmfb/ka1U1c6uek4D8fzcrDACumdU+9WUAUZQ3buZzs5+pmfnYrGq5vU6kpATxPYtEXnHutWFkcvWTtbOqnhUZbLrY+heVldyG/XfyjKnLFi+oC6WKnQYZ8YRv5p8rgn7V5POP5EmgkL/Av27lE9WWoJgnMluMcerjjYO6akzg5bmZT6gUmp0TumqcwLyzye5ifGjaX+2q8am3+8X40Ww731XjD8yrjA8Xk+c0lE3s31WTp96GKIKGspqHumoCnQgCaBqmd9XkB+bFM2Ex+WjKl3bVFHSeKUAzeXVXTbfAvMbQYOlmzH9U1Jkfz4z09T5Sf+qPHb6h373/8IOfn3ft3Dpfz8AEv+StC8gt9Etb5Zd8KRApMj3mM249C2WhyM/rZEqvOjm8qV42Dq2XV+vq5fCxevmso0FG3dsgD5fJfLPAmIVG6ozUG2kwssjIYiNLjPzQCPO9Huf7jRww/oNGDmHhyErHBAyxdGC6SffrTfZGaunkHsvsVC01Y48VeaPVR5/7Ov3ki3K3wR9PKvHpP1wKI4NkpZE7pYf5Api5MnfJUAk5izAMdFvpiBFZ56IQpzi2LQz1mMZQWcSJBte7yvhaKz6wTCorEZHSiK8x1DuSzn4pEov3i0SDPSO+0tQ9kdJUu6s0nU25nYIFbnGsH1bDXK5O70guuRXPgsV9YSxO2MDXAYgpjo2AWxcm8FrLEPiAZXLJnNta8WkYL/5Ia0XQjcW7E3iq60tlb8P/clepDayMSNZtSnTH0q9Y/QTujfk50PSN+GozB8nm7khjKGkpCY+4yWg4+QPXFBBePZTJJbureqB7g0HjqaAWe3s4lR2g4VosU5tZS66DIr7iWDwciw+JeHT4dcFoa1GaGuMdERmLRbulpN0L/2OBfBcVxaK1YjQpjyYhpfjwmCHWwkbRIxpWfSiVqyyYaPDvnD/hOk2Jd1xN25fOtriV8eM8pKnQSRVs4yHnprMboRe0fmtgLuF1maW+aLDKMumsC6izKuhLIT90PfrudUEzvxEIt7q+XPIhjmzi4QcUrMll2DYC9zXXF4sfxOwVtH+joS+55H6RUI/yu4jpHZ6gteJ4uDh2GkFC5+QYcYVi7tYMy/G+HvOy5mhwkaVYaP/Kmivj/6BRB8qJshTzF8OtFd8O12byXKe1Ih+LPprdbTBtaL4Cus06UN/C+wLCNVhKd5KWEdlGym+FGZe9lOoMjvYCLOhagaaaS6axHK9JbYGZjlBLV+06ueQ0tC9puB5gXoz0KA5Xu76mxApib8bhChDu9wS1mY8wfxuLdtenSUSDPoZ5MOEKIgimUrsixnWZpeS/1TJ6OYpjTHg0+DEOL5OQ1245b3u/NlwZn7Tbzqid2li8P2E6mXT2rOIcYhk8jKQsF8FZwXj8U8fiUWL4I02JuSQAitaKBIIiBG9YShX+ZJnSlPYJFLnkv2CuACkfaMdt8mSxg/M92BzLPEE0GLYWIh1heyQafDqczp6G7iqn+fvBUdbcWrHBUrrRaJni2AuA2zuGfk0Bckt5UyLKkXDYQo8Gl5PiEML/Kmwv5w3mRgWUEcP8oEsolAG0bAoZjEQwSNfTeMp9ATdPUcOdim0JyOu4qa9bCpRmyxTHDnEkHaZ1J4l8iSN6fQZr0XSGp/GglCjKRIObQJ7D6R4VnKRTJ3g4RBXO6JpshmkHx+uWUucllklnv8fRT1XwIEjbeBiJosWDns7+EixeLrKZbpemVtk60ZZqy5SmhmLVUk5iWZKfw3BtZOKuhpmnSUxcWEuDYJlOnAq2E2UjyR3TWmRpyWVQDgUYrVWnXq9XWUrquy2TzrZBsaiMXyHcZQD5WEH40EFTp0ptFGU0rFp04rgChjlEauMoSNWpB93LxctKS84N224ZkX0Uc5fWvg14HWT2MVUZ6tKd8zDT+Z3nMPE85g1CqMVuvWlt1F53yT6En+i13Y5G31mrLCXvFyyTzk72LGozwzqP3IkCH42hQuvUo0RRRsN6FuDQIwpMfVik6lShaxSlspiXro4m5XbtjLLcbr5JLKO1sre0C3POdXinWobcyim7UOkn8BnQN8hiBEUUeL2lCFoso7s+l8zXF/R5TA33twOg5xW5w2U8ShoOL9AtrqMMAMSpjL/vYVKmKfGmTsj7eHuPg1r+j3Qof8eDju1rljKUDZapjM/kB8RYfAJnT1HLUQgyinkgFnv4acYbXbuk9FODSF2+OUS+DKRORncTu3u0ZUhhLKqLuJvEjyXVlHgMBH7SWEhuLKlo8McIiqjLry1l6N6zTFPiLGVgTktTDh8DV7jqhd6Sqs3cyhTvIK1bvSWlDIvFWtglpUd0SZWmznIJWVIih8Gh75/NllLKn1hGpA4/LKlc8nEgt5Q3hiZzJKw+xsIsZ/WPBge7KRocdpOhAF4FoHxKNCVC6BKaXwjdFE5+FcEgvUPfBNcF3DzPkO3Ue6FfPnUINlgKlBbLNIaOcIQlpVtGl1Rl/AKQBmsVO9BM47xSoiijSyqXvICQJVWaOkPrTvA7QrdYUk2JFph2Qm+wlDovt4y+HeyS0mnXJaV52iWl0HVJKdUoUqrNHqhl+i+fT5a5oVJGztrpWKMPzVR8hmX0Q1Jkj66KMxycrXnTlw5dJpN4a3pLjbe/juwkltk2xYziqCLSI7qhhuCLUdDLo7Mh0rnUajObLRMNvk0bu6nFCUwD3KocYT/Tsb+G5hw/HQmGWqSAYduBtoBx+pF+6BSw3V50nXT2FBndYJJ61U/jLak34TQefk992ijWu9rWDA8f8rAHeDmN8xse2nG7ylJa8rJl+KDBgoI3hu6j8h/gsB9H31FBIdV/C0EhFj/T61yok+Bp9G3J/4SgfVQwivh/ZSRiCH+rM1KnptRrjaXE32wZ/aCuzfxU53cfpdlErVs5clgFfwHMFTI7Rdhi1+EzizVitM4O1+1NdtglEMZ0JHUCd5XrAmkMpcZwdieMvtO99or8Gw==(/figma)--&gt;&quot;&gt;&lt;/span&gt;&lt;span style=&quot;&quot;&gt;Disponible&lt;/span&gt;" style="text;html=1;strokeColor=none;fillColor=none;align=center;verticalAlign=middle;whiteSpace=wrap;rounded=0;" parent="1" vertex="1">
                    <mxGeometry x="75" y="390" width="60" height="30" as="geometry"/>
                </mxCell>
                <mxCell id="23" value="No disponible" style="text;html=1;align=center;verticalAlign=middle;resizable=0;points=[];autosize=1;strokeColor=none;fillColor=none;" parent="1" vertex="1">
                    <mxGeometry x="192.5" y="290" width="100" height="30" as="geometry"/>
                </mxCell>
                <mxCell id="34" style="edgeStyle=none;html=1;entryX=0;entryY=0.5;entryDx=0;entryDy=0;fillColor=#1ba1e2;strokeColor=#006EAF;" parent="1" source="25" target="31" edge="1">
                    <mxGeometry relative="1" as="geometry"/>
                </mxCell>
                <mxCell id="25" value="&lt;span data-metadata=&quot;&lt;!--(figmeta)eyJmaWxlS2V5IjoiYTQ0OTZRTWhQaFlxdDFIOWtEbExKTyIsInBhc3RlSUQiOjE1Mzk4NTExMzAsImRhdGFUeXBlIjoic2NlbmUifQo=(/figmeta)--&gt;&quot;&gt;&lt;/span&gt;&lt;span data-buffer=&quot;&lt;!--(figma)ZmlnLWtpd2kZAAAATjoAALWdeZhsSVXgI25m1vLqLb3v7Ptq7zQ7udyqzPdy67yZVd0tdpJVeetV8rIyk7xZ7/VrN0RERERERERERERERERERERERERERERERARkGMdhHMdxGEed+Z2IuDdv1nvNzD/T39cvTpw4cSLixIkTJ05E3vo3XQujqHc6bJ+fhEpddrJRqXeDdr7VVvxXb5T8brGcr2/4AVndCfxWKu8Zar9eAs4ElY16vgqUDdp3V32AnAG6gS+8lgyt4dwNTlWa3ZZfbeSl5nK90a6s390Nyo1OtdTtNDda+ZLUX3Fgt9SoS341zrf89ZYflEEdCYp+3e+Cbpa7d3b81t0g19LIlt+sCvJoqbK+TnqsWK349Xa30KL1Yj6Qvh1P9e1ko9NiHL707ETQbvn5mi0hf4nL2xFfmr9vECGEu4CVNKHzOzsIExRUpW6jbhpWJrPVqrRlDLo+7ofNvV4UQlakqG1agqjW2DSg3hqM+oPR6dbBUGjqjfo9fqtBgWqUTLlwsLP1MAp9UKrUKHZqjApQF/P1zXwA5G20Gp0mQGa9la8JXbbQaFT9fL3baPqtfLvSqIPMbfrFdqMFtCTjJF2uVgzbFb9arTQDAVdbEDHtZl6PtPyNTjXf6jYb1bs3DJM1mqqX/BLintMdbft3SZeOBdVKURDHg7trhYboyIlKncbqBotUK8VTIqpLg3K+6Xe3Ku1y19W9rNio1+FpOnh5UfSxUG0UT5G7YqtS2jC6dSW8ajLSq2p+qZIHuLpc2ShX+V+KrwlgYAd7rQO7CLtVzUuj123lg3Kl26Zlctdv5luVfMH0/4a2Ax5kgG4ReZB7cEziNPshDM/o60ODvd4k3BrM9trhfTM7RdcFd3byLZ9SRW0nTU0naw2jRF4bXiIv9J5sJsmWGlvS4ezFBJtr5lv5apUFhI7Xui03zqVFdNVfF+yyX9/olvIMIW8aX5E8S6UjmVXJrFcM1yMGblRLvsh6rc3y8e9pVKSXR5stv+SvoxalbrPVKPqBKNgx5OZXpfx4rIDdoOL6eCJB1TrVdqVpkJfU8vVOvtqt1Jsd6dulZf+uvNWgy4plf7NlwMubVHPoKxoM24Iyy9Kzq5rVjjR/db7VamzFw7zG5mJZXFsYhqN+jaUi/PJB0G2XEeWGGA3MWqtmTJUu5VunfGHuuV6KRmRE/1HvApaAbLbYqDaSXM5olamzFLCADWRWDDVKDTSS/IqtEmdX59p2JGist7uGB7m1cr5VSnLGRPkt3y6LY/5dRQaKspI5XjbTdSLItzvJyr3EtAJwabVTq9QbQaUtTVzW7A1GTv1WggbKCVKhEqUKcqU16SoYnaAkNfLAZAAKClWTJQ4uk+AgclqbrdTyZmQ5zNbJCsDSJmtArNRyZZ/dJNjpDUMrfbaDlt8uGsGvV2ScGoUzrbWt4mX83d1wx/U4W2G9t9gM8qwAClWp1WjOs3q9gfVhJuslDEFHOugV8sVTi6iMLMCiMbJLDVSigkUHrTpNDB+prja2DEAX2rYPARpR7RbzTVGt7DzHimgVjWHOCdNSuDOe9maD8Yg6sfmlZeYXuQJrhls55c+1zauGPbHn7elgn1xcB97dsu9mXtcP9rfDaWc0mEXwbeVlqKpZucuvBgCaXrOlCaVXHI+i2XQ+w8vMPHgl5WZIupaXHcmjH07smaDIhgaQXYdjqWtr5FzGUC8Fs+n4TJgfDk6PqJAwU9hpJhZANzptB3qWuNiboJHxeBiuUQ2dGDzPrkiRiwwiY7P+nZ1KlV0PSwUy63RKbJDdc3OID+XDAiaopbQxX56b6+5N5FdS+ZvJr6byt5A/ksrfSn4tlb+N/NFU/nbyx4qVVjHd+nE72pPjgUimxjbeAqsK/qYvI9DxwL3CeDwMe6PGJIwVJNup25WKGKkmew+wDjoFjKuBvbvMAjb6aoRfHk8H949Hs96Q6s60peYWXTZS8E522DXXK6aH89qb4XQ2YOkJrtGkKFW10Gi3GzUgrzY+iMLiwTQaT5EPdj2P7aNAFVuNgJVWaQFr/25flh6qR87D5zNNNfMMBVtYRMXJZzHVJDmSYqUKtFQTiypVlpli3EWglWT+THZ1k8U+ntYG06l0IFlFZtZJtQGwQFhGtqS2qLBX6kV71p54RbZRUGqu4NrYHLsess36Bih1sulLqoNNSbxmSZy/jH/fZDydHV5DGZwMTDq7l1soKkbgYpj2dYxIlqxX7Z0fH8w2poO+ZZK1yyol8XkHPbvKMvM6zd5sFk5HFEFVaZoVgo02tlqb+TyYjVthNLgf1omITHeMZJJ+6ATypFp7ejDacernlSqB+CnCU+GzsjUD6GB2fhgGoRs7U9cKGs4+tvFuSXQR7bK6gqONr1AvysaSafu1ZqOVN052NmaDMGdhIskL9htAHe8WGI7ezhk7jcmYyhjoe5Cu6YFmo8QbNLClNnpNcxdI14rUK6BkYmKAM6ZCcXxAh6au3tID1UPsbnIy+U5bdq5silXOsDp5EM0Gu+cpekAuzXzR72IKrK9vexDYSTP2FSS+fVC5x++2GxgVI48FBDrGnFZqTZxkclICjR18cxwNZC7ZPkC5fqp8ASl37HHCkG1NxRSztXDMyDdBK5fa4rRE3GxBHXOzQyj47S3ry2hIRqxQmrVzuhLPFCvfl7NRV46F5HWnZeapwP5LmilWG8bDzOIXd2MnmXyu08T/9LvGOe+2OvV2xRxHllhUpYo4M2a+lyt0bdpLtXwcR53Vbrir/Dqtd6UqOxF5XWtwHMWVBPYsbAsy1CqLxwWctQX4DkKWsznjaS9BhVdrHFlOoGaEK6VWfoN0lbJT/t1xtSNkNxv2CLMGbMdRNnN5NMmzwMgfa097IztpdgzXsYPiuLe7mHz2UhktZIqlySRu+oB6nTMtqWfOEd31ViPx3TMpVGz6symcNfK5FCax8kvNTlC2OMdseY6Jea3MUZbV6hyRcDoiJ1OLc5zW5piY09E5ynI6NkcknI7bjjJNEMXMTiwgY36XLGAty0sXcAnXy0xLDuuYXp7GxTyvSCMtyyvTqITjVdirSrErZeSuxhkkMJCvY8bMorsGv7+BezjHXOv3ItaonfHjxBKKnUKlSIES1nFG46Onsp7YGutiU0MWUVKUFboFTM7WXcAtWTOd5JeDZsva+JUNDBV7aIJYdaQJ4oiFzBJgtVr9X1tEtrfEQBw9hCxz5gF9LNiZjofD0mBqbQWddqvom1h0JGwsrq2LoZnJeg/7mKlZSLl/V5PNzVrNIhzESzI5vdFhW9FeRHyFxoCXlR6OcXUM6BXHQ3wJnZ2qVaVP84+3zT+ZHv9krbtB5fvI6fP847VAQT1HnOOfzB7/ZA2nYDaeUGFHYPU8pSfODkPg1Xqz6eA+pZf2b7yRvN6/8SYSb//Gm0ky+zcJMrt/kyBz+zcJcqnZm2JzK6N+SD3v9MGgr+5NMV1TnvX/KTzbGx6E1NEH5ixwg/LWkVK9tx8qndnt7Q+G56HXkWy+AB5MZtHOdDCZkcsI7WZvOuhR5WA/nA521genD6aIlu3WnXkVasd8AmjO+iZEB2yaWawaTHo7KPVCXQ7/eABixExeE1Vwx8SLMFiXyZUBpjlgKjnOGxgHCXU285uuXexNIpR5XoX1Z86LmqQbZ7ymz9lNup4B0U1y4nMT1hMwB4rBbgAupfg3Y7mnu4VPzr+45rhDAKY/gREyk5NQVdBps9Q0Xr4x8Othb2YE/Le6yZGOIlW8uWlIXC+8YjMQfEZ6Q2o6SJpzYb0lQibimy43WqU66Up+vSXlq6W6MUZH6p2adGkND1pCW0fZEWVIx0o2PS6uNekJTqCSXpLPG2/+0qJNL+M4I+nlgc1f0do0gYwrZWGSXhVsmVDq1cVgS9JrmBzBX1ssmpjadYF1k64vV0yw9AbnoTyo0apL/x4sQiF9CPubTOVDS21zaH3YejUv43h4baMlG/gjAnSN9JEcD6T9R63jzZI+umzTx5Rtu49t2/zj7rTp45s2fYIceUifWF0vSP5JjaZJn9xqm/Rbmrb+jc1TdZHTTVXMB+nNpNLPW1rtquRvJZX8bflCa5P09nxhU/JPIZV+37Fp+Tx1kw6RPq1Q3ZL5eTqp0D2DVOiemT9VlnE8q3jSHOWeXVw3C+E5xabJ54udltAV2OolX8S4SVpat/x9wmnSn3XSm0k3SG8hLdOstFchFf4ny3Y8tLYh/amWGydFb3BJjQdSr+BIkDZONp9yB2nzZPMO4XPnyeZTbyRtnWzeeCtpUD1Zk3ptwqdC32FXk3nZFPeFdItU+nFX7VRN8HfXq8bxuqfeOdUm/VY2AOnXc0kD0m/bROCk9zaDtuC7pIJ/XutUS/K9VrMs6XarU5B53wlwcUn7bduPsF03h41dpknm7/QmsS3SvU1bPti0437+5imjL2c2W+0W6ZD0ZtL9IMDyKjUilfyY9BbSCemtpC8gvY10Sno7aUT6FNIZqcjpgPSppGeDAJut1DlS4XcfqfA7Tyr87icVft9OKvy+g1T4fSep8PsuUuH33aTC74U6CG4Wht+ji5umhy8SQFh+rwDC88UCCNPvE0C4vkQAYfv9AgjflwogjH9AAOH8MgDT1R8UQDi/XADh/EMCCOdXCCCcf1gA4fxKAYTzjwggnF8lgHD+UQGE86sBTJ9/TADh/BoBhPOPCyCcXyuAcP4JAYTz6wQQzj8pgHB+vQDC+acEEM5vALhFOP+0AML5jQII558RQDi/SQDh/LMCCOc3CyCcf04A4fwWAYTzzwsgnN8KcKtw/gUBhPPbBBDOvyiAcH67AML5lwQQzu8QQDj/sgDC+Z0CCOdfEUA4vwvgNuH8qwII53cLIJx/TQDh/B4BhPOvCyCc3yuAcP4NAYTz+wQQzr8pgHB+P8Dtwvm3BBDOHxBAOP+2AML5gwII598RQDh/SADh/LsCCOcPCyCcf08A4fwRgKcI598XQDh/VADh/AcCCOePCSCc/1AA4fxxAYTzHwkgnD8hgHD+YwGE8ycB7hDOfyKAcP6UAML5TwUQzp8WQDj/mQDC+TMCCOc/F0A4f1YA4fwXAgjnzwEYE/WXAgjnzwsgnP9KAOH8BQGE818LIJy/KIBw/hsBhPOXBBDOXxZAOH9FHw704FrN2K7VrUrHLpYnPmWtN5mIk6O93el4X9yy2Zh/vcJwvK203j4/CyOV0TbCpLwMN3d7kh+JR4b/1e/NeoZ2WWU2B/1wrDwvpolu6UyHQrQ+GHKyLYo3me8/n6CC0isz6RR+XrTX64/PRYDe3uD0Hmf0Pfw+PMl+OOsNhkDZkLFE4mTgUZ7lDB8SOgJemoX7JtZoi5bPDrY5e+4IvGKuAGyz7n5XeUf+/za5g8c07TG2VbW6PRWeI1omd8R0RnlXmQm4ROkdEYR6nvLG4mHOxAHPnB1Eg228La2yJO7m5rjKRXjikdrVS/AeRbvj6b7aU8sDMxsv1mrFQO093OeRdB3Uam8EkkNFRYoEc4nF4PLhkTJty+pS8ulLisvUEYvZGx8M+0XpX603AkF/rpqOOZ1QmW6uRVIF4Oiuka2hdFP6Uq2OTWSk66YIa62Oh/vj5w+KtNAkeoyMl/WJs0ZJXqLVZUR6Tw9GnGCk5a1Bf8bA1OUL2HIocgR9xY60hAOrvpBRV4pzWmOuSiif8nJnwvNqpPQu2OpgFFdidgVTGpwO6V2G0wM569Ler7KS2bKEOa4CyMF8YMfpZXrcbLd7p2lYC1gXqaHH8coxAWfb+GU7ez1x88NpBIVOcqahSkmG7EUCN86GU+KeYbvH/KpXejozNMFQEyzbZta5rRnS+4iNRudOD89P9iJ2GL3UT25cIvYXvbzNse/MCw7GsjDfoPUlls0mHYCEHq/sMphEOq/QenW3NxxuEwdbpyBSI31kD0Wc0tiZwvg+uLxa6zVyQH/n6aOzJILKqXTqTm05dczhw34i3+PD8WmJthuS9rgYj72xuxuFMyyLWtUn9gdxzC2pd+k+Ofjb1l+j9WXlVIeUl90mYNePVJ9ToDUg7siY2Yvp8IhzBLcSPmjBvFI07zdHYxZTDGcG0WZvCCtW2b6tewrdWVa5gpO+8lZY+PZ4hP07Z7QSTZKyuwEyAiQDyUouH+3AitwydmI8Daup6y7Mwu5gGs0S0UhbdCidX9qQuVbe8s54f7/HEArWnM7Px9vKqhCDZgy7SNMoDe1fyLzXP+sM0tKFi2+5lOgSZnpKEAB5YacT5mL2nXKxCs6625QCyw6ZGXStN2WSnKTT3bJRBqNzUlMy9XB2bgy5Gw/C2Uf69xPu4J9kVBcuDNmXuB9AJlomPlL3ah2c398eDx37yGRol+3KwjGTSBh4xA7EUgb0PVxHNFhbpi5mi2KaLc/z0AQ4TMDhg3HORVYb4UjsOxJybY3TnPVBFK4z5xuypzKO8yMTIdDsg4Pd3cZoeL6F1M/2hoY6UyIKcFYM8f7BTEZnzK/l6y3yJeOWr5ePWDytcBeaMygnRiUuZCEEmGJaHx9MKog/Xhe6F9d5uxYapFp54GIjsMoDlhs7SGcR7/+FIghnD0wUoJUiIWkMXEgECLX0VncHw/CUHVdkCmGBv+HGWO7hOhDIEZZN5sXNVYT/q7OxM5IbDth2p+dlQtvj4GBbAkDbkAlCvRCbyVKajEcsS9vS8sFodygXTnKRkGa5Mog6cVGIiqtV2+1iXL/Wi1hYdsoyOzHWctWTg+3hINqDmTQs3W2P22FvvzrvnjTiHW4kU8Erk1XaYNSiA8FMhj3XNWHV2A3O0VO0xxGLiuI6LHRhUYsuznfz5v8nziz83jBIzUhcxbK2TxQwj8aJuUJ6woZsnBhj7VnOmSmG70A8nuzcm8mRJN7MUjSZhr0+FMvR3vgcssYPK4RIsC9rD/KVtrg5xuxVRrviTJr2NpXuH9hlSWWviUsyloJSeHawE198xuFXOZ+by1ldJGJiYkiewRGRlcgdeVamVGzFng1r31UuFre6xifXhxphW5IMRw8U19kvRsPQK33mY7A7wACjudSyPD/CJtNAhuzPTWfJ28JArSS3aIogfByx1wInJZ7k4rh9hrAx44gpsy6bEOccIqbnDrreMbGJZdeBArv/aayGbIXoMyaR3tBKMmq5uSIIbm+b5D7APXXQFzCwY0hqEnuplLrxQ5wLyfMoGtuTaJnnbSdow+UTiHKOKsYKVe/hcRsZGiqVq+c3Cf2Z6KbiSsK9JNLBlok3epLKE0VDkHF3E+ZuL+vjxsspCM5Mp5geKOKHWRCooLVh4p7EqJqw7TZv6W7eCsKzNQP8fpZ3xOEhOtjdJezNsh+IZ2q6xsrawS2byW4wU9+lMtHZ02IrjL/I9JPlhCWa/VlWArnGwUxcBnEfKcdMMRtszbJxkF+GYn083WHdyosLbM+ZCPQKm05+OxoPD2ah23oxVDvpQX1aqyOux5sbrknlVda7dd931wn56lb+7gBAV43DKJfwmOOZjON2bDdurvKww8nKzYwO9gPWPPMQKZwtt845EEUWG8gqwM84fYBlm7ocXgz9YhpXJmLwuOG/Q61uYM2Zf+NW04hOWMVbR6aJXYLgHJYAeZunnysKG7PgEVl/AeuEuxEI2JbOS6Tc6qI8WSEhrN5qnBKM5x5RZvz1dfv2JEsQstESKOceGyxhhbD4hl9qn7JtWSsbb8Buc4q3NiFgjhikzDm9jwTjqkTMRbzsyXsyTbbIXf5g9tBzRAXCqKzMDUPgzry7VfZZiuVKtdRtrHdtMXF8bhPtO1ZGyDK925VIRS8/3Ul6gfeLEPOj00iR4y72N5X1BtxuT1uxqc5Yk1/Fp6buwXRAD3V/EE2GvfNGjdfEtzFZo7X0vzk84ITmWpuYDJKkGn4PxyMqnLEDbZqyVjjscXLYsxWyE4O0FfY5ILOWAFlHZqoBcdJL4TDkoIESZmsHw9lAWg+n64Nw2N+0U8EE7bAUkD3KoNO3YlyFMUDx+Wo9Oben9MPd+IulJfGcOc1Y6wmUjQ1oLjGtSwk3f9SfiB/NmEMHyp5Fm3g+k3imt7kIs83+IysoqQzAkh42pRZdT5HbhUc1SCytiDkAknJu2yqlEheZ3M5i4YziEviOUfbKPX6wYKvWBrZzNBOBFC7fwM7Ol1xCzZxjaVBZmvGrhcaWNRSsnryTg3aeTG18NnTb8XjYP2VmF7cZ1V9P1NpL0ZYHhC2m5ytES6gSjQ+waUZYfRGWzRcPeTLssuFwzPFO9IXJp3dnUJdRUm133tSQMqecciA70zGnxOzWoH86ZNUxevTC48AR1/X7Aw6EMoDsbIDWzXr7k0o0vuN24tMMBQM7hVA4MyghDvt5CTtkdvBX4kxWChCyMTpeyZcH/whJbZW5eSs08i0Rn8YinLEkmXy1WZYIvlyCs359IG1eqrqH317APDBBAR4Di5GdzylqocPSJ9ULBHYAOjIZ9XJPmZfwnP5GLCHvy7EtNWcmG7y4bbLXi0K1pDwDWOTtE6xXfBv7fJVJZS3BU2bS/SPK+DsWdcfISjsnqUU9dRA1rf8rRwGW6js0viKO+ER6DO0HvOFcI0zf/12rF6aRTk1A6p9wNuO3rd1lVS2rmxxo2wsHUTDenTnTEEgRjb5TE50ZjzqTPtPkOvIr4NYHw2FM81Pk7Y4aY34GIQK1GZ/6oibsbrKlhe7/dmz1gX9RM8qLmPyvaI46qaL5/vElTcj90B7wQW/8fJzb4AAlZ2KnoTEgxqoJp79gvZ6tjcej4YAw1vB83MLnsdh7HCQlrmbHhHTuJfTj0KmhmYI3xQViDebon4/Rzk9ICt6aFBgXf17wC3GBuApz9NtidKo/eC22G5T/ho4Msg9SSJgj9XE3rYKzhHHJH6VKpMOC+0QKZzsl2D9OYaVHgvtkyqVs9lj3rAutf0dftIeFhJRefsgoBUqzAWaitPobuh1ncauYo9n5TdnQGtM+iqC+6umvx3Nttsz5ZL9Xq/vhZrCLa+LbgZIK6YPnd6QLNuFvVeS7LDqxjSlde58mMBgZ+kVFfaU+iE+XcE838mZColjazgMUfyU+wCImWdyfifNmmv9cvC/bi1NmaX4WiRVvZlB/EdOFyW68xl2GDdwWFyv965yLCLUU7kbqo55+Gbt3Co0oI/UhT/+g5wYoA36zVi+YZ60RkKmQiEqQ4OVw+p3YEjmqcg6zBWYAP7zYdB4X4fRIon6R+oinX87hjch6fhoWDraZLHE2fiU58wZycOa2Sn9DL6A4S39A638xJta4rG/SahxnbBcncYWqbGgqp37HhKGde3xlDFviCsa3d3ram+yJ/WXTXlVXHUJZwpMJNn6VsqquPoyzpKdmLKM8lxrpt9SPVQ+9CNpWaCclmyi9BPzU49XDLkBa4o7gi2wm6ir18Bi2RZuSTUUYr1GPWMRYsi127DiESsfmOVv8XJFQnW2GkP7jYtgWfZthJ5P+Kq0eH2ds2b1CagJTI857+/vjUVUOkQec0JnZ714oxT24b3bQw+mdU7yQtZKQlAYssFC6zE6VpvqeNJXdvkQ0aZIXpUmwHXKXAfp70+gAN4PVc084HVP04nRR3T0dss+WJlyQX1jopltNuUa5sJQgo3Ea1Iy79FRxUZ4VneWaJoVLdqf7uGVnY8XYxMyH3D0bymSJfwyKHuOxoe3rWLDiepBv4t4jT8NIqz+J0VXkQ/5P8YjvqzLLcor8azY50zuWk/NivriIMp7CKzz1ZU9mqYNnVjXn1bgfy9zezsanOcz0G6NGex3/DElF6jv0HyV4QrHpgk/o5N5AvTjDTapYAeH1koz6tFmdRhyCItil9YtN04VBfzBv9McNrm3vQAT1DPVaBhqVe/1Wu9qmjKG+OXV8XnKgVc+nEV47Y4zMsoUs+unzG8AVB9qCZ1AzCZutJhlb+MwIA8KZYU1Si3o2MYjkepArHJexhc/po25YKGZ3xJXMsVTWEuT3cVrp2yWSWlRJwErUsAELyi5bQFiidcEZL+plnvqt1F7csGNhWJdfgLRVNzAK6XMoF3zzvCUpR8ZTcLd0q+q6dN6S1C3K2Cn1UPWgVNYS3Gkx6L56uHpwkrGFLZs3v2x5pHrIPGeLg13ch7lX8eh51pbfYytYlFA8Jo2wNN8aGv8lUh/U+gkOtiXduWCKLmRy8yGUJdyVdjfC8X44w1f+gta3pBGW5rRtOUYK1a2LKEu3J3c+rE7UcjyphrsYw7nUEfGP6DRBSwR9iOJVc4rCeDYb71+Ey48eprkYo1fPieYlA9nzJig7CxSd+7HDNO0xmzulc5LXaNnHcWhZkxGmnVEjfrPSflzOdfntQ4GzF3nbY3EjGF/ZuAzgftrhbG8T9BsdWoaYIH/GIc2YEuybHJbJxRdH0WXJvMUhacoqLcP+eYezTSXotzq0NJUgf8EhTVMJ9m0OG5j5tWisZloov+jtsTHZPT6RyUw9WN1wMbxVjWYkP5UQI6MKCsvtMrbw+SYv48Ku04cz6bwlGRpUs9eXHQKS/XTektAgqCIzgekxi1Stq/sM8uSB/aVJWZ03eVtaUp/UJltOuu0Y0sCf2CJMtHFP5gWfsgVEA3DQTqo/tVnrY5D/tM032cTY3YPB/VLrpPrbBbRpv0L8IqJLX7VF6Y7bopL6D65obzDsu6ob07G8pv6aLXHdMlMI9j8uYK0SgP47izZsDP8gHO4inL+3+Hibpoqqqh/iIASyhX85jcJ7ZOrvY9J/2KLNb2Hq6ndtzvXZzRQtfdjjQp5Bh+prGfV7sjXHmY8s1DC9QEc4NsxUU/05l1jBCN3e6O2zlnpTWWCf9VAgd1sjR1njdv+gLEh7cRJIJDIpePm8oEA7p+d2DtP3Q3rOyngAH9LqJ1K4NrW4BXpdClWaXwj9pA57ye8P7lKvT1E1cQHC6dkwMEFXOv1rHAtMAIxCQ99S70mh5Cc9a+rX530lLiW3Px/VHPNYLPHlSZsi1Va/mWqqTWRpfCCz/P40Za1Hhv+NTfotTSYuSY3gAxI8IWpr8uyyTO2wJ3cCH0w1EJjXOQFKNsubFz1iZP543tXKnHWk/snTX5oXmalAQiY4pv7dU/9T20CseNComf64y0v0DR/HRmu/rvVfxrKRgzs81D9pQpsJzucwDea/zTFVRmrO3Jz9KErwpjZbL/vwf59jqW9x/zzHFdE6Jst0NaJA/9u8TBytJML5L1r9b82J+dA3B46q/2qxHWbeLftV9T+QsDk7XuQ2/m2a2NQDFm+yzBCp+getPuWNUOdDbwTeqinaAc81xc6ZKtvVgQS1v+ip7/WG+Jyo4NlBeM7QvjyjXuOZzjlXEgdVq9fFLnCRobPgomRf+Uk8yn44bqIM2ywa9SpPvV3W6f7EsHtZRv2Sd86EPeUtAgdjfOgQfupHUuii/anrMrUtsmSHys35bBrGv4R9rad+1JUXezscT/IwjJC5erGnXu1KKqPJwSy5uviMp37KFcjOTKCetfMGhymPz2J4jCa8xlM/iwHZMvgAc31GBMzwfs7R1sJZry8D+qynXuJw/lmRBA66/n6HabLTY+3P18LRgTXAX/D0D3hmtlrjc7GVjNhN1bstGvtysD9aKPk1W0IFqxsRElXvsUhLviU7h0H/OrE31hRHOH90sL8u+seZ5kue+l92HVNQottxwVc89T1ENjCgCPuIAezO96ye+TXrCI1i1MfnOVtckLm1BtEfST/EVJy4AGmJi6EJ4MWq0rB3h5deiLXkfsTCq7B8puY5DCvhmkWMJavuDxhPdUACybUkLmeLazNZXRiXMxgRCK5P5y1JYxsVWPj996PVIw/jLOldaAZakHZCcE4edSHWkt/NgbJP4NX8YJr21JPVEw+hLOHzrBACDrLgIiJa+kmLKEvHGiG4YSYhkt3vaerJixhLts2qw6BLsDEiwKW/JZW3FDv2oZPogHqjVjfOs7a8vytGpMYpiZCCmUOlVXQB0hKzFk3b43XmQCs5vMZZS3DWjqWA1K1exPWhPidRKIzJ57V+mUZyRjdFCyh7hY7M7jf/rdo96qexWOJRB/vj8WwP0TCpb3R0nJ8j7oq21Vu0bbEtwom4WhYAhr/sCJko5mnHxOORqXquehdsExy9h8mvcnNzHzFN8W2m4ag0EIsmTyXe7bgk5uSrmihnz11kfk2r341tso3qCbpqZmDTWeSc+rAeUZfoC1lj/D+l1e+ZmN3w0LOLj2n1kbhANrkZjGMCevn7cdlcuhWRIiMRgo9rPIALKPLzxw2f1OoPDAHKYa6p7lV/ZmTRYz+cEvMXObprCfHb82x8ZgLE/n/eunlFeNIkcpP5OKn+as5Abg2EwwMw+II+E54nLHP6NJJ9UYZLjbNjvBZfTGhzb0qIDnl/WUtPxaJz+N8rhLvjKd4NUR8Z4L36P7nocpUtK8Ij1f9Zz5huieKI5NXXPPVfmBA6utcg9sw6paPskmPsIiEtYDryfex40Wzubr7UC/e3w75h8NIMcR0CVHu1sD+wr1M/kSF+i1IwzzLLdM9pEjvYj3nRYH8y5FQQv1Nq9kbhUIb7eq+3w0hMfKXcrlVlefxdRr3DkzBOC4uj/j6jfjlFVO1tE4tdU+/0zgoJGNP8FzLqXQmmiNU52Gdk4rJN2MbUryZlchIqnA/YqCh5s6fen5QIjsJIfTGj35vG4vO+R6vfSFCtkIMoumyU8VMZ9b6kRLpibhoi9aWM+s0E32aWR3VMBR3/QoINdsYTKL+a0X/j4WaM+r1Yi6Vv7/TU7zt0vKcK+j0eUff9AcFiIQwQMWfwr2fUH7Arp27VEO3HPCaHbR4X/CWe+kN2Mxx0Nt5duSP4p4z6M8+qABNltKXSZ83jCOzI8m7Z+ODcznwjoz7H/BqsPaesqb/0+uMdQpVEJNO8/zmj/grexMwZX/oSOOLIrr/kbbKu5n6Ql+lhrCdk6bPep8+96lh+s8r9O6d9GUmmJti87Yhalec9XKmqZr4TyCWrbjc25DMbgu/GSK9mPyuQ6dQdlHVkku0m2Jz5gtt6o7Vlb32XTL6QL55yiGWDMM8NVnAncF5S7pC3xIg5sA7YqDkWaVa/rOg5Iv3DgN7U3JXZQvSKkWXBBakqFpsbRA1bzeaXbLslZ0IXfD0u5WVlcNSQi1bMjDE8gF7qvYUojqeZp+kAhXu9p/VioU/JeVhhepjW+euPTaepJad8cx5vhMehUp8imGTEr7ZXofTnbIpGFmmi/JbiTZ7KbC5g1A21ShBUzE9dVbHRki8otfKlSicgr+WzYBst+RiefOvBUnlzZKVe8s1rsExgHg51t+IvimSDNlOaqpWziGa+JB8TiR/kyXfjUlj7vGR5ERk/LVlZRCdvT1Y3K0GlUBXlOiKvlswXy8isbXEBLj8/PZp85+RY8ik0acp0ont4zMcXaUzrFxCdmBPZflyc1yUXkF2c3aWFRqsEQhpMRHiZQ7qaCf5yhzctJtgrHNY2kKCvNB/TqLe78vNrv9Wu+NLeVVaUxUZHHuukZunqWqXejeV2TS1/V5K5VkoSQV4nRUnu+lilxJ4nxn6uvG9JKW+axKccDU50FCyrCtufqLFQg7pXeW3JcvLA8nHOSBvueTtvo50HpPMhksYGfdjNnx2x6haryHYMeYrtOy5g62h8COYsI5CYHS9v9pCmawCyFKt3weqCcp/COZuJK5CeWdIKBzaz98kzF/O2VMUfMnTM0hvWvLH3Jo2lyn0K540Jkv00bimmw86Oemb31DNp+N1QcPLBJtbjCcnMiNlwFmK3e7+nsmfHM4IoZD7gqdz+QTTYMbkPemrJsm4n5J6eCVwNR6eJMmKzLMFmzMHDA5vhU2BY56W1hCUGeMyWWJLORXRq1oZbLYLU4/ZyfmvNzbjyciP6aw0drPrhLvVQpvvH+9uDcN39uKduh5rZSVevJxU/zPDSD+tyxYvTqezcEKm0IdLy8rZVKWEru4H5jGWXbjCblXrZb1XaXXl92Q3kcwq2ILPQwvz6nbHHQ2CFyJ7xMSZmgbgko16xkzuy4+IgjkL1hptxjQz72Pz+ck1luQ2fV69I3ZyZ9o8ze+mRL0+m8nIDh9PwitQnPLWy0LzBsyfJ4dXCLGbxhW3mVdq+W7U5lGihclvalDfa5kfpRoQkOn4hjbgwW/Wi35VnyyAWazcP9Q09YRmMTrvsmtYD5wzLG36H/aSnvUoKvcgEHjPp06c8JacERPVNiNtCyWw0as1G3e6Kiv7i+8gHBqW/2roVvhwt2BDtF4Xch4KUeT5OqmXYXb+EWtg3il6+jbEu+yU0BBL5MFLQtR/SlWJ23g6mXFrqpPHuSd9i1Ell3NedVLvVqRfzbR9Qm+9Xuld2nq02NwQLz1QtvMnJCc0xKBdfqltVy2yZnEwHAYkk2mRFs5wvut8QqMAXH8J+mXU+v/LNOCeOjEF2A7/KBmpKnTcJlKOrIinnpaUbI/aP+zyeyikL1fbwBg1A12doJB4YoBtiup50kmUzcSg3mnSdARRmGJ9j/Qx2DM+s5U7kwNO5yDTNDbrBUcrKadtLddbAMteHuyBZLWx/C8FOdUn77qYfFFsV840HVWzKBGn36QOvGMiGnTmZ38wnNFk5uZHmTgZGnkvGG7tTUMvNu9tlg1zZEBd6NTDoI8FWxThca6ca8qAS6GirEwjmWCFvPuJxHHdePtNlFt2Jini1xEH8VPAOQ2bfVsaFJTQkLsSqkxhLmCe6IJ8Pe8AnYUzMxCGRiTVlskK9NpaiyilYGCsvOwREy+C2fTDECJkJ+HtM3oADEcd7kXT8Vkhes4b1A47MU3JZy2lk/WBvZQhoan+dpXyR2l4/Pnj1hhwD1D8wy4soGTPL9h/ZDPrjcyPOg/KwiTMJ9jKncmhERG/D0c75OXZJBoAgpjMXF8qpZXlgOY1M3xq7VcrRjpXCfHgqa/w4s4ZVpz7P6MTZxgvoVu2XQTLCx9bLmfkDp1ydmEYnXGKMZ9yHOzsNs/4zZT9PMVC2tDBkCKvmuxmqZT4/oxeLnUSwiTX7ATpIlH9XAs9/BiSUcTjIyw1kg9EInsr/zGTagkj9q6cXH7BHzBFulvyYeh9iZ3YQYi7h7Bsu3vJg3kIbNNdLzHKCWrhHQnmSgtQ1UgYD356HgXBoLogC5YjOMctSQXwOomnUW9qXs3KZQCMo8stJ3zadD9s2jhMLhIG/m+2wOB4RJ4BJb5g3vZC9qucghMCZ0hGYA1zCL29IlHfdvBvifLBAEOcc14aU+z5vjkmPcuG2Lzunkd7bAaVGedFbM/npjdwoUW7YtOSHKzHG3gGuyIGds64JRXCETnyNbbV6YdDxyLxBdlQunlJXjmu2v+tc+Ei5WtVHWdjTniVwq2pbHZsZGccSNyI5vojbFCOjPp1RJ8yEOWG+2lOXwM4136L1mY2WxD3megBDNepMh5VRPTzHMQDUZYus1Tc8dfkiypgdZu8K01hwZjBpj0XEyPfKBFU4n983Xu6qugoR2jnnZiajr06ycx35F09fc6irVgqpvl57iKASq/rZMPGVJAp4XaJUAf2W8H7TXAsSTHBbH3G51EPZ+c8u2OPdKilxNbcTYndO+XfHT/gxWKfq7OCcLOsEBKpVY1b0XYXGXV2cImCvGdxKkmE/ahfLciollz01X3smKCK7ZKRyGrU2WNfWC1kOZTpt36N53oH58YJ5UsqEezVGJ330siav920+7MttZqUPqZegCucTZGaXINop495lffYPG3L1jjru0XSnYyBvNpgx2VSYxR+NsAXZc3LrxSzm9sy1GNBSKIza9JXy5YS+so8tK/ci+S3Uyi4rgXlO41Yn0/FZ9E9i/Ee4nTk9QAFkKyO/hkhSU3KUmXNXmV7mIB6LHJ2YzcCFqASFGwzh4oiryI+1ltyteisHZiQ6HqLsz3FHMosNZy86mtxFRrO0SLnlpHRYHLHMVjbpjkTqmcCd3uhsL5JgeOieH2G6J1yGDF23UWLP5EuhKLyJ99lKG1YbsjX5VLGwsnG7Jyptyw3T6ninZ8azrbwUOmDzYbXY7yL0D3MsDrl+VVqOzhwmJ2bFUD84tArNRTf07o4mMVJemwlFmfERrXlU2vy4GMi1oPfGs2gynrmsF3HIcHC86pLKdt5yY5tzVN+MATNql3wlNgrjkSvLumoFTOSEM9OsQqRQyzaLEYG6H8hOzILbZiMMdgiGivNPc671SL02g/OW2J7ET2C9zyO9quVzDjbBYt2WN3S4Xk1qb3MEj3+KszxmvzGNvS6j9Cg8l2S8C/pYkj5mgOLRgGEsg6hsKSujenju0BAYVD/p3OszOOnxeW4mZltud4TrcmWOJhThOpeLJGda0YebjbsXLPChd1HMJ4XOmt8UqbdkVE4Wd9FqqJeJFtXPKaybJPOKto5quXymTT6IaxyqjfXs40h80/qLsm+aLqmMfBquwsHQzFieoKIFOaXVapW2zXiLVbGd5l6WPkwMFwYm72dOI3t5r4jhdD8cI5MJRIgEouTHFCzPaEEyetiLZrFyWO7qDUz+hegANtzEvDWDOU6xz6KeLLqEf2Z7UV9ila1wBpDvmniRoU8WaSIV+7soNPLCpqVHF+lokPTIMXWdiNTbM3qxk8Z2EAKbWyGuIGJu6yJLyxJ9XaJSIi9CnBm9TBkHdPv7TyIUTCvGFoFjGLF5bZv3NsWBnZ/jxasUJ43rZMJeFdkGdJkr2Nl22JsxpaxTXwIVJuagCoSHk5zusHHQqHTIuyGiZfqMODGCCVN66jnfgTgal1PqeSxFse/WJcyJ0TbG/RWsun36GapXZtRyorRco66Mt2noLONUy3q1H7KhhHXL8whrlmVsLHCkXpXRa1bEsdWN1Ksz8v2dRRsZqddk9DGamtLbNXXczFlMU7YLlpVwYgHfvIidpPq94ig6kph9SSSL6bt0Qm6uNESMM1q+bpTM0jsz6vKzC/PxLnxDlufWlMACsrtSvqa1jpsWMNsokVZXpUxHbIIi9UZ8wxkT7EzGmzLqGskGiRTfnFHXJpOSN4eSgIm6bpeLw6gxakPs6mp1/V4y/+/OqBsCJMyJvTfZu/MgNDHiyDmHYjUQAE7hhGXKohGE61IyIk9vD5lAEwFwywkFsY21QitHiKxOWG9DeudiwiuDqNljpkSR9Ax8K9zvEbgcnbahXaYETwi8yWZmQDKpyypLQwXx3XIuLLzMsZv5bKEwyLMfgG1DzVj2J6bycgSqI18YwQmrzePKLMF5F6ggMwcRjUsFIFT7m3Nm7wlm4wnOFiyS3dONUC8sHDSZssJ03OvvwJOA+0LxzqLY3o9NmdHUVH0AezeJGasPcVCdxPraTKNtDF59kMVWgzFDUd5DhErWc7opD7U1gLlHdJOqXunpLKJwqz5S78nonJle9SKtlwQq9CJWiDWiD5YAdW/o1upyb2eHBlRWrUQSCgmS8OBqnG9LR56ljsT54ph+jyz6OWrN/D6aTuXUUQM6deKcZ7Lrib9+3Dbc7J0fIkgQJ6IFJTa3IBl9SWpoib6+L6Mu3YXTpgsrLKvLDPcKWoDWYyTPNw5m0aAf+qOdIXaGY6hYZqb2ckPYRKjY0XvVFYOoyNGZVTzEoA87o/444KL/jPpIRl9lUK0whbp6O571SH04o6+Zhjt2wQbhCw5CVryLYi2ra007Bfyqnb3A/PR7nQ7boV9nynxOiQTgRG4v9dT1kzHxpvOjnbxRG0Jq6obkB4dcI4TGMZSPQj0IL2h2Xl6gVOzlQJUuMYKHlAa7u8W9AzleraWkhkHWdm9fkliZ+ahBnWIUBXtv3AwjiqyF3XznbK4SGVPKRNHC0o5wj/LmBx3ItL2H9ARFE8vbnPZF/OhCeYDxne7snacJvTK5ELd6MeJ4fEcmF8evyfhideGSiyHEI4SltWCi4ozRySFSH2X3lmxB2hOy7LZATdNCfZFDbnIx7FIrfrpjZkp57vPvpS6J+fMWKv4bSDohLYmSepxYgcv2QKWncaHh83GsQjrgYJAEE7k/8fN1mKn1aiPfJtVcz9sLXi9frZg/8WYj7ADyXY+WH7i/FpWrmfuBpfQ91XLcSCu0D3HmjS1988aSNizXXJrrUsw1P7KhYTaBB7g2WlPeLjPmcviQxB97kQTTssbXsPjnqVx432SK6UH3LeqzmL99d9mjPi/uhnt5YzHvIvTqJ1WSIJO6VJ4YJHcV7k/u2Kz8AQ754wv2j1TYcKy5P3F//6tUkZkEyvp3dvJVkXSu3uAuR3Jklri9kT8oZkS2nGS6XHbEJCsbLfnbfi1TQH41nU8THrFfzV4zIj5KKyTHrPAr69Kb49Sq27+5coL+dmvcHnerjcYpcx11yXzo6FmYZBI5fAY3d47OT08fSPjEBKgSvavF0jVxG2bKRvOhmesmNGx/Bh+pz2XmbwFEj3DRTYmE5nQfhFGsT1Kddhe17VPsfXHVgDsqFhm1B2J39MhaHLbqhavNhF6YbEo7BFuTC/KvHOqLJfApFe9nH/5oKszPpmgWRmZelMlEyP1tscE1DnI1F5cmAmbD9RydFl97eOZNxfz5RGbDrI6scJGrYKHJmQ/WmCy5pcD8dUOXWzYNuMwKE94wn+xZtVdPXPRiWXHwnMjZNrXcF8lLP1V1H3JR+RaXiVWppuVvS1nl9ur5TZJM3n3CKluWL+vmyjfz71L5Fv5dLt/Kvytl+Zruavl2/j1SlnOC9H8tuUc4ut7gakGgY6wkVkwAeFxoTpQFewkGh+TShWuIy8yt7+Ud+feKml/vkF5Zlc+LX1US3NWlNv9eUxKVv3a9stExPK4DKuabbgDX1+wVyA0sQ5IHye37g315JPQQEZMxSg8Nagga4GHSq4dzVyF8HnEn/zyytC61H5UvFKSbj3Z3cI9pScuPbckAHufu9B8vf02G9AnydyVJn8j6InlSYP+a5JNP2Q/LYzxIbgyMgG6SwdwsiFtkcLe6r6jfVjAfUb+9UJKZeUrQNKv+DtOFp26Z5GnNSrFtB/z0oNFpmW+gPKNSk/E8k5ObjPBZ1XzB/FmxZ8d/IvE5hU67beSStxepQAXpv7sGQmHb8eSVgK0MfdGuPCYHeL3RaVteG0RqsUNmJss1aKRb8lfEqiX7xbiTVX/DXlifEsvYkqek6nmxutVt9PfWfFOuh+JvyT24kJe/2AdUJLzQrPpMO02LzEtu/VTq68LAd4NcdxO8gabKh80snzJHVwtVAj/fMn9z4GT6jvnYXN0fwp7UqdUTXX1ESb6mH1v7R5Yq8mSrYfrw6NL8c2ePiQX1RKmJhQV8kp2AJztx3igp2iT9vIntXXpxM1ZZWr0NjU9/Re8pLfMnCe8giRk/FVh4m149rS33/ADParPBFoxu5ZPp1MWyXzxFUB3Yk49xuT8vmuFmVzQqS6c7rie5GE7VWYpxYpJEvMvJ7K/E82zbXI0pjnD5TDzfYtfMX9MR6HjQrNSTfp2g1ySXkqDERhkvE22yrV7ebvm+tAp8BfNdaFj8lTIC0qtEfhZ1tXSQ9BpJbZvXmp7EwrqOJoQc8HphS3qDpI7Vg0Rq7MmAhTyXEEJ3qtqQ2arW8q07O6ZGzT6aAELPamY8DUNdquQtcTOB7rSKZbt31N5eAF2yYMIeOrdED3NT8vASK8/hHuXXmmVsq7T42HXfhNIeh/2yC/vxLB+/Zf6+xxMq9YBu2FrfEq+2W0SfzU0/mduD2J49HRvD5NiXAc/A0hBjjbPPpKaI+9kyPtLnxP5mSzQNLTZ/BzGIMzeTaceZW8h04sytZDbjzG1kjKpK5nYyd0nG9PHuxPLfI3uInbpvne8wz5X165Y22W+TaUz+Ou697Iv2r/J2a4ceXHu6H/WL8nsY88UZ8/kmE2mwvkXIli0b+j+yoaeLfPBs5eabqLKR7wqeg5WJJ9bGePUDzvGHj12ZojiVTfe6mgC//dKhmn/pkIwuEVERf2iROIMZzJs/eXeRDySS84oXfe2tMs5CKvOqsz3/y1PaAIKREhDe/wEjCwAAhZcLcFTlFcfPvXezgYQEEehGMTTSCAqYSA2omL1Lp+4q4AOc1urUzZBqVCzCGDfWYgmQLFRMpD46glYrJKJBpYrgqLtBMUhFkJSsChLHqqB0o0FbjC+YPn7nuxvYoU7LzOWc/c77f8757o1l2eLIoL67OtrzC5aJPLrMksOF1RUV502aeckNM2646ubYhIvO++UFcy6edpkMlWFiDZcRUiw+nyVii8/KuWDeNXU31cyNid8asFBEBsogJfwz5ATZZItYYuLIqeKzc2ZUX19TMuF/6Q9VdrD1KzW0jeEoNZw6N1ZTO7d6Tsllc+f8uuTH1XNvrb5F/PL/3Sy3SOCI9ZCjviySKMiZUTvvpnnXzJ43t7q25Jq62lvmyfAGkZISpKcvEbnbPsNEk8trrq+bU10rMtb6bxMfmkWNIrNybKtBen0NZYkiOy7bX3FmvxkO+HA4K5f/JEf8g8RqlN/XNhZFK+1GeWe+02DLrCyNQf4h4h9Cuf1+HFFpCab1kUBYLAtJezJbYvkXRAILQBaHhUOyJba/vio2QSwHyeHrsiWOetvk2Yz6KFviy9j4KCC3OFuS46+PdRWLlYMkFM6W+P2/ubXrY/UWl59ekS3JzXjzI5m+OFsywF//Scs4sXKRzH4yWzLQX39WokQrjcuRN7MleZlKByDZ+lm2JN+/AKJZ96PbLxmUyXogEt+WbEmB5naGF+fK/GxJYSZOHpJRo7MlgzXrfK/SzdOzJSeotwky0LKOGxh7YaxrojPsrcZ9r33jjL/u3F0Xfq/+yKernMH+qT7JWeWXQUylDqRPcmWASIFVuJClGjxEFsuqmxrkrOIGGfB6ozxV3Sgrn4+zcnE5eXhcTpgSl7IbSePeuNy5DuXNP2qQcy9qkFkbGqW3VBZaiyxrsSUNljRaErdkiSVLLfmtJXdYwnqvIep2S3ZYzk5LOtGwZYVt+S2S0H0ZKPn9U+1t1DKZss4s1TJryusF3madrL+L7ZHyfRlt4Y9feuLof9wJloyRFZacIoXWSYs5GiGnyXgps5eg6M9/xBarKLoxiEBsZZrLJofsZPoJVxmnPLHbMK1Nh9xU+IchJxXODUVjY0MihaFIoFg1hoXKE4N5hqH1L9cc9LS856pGeaLDdYqiuaG6rsfdZPqQW9e1wnUigT1I73B7Wp401E6kR2Uzz7h2c9kThnGay7YZpijazZNwndamXrc88SpPHwe71ds/STHtKjUJKBON5RG8j5yHhoxJJHBKqLmsG3pqyKnreg2T0RSy1lAKrzjGgIQHBVRkP7dVJPCw+WEr09OSH7KjsVNJP8NEAgddOxUeYxiiTXITaQGMKhLMVcgaqbsgVBR9yFASXG2Y5rI2yuAgFX4abwWhZPpZMi9Q/J8l9c8VzGdQ/Rzs2nj+7qK6mkwPYbfSUNCNG6Y8cQM+erT8qdh+CBaTiJ9SjVIkW/hRihbgKkM1XjlQkXXcxJ7Hye2gU2OY8sR4YnawXJIOVsVuRrWN8TgcdKpiM4N1XUFXaXPZnW7m4Dm8tgVNU9Qkmf6KeOOpyKeQ18AU0JSVhgLTS4ZJpruhaFTFvibcV6TqABU+FF91qtREUUbDqkYmj6/J4WYidWNKpurUS92rxasqkW4IOtHYc4YR2Qaim4LodpPeN1S2H2jGK069MFfz9GJMPI95jBCq8ZK2thtYd1PmNg4/do3TomgfflYaSt23GSaZvtzTqOs6M2NyCgJ8NJflGaceJYoyGtbTIA810cTUh8lUnWrqGkWprKZd/b0zTVRkzChmMZ+6dnnidMMQYzL+LTa2mqDMpEgc1AtCqfAjhjrJdMIwqfBOT6Ou631j0lz2ifFBnIOGQfI1jLDkfq4BVIuiQ1glHfASQxnBsw0jEqLhlnqfhqNeYJlGwxMuAz4NKdlHYxOPMSoC04l0eS/BzyTfvynqpbjuY7tOMpR4eYZJhW22bJ8eKOK7gK8PxJ7TCe/DHq/lCb0+Mkwq/LJu1DY87eHHi1RhOrTWGEZj9xiKxiLDFEWvpYcU3NNyIT3ch+uJNCazUZHAFjRKEfxJ4x2/UY/SIu0XyLdT/i8M01w2lpg7KjnYx+LMZ2fWBFPhf+skz6S9U4iXtVHliY2k+TgabysKB/Cs6zEOX+yLpueBnNkoHUZlIoGdJDNAr+aPSM8GzS9w/A+F1uLHezh16N4W1+5peReHW7Tm3ZS2mxK3ogoqkcBxk50KLzRMVewq7GmLSAUH3UzkSLQ6dMjykDxJdnk4bfIOWpuu4BnJM1p9nA1uBynsSjJ8QXewHvtjk02Gaw0TCTyPnweDJPYqRa0HlE5M3wvSjD2E9RHhXTRH6cXrhJTB1mKC9gVbm/qQ3hcEoQM4yWOROjGpqMRWvWZdD6985+Wu3TzKIPFEUPYBCIJEC1Fch2Hquh4muTHaj1gwGhvHZCqd0H9wjtEoT5zvmYhMQaPPUPAYiv8pdOw0IEQjFT6Has9hC5Xiw2PGGQ0TRU00rPpQKkvNC1zzbPuOOTSMqcW7FI4yLPTR24EPKIIIPq/Ft18TXcpBAZmvMZSDDsNUxfZgkquj1Yuqxfp9A7S92mubJN8mSZvVX69vcJvRJIOqmO5yhtFtYbb34u0vGOpV/KHOxfP80BV8wFAnkY4bpio2m4cUo7Gp2O5jyydx0KU5l6KxmUcrbnPlhRyxkulapDP1FWZeTu2tTSfq1JzPoHXSpe7KnpY/ABuDhhSAdnH7z2RgRmpSylxKlOW8wuZohI1s3hLq/YI9vUtzOIlw93MQQutBrfk6QPgjPxSu1boSq+jjoxT1NJqP6d3yMoi0kcNrHDylW9yJ+jM8ndTCRahMUbTdk6TCe7BVkwMKynrsviTcfYbibLZhkukIh2YDS1HtxmQ4h9u1o3dQ0F4vd/3c4lOIokTH5gdklku/LiV2nnZ0PjnrN8i9hrIb3psgEliPw3xtcQcJ5XHwJhnmqMZ+NPTD5jMcH1TIvkVjL0h/Sw9ecOmwMrRai4F6TCq8IshkvmEYktam1wDpJsA7URd6A7qLKssTLVSTmEyd9+ByZnt/N8VCrCp6PTxgGP0+pet6gbTD7GLPtoJJbj+MYyiyE2/T+gFuVvh2kPYyJB0cLNV+vkgmjdS0DrpY7/nVOFuE9H40F2gLmlCfz0Ec9G7Tg+v5ETOeW5tuVB9nolpN7BH4uERnIo9eTEZDX+8n9x90M0rj0FynN9rFGoXp84qiPN1h7b0uIPeZ7hiLGglY3NIZBjDFiKAew5+OCutbhqHu7YhmAKu+BNZXcoGvJud0MhpbbCgalxqmrkuvkvmVZHaYq2EEzw4FNIjJw4y+D4d6Z0zXV74yZKBbdpShJzphun/DQCFC3A/UeDbAr6DO3xkKVo8YRpeB6dAUN5PAOxzsIIFCRVPLOQstr3Q5zEtTJwstbdyfgXSny8uyg5i6GUnCfaAHG/nRA6xtUL6SE2n9sv4Sr3caSjLVhkmmXSJ8ogfFhPgrpSl9o/+gnaeCww3a/OmYrOXHAkptdfnrqA0kH9Ae70TtbqTvk+rt2tJDhLqC5xCqI7wDigC8jzho0h7rF59w5bzEkI/SN88a1Ce3RwJLDEWjwjCsDBDzSRCNLUN9Pvj9DIRydA5y0WCC2BKYbiRnkx0TJPITvC8iXNxQmtFiGJGNlPxskFnfClQHcLSVxAI6/FupoYLskmhepEWth7maQ4WuRj8Ffo70dg1XSM5LOX0bhw/qSi0n9jocLifD7d6B3tt8OaDBda1FRAIOb9+xhOPLQz8S9DLRhiil/g2GSYV3EJKvl0hgPw6/oiCv3SL/AQ==(/figma)--&gt;&quot;&gt;&lt;/span&gt;&lt;span style=&quot;&quot;&gt;Promocionar curso&lt;/span&gt;" style="rounded=1;whiteSpace=wrap;html=1;" parent="1" vertex="1">
                    <mxGeometry x="75" y="460" width="120" height="60" as="geometry"/>
                </mxCell>
                <mxCell id="31" value="Notificar estado del curso" style="rounded=1;whiteSpace=wrap;html=1;" parent="1" vertex="1">
                    <mxGeometry x="320" y="460" width="120" height="60" as="geometry"/>
                </mxCell>
                <mxCell id="45" style="edgeStyle=none;html=1;exitX=0.5;exitY=0;exitDx=0;exitDy=0;entryX=0.5;entryY=1;entryDx=0;entryDy=0;fillColor=#1ba1e2;strokeColor=#006EAF;" parent="1" source="31" target="35" edge="1">
                    <mxGeometry relative="1" as="geometry">
                        <mxPoint x="390" y="330" as="targetPoint"/>
                    </mxGeometry>
                </mxCell>
                <mxCell id="46" style="edgeStyle=none;html=1;fillColor=#1ba1e2;strokeColor=#006EAF;" parent="1" source="35" target="37" edge="1">
                    <mxGeometry relative="1" as="geometry"/>
                </mxCell>
                <mxCell id="35" value="inscribir estudiante&lt;br&gt;&amp;nbsp;al curso" style="rounded=1;whiteSpace=wrap;html=1;" parent="1" vertex="1">
                    <mxGeometry x="320" y="360" width="120" height="60" as="geometry"/>
                </mxCell>
                <mxCell id="40" value="" style="edgeStyle=none;html=1;fillColor=#1ba1e2;strokeColor=#006EAF;" parent="1" source="37" target="38" edge="1">
                    <mxGeometry relative="1" as="geometry"/>
                </mxCell>
                <mxCell id="37" value="impartir clases" style="rounded=1;whiteSpace=wrap;html=1;" parent="1" vertex="1">
                    <mxGeometry x="320" y="250" width="120" height="60" as="geometry"/>
                </mxCell>
                <mxCell id="41" style="edgeStyle=none;html=1;entryX=0.5;entryY=1;entryDx=0;entryDy=0;fillColor=#1ba1e2;strokeColor=#006EAF;" parent="1" source="38" target="2" edge="1">
                    <mxGeometry relative="1" as="geometry"/>
                </mxCell>
                <mxCell id="38" value="finalizar curso" style="rounded=1;whiteSpace=wrap;html=1;" parent="1" vertex="1">
                    <mxGeometry x="320" y="140" width="120" height="60" as="geometry"/>
                </mxCell>
                <mxCell id="42" value="" style="endArrow=none;html=1;fillColor=#ffcd28;gradientColor=#ffa500;strokeColor=#d79b00;" parent="1" edge="1">
                    <mxGeometry width="50" height="50" relative="1" as="geometry">
                        <mxPoint x="260" y="530" as="sourcePoint"/>
                        <mxPoint x="260" y="40" as="targetPoint"/>
                        <Array as="points"/>
                    </mxGeometry>
                </mxCell>
            </root>
        </mxGraphModel>
    </diagram>
</mxfile>
